<svg width="484" height="18" viewBox="0 0 484 18" fill="none" xmlns="http://www.w3.org/2000/svg">
<path d="M78.1402 17.6437L87.9461 0.661133H68.3362L78.1402 17.6437Z" fill="#FCDB96"/>
<path d="M96.9897 17.6437L106.796 0.661133H87.1838L96.9897 17.6437Z" fill="#45AD32"/>
<path d="M22.5132 17.6437L32.3172 0.661133H12.7073L22.5132 17.6437Z" fill="#3B8183"/>
<path d="M41.7359 17.6437L51.5418 0.661133H31.9299L41.7359 17.6437Z" fill="#D33924"/>
<path d="M58.9175 17.6437L68.7235 0.661133H49.1116L58.9175 17.6437Z" fill="#FCDB96"/>
<path d="M172.83 17.6437L182.635 0.661133H163.024L172.83 17.6437Z" fill="#FCDB96"/>
<path d="M191.681 17.6437L201.485 0.661133H181.875L191.681 17.6437Z" fill="#45AD32"/>
<path d="M117.205 17.6437L127.009 0.661133H107.399L117.205 17.6437Z" fill="#3B8183"/>
<path d="M136.427 17.6437L146.233 0.661133H126.621L136.427 17.6437Z" fill="#D33924"/>
<path d="M153.609 17.6437L163.415 0.661133H143.803L153.609 17.6437Z" fill="#FCDB96"/>
<path d="M266.822 17.6437L276.626 0.661133H257.016L266.822 17.6437Z" fill="#FCDB96"/>
<path d="M285.669 17.6437L295.475 0.661133H275.864L285.669 17.6437Z" fill="#45AD32"/>
<path d="M211.193 17.6437L220.999 0.661133H201.387L211.193 17.6437Z" fill="#3B8183"/>
<path d="M230.414 17.6437L240.22 0.661133H220.61L230.414 17.6437Z" fill="#D33924"/>
<path d="M247.595 17.6437L257.401 0.661133H237.791L247.595 17.6437Z" fill="#FCDB96"/>
<path d="M361.267 17.6437L371.073 0.661133H351.463L361.267 17.6437Z" fill="#FCDB96"/>
<path d="M380.117 17.6437L389.923 0.661133H370.311L380.117 17.6437Z" fill="#45AD32"/>
<path d="M305.64 17.6437L315.446 0.661133H295.834L305.64 17.6437Z" fill="#3B8183"/>
<path d="M324.859 17.6437L334.665 0.661133H315.053L324.859 17.6437Z" fill="#D33924"/>
<path d="M342.043 17.6437L351.848 0.661133H332.239L342.043 17.6437Z" fill="#FCDB96"/>
<path d="M455.257 17.6437L465.063 0.661133H445.451L455.257 17.6437Z" fill="#FCDB96"/>
<path d="M474.109 17.6437L483.913 0.661133H464.303L474.109 17.6437Z" fill="#45AD32"/>
<path d="M399.632 17.6437L409.436 0.661133H389.826L399.632 17.6437Z" fill="#3B8183"/>
<path d="M418.857 17.6437L428.661 0.661133H409.051L418.857 17.6437Z" fill="#D33924"/>
<path d="M436.037 17.6437L445.841 0.661133H426.231L436.037 17.6437Z" fill="#FCDB96"/>
<path d="M483.997 0H0.000488281V0.455507H483.997V0Z" fill="#FCDB96"/>
</svg>
