<svg width="1440" height="18" viewBox="0 0 1440 18" fill="none" xmlns="http://www.w3.org/2000/svg">
<path d="M78.1418 17.6437L87.9458 0.661133H68.3359L78.1418 17.6437Z" fill="#FCDB96"/>
<path d="M96.9895 17.6437L106.795 0.661133H87.1836L96.9895 17.6437Z" fill="#45AD32"/>
<path d="M22.5129 17.6437L32.3188 0.661133H12.707L22.5129 17.6437Z" fill="#3B8183"/>
<path d="M41.7356 17.6437L51.5415 0.661133H31.9316L41.7356 17.6437Z" fill="#D33924"/>
<path d="M58.9173 17.6437L68.7232 0.661133H49.1133L58.9173 17.6437Z" fill="#FCDB96"/>
<path d="M172.827 17.6437L182.633 0.661133H163.023L172.827 17.6437Z" fill="#FCDB96"/>
<path d="M191.677 17.6437L201.483 0.661133H181.871L191.677 17.6437Z" fill="#45AD32"/>
<path d="M117.2 17.6437L127.006 0.661133H107.395L117.2 17.6437Z" fill="#3B8183"/>
<path d="M136.425 17.6437L146.231 0.661133H126.619L136.425 17.6437Z" fill="#D33924"/>
<path d="M153.605 17.6437L163.411 0.661133H143.799L153.605 17.6437Z" fill="#FCDB96"/>
<path d="M266.818 17.6437L276.624 0.661133H257.012L266.818 17.6437Z" fill="#FCDB96"/>
<path d="M285.669 17.6437L295.473 0.661133H275.863L285.669 17.6437Z" fill="#45AD32"/>
<path d="M211.191 17.6437L220.997 0.661133H201.387L211.191 17.6437Z" fill="#3B8183"/>
<path d="M230.417 17.6437L240.221 0.661133H220.611L230.417 17.6437Z" fill="#D33924"/>
<path d="M247.599 17.6437L257.403 0.661133H237.793L247.599 17.6437Z" fill="#FCDB96"/>
<path d="M361.271 17.6437L371.075 0.661133H351.465L361.271 17.6437Z" fill="#FCDB96"/>
<path d="M380.118 17.6437L389.924 0.661133H370.312L380.118 17.6437Z" fill="#45AD32"/>
<path d="M305.642 17.6437L315.448 0.661133H295.836L305.642 17.6437Z" fill="#3B8183"/>
<path d="M324.865 17.6437L334.67 0.661133H315.061L324.865 17.6437Z" fill="#D33924"/>
<path d="M342.046 17.6437L351.852 0.661133H332.242L342.046 17.6437Z" fill="#FCDB96"/>
<path d="M455.257 17.6437L465.063 0.661133H445.451L455.257 17.6437Z" fill="#FCDB96"/>
<path d="M474.109 17.6437L483.915 0.661133H464.303L474.109 17.6437Z" fill="#45AD32"/>
<path d="M399.634 17.6437L409.438 0.661133H389.828L399.634 17.6437Z" fill="#3B8183"/>
<path d="M418.857 17.6437L428.663 0.661133H409.051L418.857 17.6437Z" fill="#D33924"/>
<path d="M436.038 17.6437L445.844 0.661133H426.232L436.038 17.6437Z" fill="#FCDB96"/>
<path d="M483.997 0H0V0.455507H483.997V0Z" fill="#FCDB96"/>
<path d="M562.138 17.6437L571.944 0.661133H552.332L562.138 17.6437Z" fill="#FCDB96"/>
<path d="M580.988 17.6437L590.793 0.661133H571.184L580.988 17.6437Z" fill="#45AD32"/>
<path d="M506.511 17.6437L516.317 0.661133H496.707L506.511 17.6437Z" fill="#3B8183"/>
<path d="M525.736 17.6437L535.54 0.661133H515.93L525.736 17.6437Z" fill="#D33924"/>
<path d="M542.917 17.6437L552.721 0.661133H533.111L542.917 17.6437Z" fill="#FCDB96"/>
<path d="M656.829 17.6437L666.633 0.661133H647.023L656.829 17.6437Z" fill="#FCDB96"/>
<path d="M675.677 17.6437L685.483 0.661133H665.871L675.677 17.6437Z" fill="#45AD32"/>
<path d="M601.2 17.6437L611.006 0.661133H591.395L601.2 17.6437Z" fill="#3B8183"/>
<path d="M620.421 17.6437L630.227 0.661133H610.617L620.421 17.6437Z" fill="#D33924"/>
<path d="M637.603 17.6437L647.409 0.661133H627.799L637.603 17.6437Z" fill="#FCDB96"/>
<path d="M750.82 17.6437L760.626 0.661133H741.016L750.82 17.6437Z" fill="#FCDB96"/>
<path d="M769.669 17.6437L779.473 0.661133H759.863L769.669 17.6437Z" fill="#45AD32"/>
<path d="M695.193 17.6437L704.997 0.661133H685.387L695.193 17.6437Z" fill="#3B8183"/>
<path d="M714.415 17.6437L724.221 0.661133H704.609L714.415 17.6437Z" fill="#D33924"/>
<path d="M731.597 17.6437L741.403 0.661133H721.791L731.597 17.6437Z" fill="#FCDB96"/>
<path d="M845.265 17.6437L855.071 0.661133H835.459L845.265 17.6437Z" fill="#FCDB96"/>
<path d="M864.116 17.6437L873.92 0.661133H854.311L864.116 17.6437Z" fill="#45AD32"/>
<path d="M789.638 17.6437L799.444 0.661133H779.834L789.638 17.6437Z" fill="#3B8183"/>
<path d="M808.859 17.6437L818.665 0.661133H799.053L808.859 17.6437Z" fill="#D33924"/>
<path d="M826.044 17.6437L835.85 0.661133H816.238L826.044 17.6437Z" fill="#FCDB96"/>
<path d="M939.257 17.6437L949.061 0.661133H929.451L939.257 17.6437Z" fill="#FCDB96"/>
<path d="M958.105 17.6437L967.911 0.661133H948.299L958.105 17.6437Z" fill="#45AD32"/>
<path d="M883.628 17.6437L893.434 0.661133H873.822L883.628 17.6437Z" fill="#3B8183"/>
<path d="M902.851 17.6437L912.657 0.661133H893.047L902.851 17.6437Z" fill="#D33924"/>
<path d="M920.033 17.6437L929.838 0.661133H910.229L920.033 17.6437Z" fill="#FCDB96"/>
<path d="M967.993 0H483.996V0.455507H967.993V0Z" fill="#FCDB96"/>
<path d="M1034.14 17.6437L1043.95 0.661133H1024.34L1034.14 17.6437Z" fill="#FCDB96"/>
<path d="M1052.99 17.6437L1062.8 0.661133H1043.19L1052.99 17.6437Z" fill="#45AD32"/>
<path d="M978.517 17.6437L988.321 0.661133H968.711L978.517 17.6437Z" fill="#3B8183"/>
<path d="M997.74 17.6437L1007.55 0.661133H987.934L997.74 17.6437Z" fill="#D33924"/>
<path d="M1014.92 17.6437L1024.73 0.661133H1005.12L1014.92 17.6437Z" fill="#FCDB96"/>
<path d="M1128.83 17.6437L1138.64 0.661133H1119.03L1128.83 17.6437Z" fill="#FCDB96"/>
<path d="M1147.69 17.6437L1157.49 0.661133H1137.88L1147.69 17.6437Z" fill="#45AD32"/>
<path d="M1073.21 17.6437L1083.01 0.661133H1063.4L1073.21 17.6437Z" fill="#3B8183"/>
<path d="M1092.43 17.6437L1102.24 0.661133H1082.63L1092.43 17.6437Z" fill="#D33924"/>
<path d="M1109.61 17.6437L1119.42 0.661133H1099.81L1109.61 17.6437Z" fill="#FCDB96"/>
<path d="M1222.83 17.6437L1232.63 0.661133H1213.02L1222.83 17.6437Z" fill="#FCDB96"/>
<path d="M1241.67 17.6437L1251.48 0.661133H1231.87L1241.67 17.6437Z" fill="#45AD32"/>
<path d="M1167.2 17.6437L1177 0.661133H1157.39L1167.2 17.6437Z" fill="#3B8183"/>
<path d="M1186.42 17.6437L1196.22 0.661133H1176.61L1186.42 17.6437Z" fill="#D33924"/>
<path d="M1203.6 17.6437L1213.41 0.661133H1193.8L1203.6 17.6437Z" fill="#FCDB96"/>
<path d="M1317.27 17.6437L1327.08 0.661133H1307.47L1317.27 17.6437Z" fill="#FCDB96"/>
<path d="M1336.12 17.6437L1345.93 0.661133H1326.31L1336.12 17.6437Z" fill="#45AD32"/>
<path d="M1261.64 17.6437L1271.45 0.661133H1251.84L1261.64 17.6437Z" fill="#3B8183"/>
<path d="M1280.86 17.6437L1290.67 0.661133H1271.06L1280.86 17.6437Z" fill="#D33924"/>
<path d="M1298.05 17.6437L1307.85 0.661133H1288.24L1298.05 17.6437Z" fill="#FCDB96"/>
<path d="M1411.26 17.6437L1421.07 0.661133H1401.46L1411.26 17.6437Z" fill="#FCDB96"/>
<path d="M1430.11 17.6437L1439.92 0.661133H1420.31L1430.11 17.6437Z" fill="#45AD32"/>
<path d="M1355.64 17.6437L1365.44 0.661133H1345.83L1355.64 17.6437Z" fill="#3B8183"/>
<path d="M1374.86 17.6437L1384.66 0.661133H1365.05L1374.86 17.6437Z" fill="#D33924"/>
<path d="M1392.04 17.6437L1401.84 0.661133H1382.23L1392.04 17.6437Z" fill="#FCDB96"/>
<path d="M1440 0H956.004V0.455507H1440V0Z" fill="#FCDB96"/>
</svg>
