<svg width="343" height="627" viewBox="0 0 343 627" fill="none" xmlns="http://www.w3.org/2000/svg">
<path d="M171.5 2.16699C172.041 2.39199 172.698 2.66383 173.445 2.96191C177.109 4.4237 181.059 5.82243 188.136 7.94531C197.871 10.8659 199.671 11.0484 202.921 13.2148V13.2139C204.881 14.5206 206.106 15.7309 206.394 16.0195C210.028 19.6673 211.184 23.6727 211.613 26.0098L212.059 28.4355L214.34 27.498C215.643 26.9627 224.884 23.3515 234.555 27.1689C242.539 30.3209 247.626 37.2468 247.911 44.874L248.007 47.4199L250.457 46.7236C252.222 46.2221 264.503 42.9537 275.974 49.0693C285.364 54.0756 290.528 63.3774 289.58 73.0117L289.351 75.3447L291.69 75.2041C293.297 75.1076 300.014 74.8851 305.018 78.8516C310.367 83.092 311.811 90.6455 307.844 97.5156L306.842 99.252L308.579 100.25C311.134 101.718 314.157 103.71 316.731 106.237C319.308 108.767 321.342 111.741 322.102 115.17C323.665 122.232 321.279 127.47 317.931 132.828C316.309 135.423 314.288 138.299 312.667 141.135C310.997 144.057 309.56 147.239 308.946 150.864C307.899 157.05 309.265 163.456 314.559 169.244C319.585 174.74 328.043 179.562 341 183.3V625H2V183.3C14.9571 179.562 23.415 174.74 28.4414 169.244C33.7352 163.456 35.101 157.05 34.0537 150.864V150.863C33.4397 147.238 32.0028 144.057 30.333 141.135C28.7124 138.299 26.6899 135.423 25.0684 132.828C21.7206 127.47 19.335 122.232 20.8984 115.17C21.6575 111.741 23.6919 108.767 26.2686 106.237C28.8432 103.71 31.866 101.718 34.4209 100.25L36.1582 99.252L35.1562 97.5156C31.1889 90.6455 32.6333 83.0923 37.9824 78.8516C42.986 74.885 49.7031 75.1076 51.3096 75.2041L53.6494 75.3447L53.4199 73.0117C52.4725 63.3772 57.6364 54.0756 67.0264 49.0693C78.4975 42.9537 90.7785 46.2222 92.543 46.7236L94.9932 47.4199L95.0889 44.874C95.3741 37.2468 100.461 30.3209 108.445 27.1689C118.116 23.3515 127.357 26.9627 128.66 27.498L130.941 28.4355L131.387 26.0098C131.816 23.6727 132.972 19.6673 136.606 16.0195C136.894 15.7309 138.119 14.5206 140.079 13.2139C143.329 11.0473 145.129 10.866 154.864 7.94531C161.94 5.82244 165.891 4.4237 169.555 2.96191C170.302 2.66383 170.959 2.39199 171.5 2.16699Z" fill="white" stroke="#88471E" stroke-width="4"/>
<path d="M95.6304 134.06C96.1872 133.869 96.9002 133.937 97.491 133.937L97.5182 139.397C96.9817 139.159 96.2823 139.268 95.8545 139.017C95.6643 138.901 95.644 138.467 95.5964 138.256L95.6304 134.06Z" fill="#F98310"/>
<path d="M92.4115 145.42C93.0294 145.943 98.4687 145.658 99.5959 145.563C100.112 145.522 100.601 145.529 101.117 145.563C101.362 146.296 101.803 147.349 101.504 148.109C98.7335 148.476 95.6031 148.191 92.7986 148.157C92.5541 147.267 92.2214 146.337 92.4115 145.42Z" fill="#6FE3EB"/>
<path d="M92.4122 145.421C93.4444 143.044 95.5223 140.912 95.597 138.257C95.6445 138.467 95.6649 138.902 95.8551 139.017C96.2829 139.269 96.9823 139.16 97.5188 139.398C98.6935 141.503 100.221 143.302 101.118 145.57C100.602 145.53 100.113 145.523 99.5967 145.57C98.4694 145.659 93.0234 145.937 92.4122 145.421Z" fill="#F25E25"/>
<path d="M96.3231 38.4641C96.9749 38.4709 97.654 38.5116 98.3059 38.4709C98.3127 49.8451 98.5979 61.3077 98.1429 72.6683C98.1429 73.2727 98.1226 73.877 98.1837 74.4746C98.109 79.8935 98.2516 85.3192 98.1429 90.7381C98.1158 92.7005 98.1158 94.663 98.1361 96.6255C97.4842 96.6595 96.8188 96.6255 96.1601 96.6187L96.1737 90.7041C96.5539 85.8285 96.3706 80.6337 96.1872 75.7377C96.1601 74.9839 96.1872 74.2301 96.2008 73.4764C96.2551 72.8177 96.2348 72.1998 96.1805 71.5479C95.9292 66.1697 96.1737 60.6625 96.1805 55.2708C96.1872 49.7161 95.9292 44.0052 96.3231 38.4641Z" fill="#FBC329"/>
<path d="M96.1605 96.6184C96.8124 96.6252 97.4846 96.6592 98.1365 96.6252C100.493 96.6931 102.679 97.087 104.404 98.8593C105.579 100.068 106.115 101.501 106.414 103.124C106.407 104.224 106.204 105.344 105.98 106.424C103.766 106.451 89.8995 106.648 88.9013 106.241C88.3785 105.399 88.0321 104.468 87.6519 103.558C87.7877 101.827 88.3717 100.285 89.6075 99.0359C91.3391 97.2839 93.7634 96.632 96.1605 96.6184Z" fill="#F98310"/>
<path d="M88.9014 106.248C89.8996 106.655 103.773 106.459 105.98 106.431C107.229 106.751 108.295 107.328 108.974 108.462C109.871 109.956 109.653 111.796 109.443 113.446C106.706 113.12 103.705 113.337 100.941 113.337C95.4475 113.351 89.9471 113.303 84.4536 113.195C84.3585 111.334 84.243 109.107 85.5604 107.62C86.4228 106.628 87.6383 106.35 88.9014 106.248Z" fill="#4E86A9"/>
<path d="M79.2932 122.124C81.0316 123.856 82.9258 125.105 84.6574 126.844C85.1463 126.599 85.5741 126.334 86.0223 126.015L86.3007 125.941C86.3017 125.942 86.3027 125.944 86.3037 125.945C87.2559 127.478 89.4178 131.864 89.6349 133.607L86.5452 133.186C85.0241 132.718 83.2721 132.514 81.7103 132.195C79.0144 131.631 76.3322 131.013 73.6567 130.327C72.7943 129.336 72.414 127.665 71.9998 126.429L72.2374 126.382C75.1981 125.791 77.1813 124.134 79.2932 122.124Z" fill="#4E86A9"/>
<path d="M116.247 120.542C118.114 121.982 119.737 123.666 121.523 125.2C121.394 127.21 120.654 129.526 119.534 131.21C110.889 133.831 98.6321 134.395 89.6346 133.614C89.4105 131.869 87.2443 127.475 86.3004 125.947L86.3037 125.945C87.9661 124.88 89.4522 123.821 90.8501 122.423C92.9348 124.481 95.1418 126.416 97.3283 128.365C99.6711 126.402 101.953 124.297 103.97 122.002C105.952 123.802 108.01 125.506 109.979 127.319C111.867 124.922 114.108 122.722 116.247 120.542Z" fill="#4E86A9"/>
<path d="M109.443 113.446C106.706 113.12 103.705 113.337 100.941 113.337C95.4475 113.351 89.9471 113.303 84.4536 113.195L79.2932 122.124C81.0316 123.856 82.9258 125.105 84.6574 126.844C85.1463 126.599 85.5741 126.334 86.0223 126.015L86.3007 125.941C86.3017 125.942 86.3027 125.944 86.3037 125.945C87.9661 124.88 89.4522 123.821 90.8501 122.423C92.9348 124.481 95.1418 126.416 97.3283 128.365C99.6711 126.402 101.953 124.297 103.97 122.002C105.952 123.802 108.01 125.506 109.979 127.319C111.867 124.922 114.108 122.722 116.247 120.542L109.443 113.446Z" fill="#F1D2A9"/>
<path d="M171.121 3L172.578 3.72196C172.513 11.6506 173.545 66.6485 172.268 69.4719L170.94 69.2398C170.128 62.4715 170.889 54.6201 170.902 47.7228C170.915 33.2063 170.67 18.6511 170.927 4.13451L171.121 3Z" fill="#10B4D0"/>
<path d="M147.901 131.252C151.395 129.009 155.507 127.526 158.73 124.884C160.703 127.823 162.65 129.512 165.86 131.059C164.996 132.993 160.419 144.97 159.478 145.64L158.975 145.769C157.622 145.73 156.049 147.019 154.566 147.251C151.949 147.664 148.997 147.316 146.354 147.2C146.057 146.233 145.825 145.266 145.658 144.273C144.794 139.503 145.026 135.365 147.901 131.252Z" fill="#F1D2A9"/>
<path d="M184.399 124.948C187.158 126.882 193.72 129.899 195.563 132.142C199.148 137.402 198.335 142.017 197.355 147.935C193.617 148.064 189.607 148.399 185.997 147.277C185.482 146.916 184.979 146.53 184.489 146.117C179.848 142.224 178.017 137.067 177.502 131.188C180.441 129.705 182.568 127.668 184.399 124.948Z" fill="#F1D2A9"/>
<path d="M184.773 88.2564C187.699 86.5031 191.554 85.4588 194.983 86.2066C195.886 86.4 196.517 86.748 197.059 87.5216C198.709 89.855 198.09 96.2624 197.278 98.9053C196.878 100.182 196.208 101.329 195.538 102.476C192.134 105.674 188.266 107.736 184.257 110.057C182.078 106.911 179.306 104.913 175.671 103.753C178.314 98.8151 180.286 91.6342 184.773 88.2564Z" fill="#F1D2A9"/>
<path d="M145.323 86.7866L145.788 86.6964C150.815 85.7682 154.155 86.3612 158.357 89.2877C161.426 91.9822 165.035 100.104 166.905 104.088C163.617 105.893 161.323 107.775 158.963 110.727C158.074 110.07 156.849 109.696 155.83 109.258C152.607 107.891 150.248 106.653 147.631 104.294C146.986 103.405 146.329 102.528 145.775 101.574C143.003 96.8554 143.957 91.7372 145.323 86.7866Z" fill="#F1D2A9"/>
<path d="M165.861 131.059C169.806 132.348 173.493 132.232 177.489 131.201C178.005 137.08 179.836 142.237 184.477 146.13C184.967 146.53 185.469 146.916 185.985 147.29C184.026 154.445 177.154 160.182 172.075 165.172C167.085 160.659 160.665 155.696 159.286 148.67C159.105 147.729 159.118 146.736 158.989 145.782L159.492 145.653C160.407 144.97 164.997 132.993 165.861 131.059Z" fill="#4E86A9"/>
<path d="M170.939 69.2407L172.267 69.4728C178.623 76.0864 182.426 79.1806 184.785 88.2437C180.286 91.6215 178.326 98.8024 175.67 103.727C172.628 103.521 169.895 103.315 166.904 104.075C165.034 100.092 161.425 91.9696 158.356 89.2751C159.13 87.2253 159.22 84.9434 160.148 82.8419C162.533 77.4401 167.432 74.1139 170.784 69.4599C170.836 69.3954 170.887 69.3181 170.939 69.2407Z" fill="#4E86A9"/>
<path d="M147.644 104.282C150.261 106.641 152.621 107.879 155.844 109.245C156.862 109.684 158.087 110.057 158.977 110.715C157.017 114.776 156.501 118.45 157.894 122.808C158.126 123.517 158.435 124.213 158.744 124.883C155.521 127.513 151.409 128.996 147.915 131.252C146.42 131.458 144.924 131.484 143.429 131.304C135.113 130.285 128.938 123.788 124 117.574C132.328 111.965 136.57 104.81 147.644 104.282Z" fill="#4E86A9"/>
<path d="M166.905 104.088C169.896 103.327 172.629 103.52 175.672 103.739C179.307 104.9 182.079 106.898 184.258 110.044C186.088 113.847 187.416 117.431 185.934 121.634C185.534 122.755 184.993 123.916 184.4 124.947C182.582 127.667 180.442 129.704 177.489 131.187C173.493 132.218 169.806 132.334 165.861 131.045C162.663 129.511 160.704 127.809 158.731 124.87C158.435 124.186 158.113 123.503 157.88 122.794C156.475 118.449 157.004 114.762 158.963 110.701C161.31 107.775 163.605 105.892 166.905 104.088Z" fill="#E2462B"/>
<path d="M184.245 110.044C188.267 107.724 192.122 105.661 195.525 102.464C204.756 103.212 212.143 109.941 217.88 116.697C218.318 117.212 218.744 117.741 219.156 118.283C214.18 123.646 209.075 129.769 201.597 131.536C199.651 132 197.394 131.6 195.538 132.154C193.694 129.911 187.132 126.894 184.373 124.961C184.954 123.929 185.508 122.769 185.908 121.647C187.416 117.432 186.075 113.848 184.245 110.044Z" fill="#4E86A9"/>
<path d="M245.474 38.5726L246.933 38.4641C246.897 44.3954 246.728 50.3508 246.909 56.2821V81.8155C246.909 85.7214 247.041 89.7118 246.812 93.6057L245.329 93.5213C244.859 89.6997 245.185 85.4803 245.185 81.6226C245.136 74.1723 245.161 66.722 245.257 59.2718L245.474 38.5726Z" fill="#10B4D0"/>
<path d="M245.197 144.202C246.053 144.576 246.655 144.648 247.56 144.371C248.922 144.588 249.525 145.07 250.405 146.107C251.622 147.53 253.78 150.676 253.624 152.557C253.479 152.629 253.334 152.726 253.177 152.786C250.971 153.606 241.761 153.859 240.001 152.412C239.639 152.111 239.374 151.725 239.302 151.255C239.061 149.579 241.134 146.686 242.207 145.432C243.075 144.419 243.883 144.275 245.197 144.202Z" fill="#F25E25"/>
<path d="M245.317 93.5215L246.8 93.6059L261.833 109.676C264.92 112.955 268.488 116.246 271.068 119.947C268.247 123.865 264.389 127.241 260.977 130.64C256.408 135.125 251.936 139.694 247.56 144.359C246.656 144.624 246.053 144.552 245.197 144.19C243.473 142.02 241.411 140.007 239.519 137.982C233.78 131.81 227.692 125.89 222.159 119.549C226.378 113.726 231.574 108.555 236.445 103.274C239.434 100.043 242.219 96.6438 245.317 93.5215Z" fill="#4E86A9"/>
<path d="M245.69 98.428C248.234 100.417 250.488 103.226 252.694 105.589L265.015 118.886C258.975 125.263 252.803 131.351 247.101 138.042L247.04 138.102H246.92C244.943 136.873 230.476 121.14 227.715 118.127C233.972 111.858 239.855 105.083 245.69 98.428Z" fill="#F1D2A9"/>
<path d="M171.5 2.16699C172.041 2.39199 172.698 2.66383 173.445 2.96191C177.109 4.4237 181.059 5.82243 188.136 7.94531C197.871 10.8659 199.671 11.0484 202.921 13.2148V13.2139C204.881 14.5206 206.106 15.7309 206.394 16.0195C210.028 19.6673 211.184 23.6727 211.613 26.0098L212.059 28.4355L214.34 27.498C215.643 26.9627 224.884 23.3515 234.555 27.1689C242.539 30.3209 247.626 37.2468 247.911 44.874L248.007 47.4199L250.457 46.7236C252.222 46.2221 264.503 42.9537 275.974 49.0693C285.364 54.0756 290.528 63.3774 289.58 73.0117L289.351 75.3447L291.69 75.2041C293.297 75.1076 300.014 74.8851 305.018 78.8516C310.367 83.092 311.811 90.6455 307.844 97.5156L306.842 99.252L308.579 100.25C311.134 101.718 314.157 103.71 316.731 106.237C319.308 108.767 321.342 111.741 322.102 115.17C323.665 122.232 321.279 127.47 317.931 132.828C316.309 135.423 314.288 138.299 312.667 141.135C310.997 144.057 309.56 147.239 308.946 150.864C307.899 157.05 309.265 163.456 314.559 169.244C319.585 174.74 328.043 179.562 341 183.3V625H2V183.3C14.9571 179.562 23.415 174.74 28.4414 169.244C33.7352 163.456 35.101 157.05 34.0537 150.864V150.863C33.4397 147.238 32.0028 144.057 30.333 141.135C28.7124 138.299 26.6899 135.423 25.0684 132.828C21.7206 127.47 19.335 122.232 20.8984 115.17C21.6575 111.741 23.6919 108.767 26.2686 106.237C28.8432 103.71 31.866 101.718 34.4209 100.25L36.1582 99.252L35.1562 97.5156C31.1889 90.6455 32.6333 83.0923 37.9824 78.8516C42.986 74.885 49.7031 75.1076 51.3096 75.2041L53.6494 75.3447L53.4199 73.0117C52.4725 63.3772 57.6364 54.0756 67.0264 49.0693C78.4975 42.9537 90.7785 46.2222 92.543 46.7236L94.9932 47.4199L95.0889 44.874C95.3741 37.2468 100.461 30.3209 108.445 27.1689C118.116 23.3515 127.357 26.9627 128.66 27.498L130.941 28.4355L131.387 26.0098C131.816 23.6727 132.972 19.6673 136.606 16.0195C136.894 15.7309 138.119 14.5206 140.079 13.2139C143.329 11.0473 145.129 10.866 154.864 7.94531C161.94 5.82244 165.891 4.4237 169.555 2.96191C170.302 2.66383 170.959 2.39199 171.5 2.16699Z" stroke="#88471E" stroke-width="4"/>
</svg>
