<svg width="735" height="151" viewBox="0 0 735 151" fill="none" xmlns="http://www.w3.org/2000/svg">
<path fill-rule="evenodd" clip-rule="evenodd" d="M134.495 -0.504086C134.175 -1.16618 133.513 -1.55725 132.783 -1.54563C131.446 -1.49723 130.611 -0.118835 131.182 1.0892L131.831 2.46371L132.785 4.41903C133.142 5.12952 133.889 5.52833 134.677 5.42766C135.92 5.26698 136.642 3.90986 136.082 2.79089L135.147 0.8685L134.495 -0.504086ZM139.408 9.26663C138.562 7.72562 136.239 8.13798 135.976 9.88033C135.924 10.2869 135.982 10.6663 136.183 11.0303L137.19 12.8907L137.954 14.2749C138.469 15.1829 139.612 15.4868 140.508 14.9506C141.362 14.4259 141.644 13.3534 141.16 12.4764L140.413 11.1271L139.408 9.26663ZM144.813 18.7934C143.931 17.3241 141.673 17.7674 141.418 19.4729C141.362 19.9105 141.433 20.3093 141.66 20.6907L141.84 20.9907L143.054 22.9828L143.6 23.8598C144.024 24.5296 144.802 24.8394 145.574 24.671C146.8 24.3767 147.39 22.9693 146.711 21.8987L146.184 21.0546L144.992 19.0954L144.813 18.7934ZM150.666 28.0318C149.692 26.6127 147.502 27.1606 147.313 28.872C147.272 29.3114 147.371 29.7199 147.617 30.0858L148.099 30.8079L149.406 32.7303L149.704 33.1581C150.552 34.3294 152.342 34.1513 152.906 32.8077C153.146 32.2037 153.08 31.5765 152.712 31.0422L152.435 30.6453L151.148 28.7519L150.666 28.0318ZM156.96 36.9778C155.825 35.4871 153.454 36.428 153.665 38.3058C153.707 38.6311 153.821 38.9195 154.017 39.1828L154.826 40.2747L156.247 42.1525C156.714 42.7469 157.504 43.0044 158.23 42.7817C159.463 42.4081 159.939 40.9058 159.147 39.8894L157.769 38.0697L156.96 36.9778ZM154.017 39.1828L159.147 39.8894L156.247 42.1525L154.017 39.1828ZM163.673 45.616C163.205 45.0468 162.429 44.8164 161.728 45.0294C160.468 45.4166 160.003 46.944 160.841 47.9643L162.001 49.3775L163.201 50.8101C164.214 51.9833 166.093 51.4935 166.409 49.9699C166.513 49.4085 166.37 48.8742 166.01 48.4347L164.835 47.0292L163.673 45.616ZM170.784 53.9328C170.292 53.3888 169.514 53.1952 168.821 53.4372C167.572 53.8766 167.181 55.4332 168.07 56.4127L169.603 58.1086L170.56 59.1463C171.851 60.4995 174.083 59.3302 173.7 57.4949C173.626 57.1697 173.477 56.8832 173.251 56.6392L172.319 55.6306L170.784 53.9328ZM178.29 61.9224C177.076 60.7067 175.022 61.6456 175.148 63.3647C175.188 63.8081 175.361 64.1875 175.672 64.505L175.98 64.8205L177.614 66.4603L178.298 67.1321C178.857 67.6761 179.686 67.8077 180.386 67.4709C181.529 66.9114 181.776 65.3897 180.867 64.5011L180.208 63.8545L178.6 62.24L178.29 61.9224ZM186.134 69.5501C184.766 68.3072 182.636 69.612 183.114 71.3892C183.211 71.728 183.383 72.0126 183.643 72.2507L184.291 72.8567L185.997 74.417L186.378 74.7578C186.959 75.2747 187.786 75.3657 188.471 75.0036C189.6 74.3919 189.768 72.8722 188.819 72.0107L188.467 71.6932L186.785 70.1541L186.134 69.5501ZM194.319 76.8176C192.988 75.7258 191.038 76.8544 191.327 78.5503C191.41 78.9917 191.613 79.3402 191.954 79.6344L192.972 80.4979L194.796 82.0176C196.054 83.0262 197.876 82.0776 197.787 80.4514C197.738 79.9287 197.518 79.4931 197.109 79.1601L195.338 77.683L194.319 76.8176ZM202.814 83.7232C201.376 82.6293 199.382 84.0542 199.953 85.7694C200.069 86.1198 200.29 86.416 200.58 86.6425L201.992 87.7344L203.513 88.8882C203.982 89.2348 204.553 89.3393 205.114 89.1864C206.584 88.7643 206.936 86.871 205.722 85.9476L204.226 84.817L202.814 83.7232ZM211.606 90.2473C210.258 89.3219 208.475 90.4583 208.742 92.0709C208.835 92.5588 209.093 92.9808 209.503 93.2635L211.335 94.5509L212.535 95.3775C213.083 95.755 213.799 95.8015 214.393 95.5053C215.644 94.8665 215.77 93.1376 214.608 92.342L213.437 91.5327L211.606 90.2473ZM220.685 96.3939C220.066 96.0029 219.295 96.0009 218.68 96.4017C217.566 97.1431 217.576 98.7538 218.693 99.4875L219.022 99.7005L220.972 100.945L221.824 101.476C223.341 102.386 225.124 100.907 224.507 99.2494C224.362 98.87 224.1 98.5641 223.759 98.3492L222.939 97.8343L221.014 96.6069L220.685 96.3939ZM230.009 102.136C229.356 101.758 228.537 101.813 227.945 102.279C226.931 103.083 227.037 104.664 228.156 105.311L228.89 105.743L230.895 106.9L231.37 107.169C231.978 107.502 232.649 107.477 233.242 107.125C234.428 106.376 234.38 104.651 233.166 103.96L232.721 103.71L230.744 102.57L230.009 102.136ZM239.564 107.479C238.959 107.164 238.246 107.202 237.675 107.586C236.531 108.375 236.626 110.083 237.855 110.733L239.013 111.347L241.142 112.451C242.747 113.258 244.437 111.51 243.582 109.928C243.4 109.599 243.132 109.336 242.794 109.167L240.72 108.091L239.564 107.479ZM249.339 112.412C247.771 111.67 246.133 113.341 246.917 114.905C247.101 115.273 247.403 115.566 247.777 115.742L249.378 116.501L251.12 117.312C251.786 117.616 252.555 117.502 253.103 117.023C254.1 116.148 253.863 114.518 252.655 113.97L250.942 113.175L249.339 112.412ZM259.315 116.928C257.611 116.233 256.059 118.166 257.102 119.681C257.317 119.978 257.561 120.179 257.9 120.322L259.956 121.19L261.307 121.749C262.897 122.398 264.436 120.682 263.617 119.172C263.415 118.799 263.086 118.502 262.691 118.344L261.371 117.8L259.315 116.928ZM269.488 121.023C267.833 120.419 266.364 122.212 267.278 123.716C267.5 124.068 267.802 124.312 268.191 124.465L268.557 124.603L270.727 125.41L271.67 125.751C272.23 125.946 272.82 125.875 273.316 125.545C274.566 124.696 274.324 122.804 272.905 122.287L271.994 121.958L269.854 121.162L269.488 121.023ZM279.809 124.678C279.122 124.452 278.359 124.653 277.873 125.193C276.982 126.18 277.406 127.76 278.667 128.174L279.474 128.44L281.677 129.148L282.2 129.311C283.9 129.828 285.27 127.874 284.211 126.451C283.969 126.136 283.66 125.913 283.28 125.797L282.788 125.642L280.616 124.945L279.809 124.678ZM290.277 127.892C288.747 127.481 287.452 129.022 288.126 130.459C288.352 130.939 288.782 131.287 289.291 131.435L290.542 131.787L292.865 132.424C294.712 132.885 295.961 130.608 294.58 129.299C294.35 129.086 294.09 128.945 293.786 128.866L291.529 128.248L290.277 127.892ZM300.87 130.654C299.438 130.329 298.224 131.719 298.737 133.094C298.969 133.674 299.43 134.098 300.043 134.238L301.747 134.64L303.644 135.068C304.442 135.237 305.226 134.892 305.636 134.186C306.246 133.101 305.652 131.756 304.438 131.479L302.574 131.059L300.87 130.654ZM311.574 132.962C309.743 132.639 308.631 134.896 310.035 136.158C310.304 136.381 310.565 136.513 310.908 136.578L313.063 136.985L314.542 137.248C316.243 137.548 317.382 135.525 316.24 134.224C315.961 133.909 315.587 133.7 315.173 133.628L313.727 133.37L311.574 132.962ZM322.38 134.801C320.561 134.551 319.523 136.791 320.927 138.025C321.201 138.253 321.496 138.387 321.85 138.441L322.181 138.489L324.469 138.812L325.524 138.954C326.26 139.041 326.963 138.702 327.342 138.065C328.012 136.917 327.304 135.488 325.991 135.306L324.969 135.171L322.715 134.851L322.38 134.801ZM333.243 136.16C331.561 135.986 330.558 138.021 331.725 139.254C332.023 139.575 332.443 139.775 332.879 139.819L333.644 139.899L335.944 140.117L336.573 140.171C338.205 140.311 339.19 138.361 338.106 137.13C337.787 136.764 337.353 136.545 336.867 136.505L336.271 136.454L334.008 136.238L333.243 136.16ZM344.15 137.033C342.462 136.944 341.56 139.006 342.774 140.185C343.103 140.501 343.504 140.681 343.959 140.704L345.157 140.774L347.668 140.892C349.371 140.95 350.231 138.832 348.961 137.69C348.628 137.395 348.239 137.231 347.792 137.215L345.352 137.101L344.15 137.033ZM355.088 137.415C354.351 137.415 353.691 137.841 353.394 138.52C352.874 139.724 353.751 141.093 355.071 141.093L356.699 141.11H358.765C360.431 141.11 361.233 139.027 359.986 137.904C359.642 137.595 359.21 137.432 358.747 137.432H356.718L355.088 137.415ZM366.028 137.293C364.232 137.386 363.616 139.711 365.12 140.679C365.449 140.888 365.798 140.981 366.189 140.965L368.249 140.888L369.879 140.806C371.567 140.721 372.249 138.57 370.919 137.527C370.576 137.25 370.125 137.115 369.683 137.136L368.09 137.213L366.028 137.293ZM376.972 136.66C375.174 136.813 374.651 139.192 376.213 140.088C376.542 140.27 376.895 140.355 377.27 140.322L377.483 140.307L379.787 140.104L380.968 139.988C382.716 139.808 383.243 137.504 381.727 136.582C381.388 136.379 380.985 136.29 380.594 136.333L379.448 136.445L377.179 136.644L376.972 136.66ZM387.846 135.508C386.03 135.758 385.647 138.214 387.331 139.006C387.663 139.151 387.974 139.196 388.332 139.153L388.994 139.07L391.289 138.752L392.014 138.644C393.707 138.383 394.154 136.145 392.686 135.254C392.309 135.032 391.893 134.941 391.455 135.01L390.77 135.111L388.512 135.425L387.846 135.508ZM398.657 133.835C397.209 134.114 396.657 135.852 397.673 136.923C398.119 137.37 398.703 137.56 399.328 137.45L400.449 137.248L402.732 136.813L402.98 136.764C403.665 136.619 404.209 136.11 404.387 135.43C404.741 134.12 403.562 132.883 402.236 133.163L399.783 133.632L398.657 133.835ZM409.372 131.64C408.156 131.936 407.581 133.303 408.222 134.377C408.64 135.07 409.436 135.394 410.222 135.215L411.827 134.842L413.815 134.358C414.493 134.186 415.012 133.655 415.165 132.979C415.463 131.64 414.257 130.465 412.927 130.79L410.971 131.268L409.372 131.64ZM419.962 128.918C418.316 129.415 418.173 131.661 419.751 132.37C420.161 132.542 420.574 132.569 421.001 132.447L423.116 131.837L424.55 131.404C426.17 130.914 426.304 128.649 424.753 127.965C424.349 127.785 423.894 127.76 423.472 127.892L422.072 128.312L419.962 128.918ZM430.418 125.663C428.738 126.24 428.767 128.625 430.478 129.162C430.855 129.272 431.233 129.272 431.607 129.142L432.052 128.993L434.272 128.223L435.115 127.919C436.725 127.334 436.715 125.029 435.093 124.457C434.69 124.314 434.253 124.318 433.85 124.465L433.045 124.756L430.861 125.514L430.418 125.663ZM440.678 121.892C438.994 122.578 439.217 125.028 441.004 125.398C441.364 125.466 441.71 125.441 442.053 125.301L443.102 124.887L445.294 123.991L445.495 123.906C446.236 123.584 446.674 122.841 446.602 122.039C446.469 120.797 445.197 120.034 444.047 120.525L441.728 121.476L440.678 121.892ZM450.732 117.606C450.226 117.842 449.874 118.274 449.729 118.812C449.353 120.324 450.865 121.581 452.288 120.938L453.99 120.154L455.637 119.374C456.352 119.031 456.755 118.286 456.669 117.503C456.507 116.241 455.194 115.515 454.046 116.057L452.437 116.822L450.732 117.606ZM460.572 112.803C460.001 113.099 459.624 113.684 459.589 114.327C459.509 115.751 461.006 116.719 462.276 116.061L462.572 115.906L464.702 114.782L465.557 114.315C467.091 113.473 466.674 111.148 464.945 110.886C464.543 110.826 464.144 110.896 463.782 111.094L462.961 111.539L460.874 112.648L460.572 112.803ZM470.136 107.514C469.481 107.909 469.127 108.668 469.267 109.421C469.501 110.679 470.918 111.334 472.019 110.675L473.121 110.027L475.192 108.78C476.507 107.99 476.306 105.99 474.858 105.481C474.335 105.286 473.752 105.355 473.278 105.64L471.243 106.867L470.136 107.514ZM479.421 101.749C478.834 102.153 478.536 102.817 478.627 103.526C478.828 104.873 480.34 105.555 481.475 104.8L483.447 103.489L484.545 102.74C485.999 101.741 485.335 99.4527 483.573 99.3888C483.176 99.3733 482.791 99.4856 482.46 99.7102L481.395 100.438L479.421 101.749ZM488.417 95.5072C486.967 96.5855 487.774 98.8913 489.586 98.8216C489.97 98.8003 490.291 98.688 490.601 98.4634L491.526 97.7859L493.586 96.2468C494.14 95.8151 494.395 95.1317 494.267 94.4405C493.992 93.095 492.43 92.5065 491.334 93.339L489.342 94.8316L488.417 95.5072ZM497.094 88.8282C496.556 89.2716 496.31 89.9549 496.451 90.6383C496.749 91.9877 498.331 92.5491 499.409 91.6857L501.394 90.0556L502.272 89.318C503.513 88.2494 502.873 86.236 501.246 86.0869C500.745 86.0482 500.282 86.1895 499.895 86.5148L499.047 87.2253L497.094 88.8282ZM505.413 81.7427C504.106 82.9216 505.058 85.0977 506.822 84.9331C507.219 84.8983 507.587 84.7298 507.883 84.4646L509.085 83.3844L510.62 81.9789C511.89 80.796 510.961 78.6684 509.228 78.7962C508.795 78.8368 508.442 78.9878 508.121 79.2821L506.617 80.6605L505.413 81.7427ZM513.396 74.2505C512.845 74.8004 512.69 75.6386 513.029 76.3433C513.563 77.4874 515.094 77.7546 515.983 76.8621L516.581 76.2775L518.426 74.4286L518.616 74.2331C519.857 72.9322 518.705 70.8201 516.943 71.1511C516.56 71.2305 516.246 71.3989 515.973 71.6796L515.811 71.8461L513.997 73.664L513.396 74.2505ZM521.024 66.3925C519.746 67.8019 521.148 69.976 522.962 69.3816C523.262 69.2771 523.508 69.1203 523.723 68.8861L523.874 68.7273L525.666 66.7701L526.228 66.1409C527.473 64.6967 526.017 62.5633 524.22 63.1963C523.918 63.3086 523.688 63.4693 523.471 63.7054L522.939 64.3037L521.177 66.2319L521.024 66.3925ZM528.264 58.2074C527.897 58.6526 527.763 59.2276 527.891 59.791C528.224 61.272 530.135 61.723 531.097 60.5518L532.68 58.6584L533.461 57.7079C533.991 57.0439 534.012 56.1069 533.49 55.4293C532.758 54.4865 531.358 54.4749 530.603 55.3925L529.85 56.3101L528.264 58.2074ZM535.151 49.6873C534.109 51.056 535.375 52.9958 537.052 52.5854C537.456 52.4905 537.828 52.2427 538.082 51.9097L539.474 50.0938L540.318 48.969C540.66 48.5102 540.765 47.9159 540.61 47.3661C540.184 45.9044 538.271 45.5559 537.363 46.7775L536.541 47.8713L535.151 49.6873ZM541.661 40.8806C541.266 41.4556 541.224 42.1932 541.555 42.8069C542.203 44.0033 543.911 44.1021 544.683 42.9773L546.017 41.0742L546.795 39.9475C547.665 38.6775 546.648 36.9391 545.115 37.0823C544.565 37.123 544.062 37.4308 543.754 37.8799L542.997 38.9776L541.661 40.8806ZM547.804 31.8107C547.448 32.376 547.425 33.0846 547.742 33.6712C548.41 34.9044 550.162 34.9644 550.909 33.7815L552.319 31.5939L552.901 30.6666C553.821 29.1798 552.334 27.3619 550.685 27.9756C550.303 28.1189 549.994 28.3841 549.775 28.7268L549.21 29.6231L547.804 31.8107ZM553.589 22.4833C552.756 23.8695 554.032 25.5983 555.606 25.2072C556.094 25.0872 556.494 24.7871 556.754 24.3593L556.864 24.1754L558.347 21.6431L558.63 21.1514C559.379 19.7904 558.27 18.1991 556.729 18.4314C556.177 18.5224 555.705 18.8515 555.426 19.3413L555.164 19.8021L553.699 22.3014L553.589 22.4833ZM558.264 14.6505L557.42 15.6901L556.835 16.3909L555.889 17.5138C555.588 17.8661 555.182 18.081 554.721 18.1429C553.062 18.3578 552.005 16.387 553.093 15.1229L553.436 14.7183L554.013 14.0349L554.58 13.3515L555.412 12.3274C556.44 11.0806 558.456 11.6517 558.665 13.2586C558.725 13.7522 558.581 14.2633 558.264 14.6505ZM550.929 23.0661C551.304 22.6653 551.475 22.1291 551.415 21.5851C551.215 20.0305 549.33 19.411 548.255 20.5397L547.911 20.9036L547.258 21.5928L546.594 22.2801L545.738 23.1571C544.586 24.3089 545.407 26.2933 547.047 26.2933C547.55 26.2836 547.992 26.1055 548.346 25.7493L549.237 24.8413L549.914 24.1347L550.588 23.43L550.929 23.0661ZM543.005 30.9241C543.591 30.3743 543.764 29.536 543.431 28.8023C542.906 27.662 541.444 27.3755 540.513 28.2157L539.501 29.143L538.744 29.8264L537.82 30.6453C536.556 31.7352 537.317 33.8377 538.99 33.8686C539.45 33.8783 539.886 33.7176 540.234 33.4156L541.195 32.5658L541.969 31.8688L543.005 30.9241ZM534.541 38.2032C535.821 37.2004 535.232 35.1193 533.612 34.9353C533.116 34.8811 532.647 35.0128 532.258 35.3206L531.521 35.9072L530.677 36.5751L529.819 37.2391L529.393 37.5644C528.851 37.9787 528.58 38.6562 528.692 39.3299C528.919 40.6928 530.52 41.3279 531.618 40.4915L532.063 40.1527L532.938 39.4693L533.807 38.7859L534.541 38.2032ZM525.606 44.8803C527.049 43.8891 526.414 41.626 524.66 41.5292C524.261 41.506 523.856 41.6221 523.523 41.8505L522.612 42.4817L521.667 43.1263L520.515 43.8968C520.118 44.1582 519.849 44.5473 519.739 45.0081C519.363 46.6343 521.146 47.8772 522.534 46.9692L523.727 46.1716L524.693 45.5134L525.606 44.8803ZM516.258 50.9476C517.779 50.0377 517.251 47.7029 515.479 47.5403C515.094 47.5035 514.705 47.5945 514.37 47.7939L513.751 48.1675L512.717 48.7812L511.671 49.393L511.236 49.6427C509.635 50.5701 510.237 53.0074 512.099 53.0771C512.442 53.081 512.763 53.0055 513.058 52.8351L513.515 52.5718L514.583 51.9485L515.638 51.3193L516.258 50.9476ZM506.545 56.4127C507.254 56.0469 507.643 55.2686 507.517 54.4807C507.312 53.2513 505.964 52.5718 504.855 53.1468L504.057 53.565L502.927 54.1438L501.618 54.802C500.427 55.3964 500.228 56.9896 501.239 57.8569C501.808 58.3332 502.569 58.4242 503.239 58.1028L504.592 57.4214L505.746 56.8309L506.545 56.4127ZM496.532 61.2816C497.16 60.999 497.58 60.395 497.617 59.7077C497.69 58.3332 496.281 57.3594 495.026 57.9267L493.493 58.6081L492.262 59.1444L491.696 59.3883C490.965 59.7 490.51 60.4473 490.583 61.2429C490.694 62.4839 491.983 63.2641 493.129 62.7743L493.723 62.5187L494.976 61.9747L496.532 61.2816ZM486.266 65.5717C486.884 65.3316 487.327 64.7838 487.424 64.1256C487.631 62.7414 486.254 61.632 484.946 62.1412L483.345 62.751L482.026 63.2428L481.539 63.4209C480.905 63.6513 480.445 64.2088 480.344 64.8748C480.143 66.2512 481.48 67.3547 482.791 66.8804L483.3 66.6945L484.642 66.1931L486.266 65.5717ZM475.781 69.3081C476.975 68.917 477.44 67.4844 476.697 66.468C476.232 65.8311 475.4 65.562 474.648 65.8079L473.855 66.0673L472.451 66.5165L471.168 66.9172C469.605 67.3896 469.408 69.5462 470.862 70.3032C471.295 70.5297 471.787 70.5703 472.254 70.429L473.56 70.0205L474.987 69.5636L475.781 69.3081ZM465.135 72.5101C466.738 72.0804 466.982 69.8753 465.505 69.1106C465.085 68.8899 464.622 68.8415 464.167 68.9635L462.291 69.4726L460.648 69.9005C459.002 70.3109 458.756 72.5682 460.27 73.3252C460.657 73.5265 461.124 73.573 461.548 73.4665L463.236 73.0232L465.135 72.5101ZM454.356 75.2088C455.049 75.0501 455.587 74.5158 455.746 73.8189C456.042 72.5063 454.857 71.3215 453.547 71.6215L453.098 71.7222L451.522 72.0726L449.977 72.4037C449.22 72.5624 448.649 73.178 448.538 73.9427C448.374 75.2127 449.481 76.2659 450.738 76.0026L452.306 75.6638L453.903 75.3095L454.356 75.2088ZM443.466 77.4332C445.125 77.1429 445.542 74.932 444.099 74.055C443.714 73.8188 443.267 73.7356 442.818 73.8149L441.801 74.0008L440.134 74.2932L439.221 74.448C437.608 74.7307 437.128 76.7711 438.446 77.7507C438.859 78.0411 439.323 78.1534 439.825 78.076L440.758 77.9153L442.446 77.621L443.466 77.4332ZM432.511 79.2124C434.21 78.9762 434.681 76.7169 433.213 75.8225C432.838 75.598 432.433 75.5089 431.998 75.5709L429.86 75.869L428.377 76.0645C426.561 76.3123 426.167 78.7381 427.826 79.5512C428.153 79.7022 428.49 79.7544 428.844 79.7119L430.35 79.5125L432.511 79.2124ZM421.499 80.5734C423.226 80.3953 423.762 78.1186 422.283 77.1912C421.935 76.9686 421.526 76.8738 421.114 76.9164L419.108 77.1196L417.478 77.2764C415.579 77.4739 415.178 80.0313 416.922 80.7979C417.217 80.9218 417.503 80.9644 417.819 80.9393L419.47 80.7785L421.499 80.5734ZM410.447 81.5452C411.082 81.5007 411.657 81.127 411.949 80.5617C412.613 79.2879 411.622 77.7759 410.191 77.8766L407.864 78.0315L406.542 78.1147C404.784 78.2347 404.166 80.4727 405.626 81.4774C405.977 81.704 406.339 81.8065 406.757 81.7853L408.094 81.704L410.447 81.5452ZM399.369 82.1492C401.073 82.0892 401.785 79.9229 400.44 78.8639C400.099 78.5948 399.673 78.4574 399.239 78.4729L398.107 78.5174L395.582 78.5967C393.679 78.6626 393.097 81.189 394.802 82.0776C395.087 82.215 395.358 82.2789 395.675 82.2751L396.227 82.2596L398.239 82.1918L399.369 82.1492ZM388.292 82.4125C389.93 82.3835 390.725 80.4262 389.571 79.2743C389.209 78.9201 388.764 78.7361 388.259 78.7361L385.932 78.7497L384.604 78.7536C383.8 78.7536 383.092 79.2647 382.85 80.0294C382.472 81.2122 383.355 82.4299 384.594 82.4299L385.945 82.428L388.292 82.4125ZM377.203 82.3602C379.009 82.3912 379.777 80.0894 378.316 79.0265C378.002 78.8058 377.671 78.6955 377.288 78.6819L375.391 78.6432L373.623 78.5987C371.873 78.5677 371.06 80.7089 372.401 81.8569C372.727 82.1202 373.098 82.2576 373.518 82.2731L375.305 82.3196L377.203 82.3602ZM366.144 82.0272C366.555 82.0427 366.915 81.9363 367.254 81.7097C368.71 80.6876 368.059 78.4458 366.294 78.3528L364.689 78.2909L362.627 78.2018C361.008 78.1457 360.102 80.01 361.159 81.2451C361.485 81.6285 361.963 81.8511 362.46 81.8762L364.536 81.9653L366.144 82.0272ZM355.09 81.4949C356.846 81.5859 357.721 79.4253 356.401 78.2676C356.087 77.9985 355.725 77.8553 355.309 77.8243L354.32 77.7682L351.652 77.6036C350.967 77.5571 350.314 77.9017 349.956 78.4845C349.251 79.6712 350.03 81.1793 351.408 81.2703L354.103 81.4387L355.09 81.4949ZM344.051 80.7573C345.821 80.8792 346.729 78.7032 345.395 77.532C345.087 77.2668 344.737 77.1254 344.334 77.0906L342.319 76.9299L340.683 76.7963C338.962 76.6492 338.005 78.771 339.26 79.9597C339.577 80.2539 339.943 80.4224 340.375 80.4611L342.024 80.5966L344.051 80.7573ZM333.022 79.7951C334.174 79.9132 335.156 78.9259 335.034 77.774C334.941 76.9009 334.257 76.2233 333.386 76.1342L332.685 76.0665L330.796 75.8748L329.739 75.7625C327.942 75.5767 326.978 77.8185 328.361 78.9975C328.643 79.2337 328.98 79.3808 329.348 79.4195L330.42 79.5357L332.32 79.7254L333.022 79.7951ZM322.013 78.5929C322.777 78.6858 323.525 78.2947 323.873 77.6075C324.452 76.473 323.726 75.0985 322.46 74.9436L321.55 74.8333L319.738 74.6087L318.826 74.4906C318.249 74.4209 317.695 74.6068 317.285 75.0172C316.218 76.111 316.836 77.9288 318.35 78.1379L319.277 78.256L321.101 78.4825L322.013 78.5929ZM311.036 77.139C312.856 77.3907 313.893 75.1488 312.49 73.9156C312.217 73.6872 311.919 73.5556 311.568 73.5014L309.133 73.1413L307.944 72.9593C307.313 72.8625 306.664 73.1025 306.254 73.5943C305.338 74.6978 305.964 76.3704 307.381 76.595L308.585 76.7789L311.036 77.139ZM300.094 75.4102C300.853 75.5418 301.627 75.1759 302.007 74.5042C302.63 73.3929 301.97 72.0068 300.717 71.7861L298.977 71.4841L297.116 71.153C295.469 70.8626 294.321 72.6979 295.314 74.0647C295.604 74.4403 295.984 74.6784 296.448 74.7694L298.338 75.1062L300.094 75.4102ZM289.194 73.3813C290.991 73.7278 292.143 71.5635 290.848 70.2664C290.577 70.0108 290.292 69.854 289.926 69.7785L289.254 69.6449L287.677 69.3216L286.341 69.0409C285.597 68.8861 284.837 69.1997 284.42 69.8366C283.716 70.9149 284.318 72.3746 285.58 72.6379L286.931 72.9225L288.527 73.2497L289.194 73.3813ZM278.357 71.0369C280.105 71.4357 281.336 69.3778 280.15 68.0207C279.888 67.738 279.577 67.5406 279.199 67.4554L278.448 67.2811L276.95 66.9249L275.637 66.6074C274.975 66.4448 274.297 66.6597 273.837 67.1572C272.902 68.193 273.413 69.8405 274.764 70.1793L276.092 70.4987L277.606 70.8588L278.357 71.0369ZM267.599 68.3479C268.704 68.6441 269.806 67.8697 269.907 66.7294C269.984 65.8447 269.407 65.0258 268.553 64.7973L266.78 64.3172L265.03 63.8313C264.302 63.6222 263.543 63.8816 263.075 64.474C262.283 65.5078 262.773 67.0082 264.027 67.3683L265.808 67.86L267.599 68.3479ZM256.928 65.2852C257.608 65.4904 258.322 65.3046 258.812 64.7896C259.745 63.81 259.311 62.1664 258.018 61.7714L257.156 61.5081L255.825 61.0919L254.527 60.6776C253.025 60.1878 251.635 61.7308 252.286 63.1789C252.495 63.6571 252.905 64.0152 253.401 64.1778L254.717 64.5979L256.066 65.02L256.928 65.2852ZM246.381 61.8198C247.924 62.3542 249.341 60.7938 248.658 59.3031C248.433 58.8482 248.088 58.5268 247.606 58.3526L246.801 58.0699L245.552 57.6246L244.172 57.1232C242.635 56.5657 241.197 58.1028 241.855 59.6032C242.068 60.0581 242.418 60.3969 242.892 60.5692L244.306 61.0842L245.572 61.5372L246.381 61.8198ZM235.979 57.9247C237.658 58.5771 239.175 56.7206 238.196 55.2028C237.987 54.8853 237.7 54.6549 237.346 54.5097L235.938 53.9425L234.783 53.4682L233.972 53.1313C232.204 52.4131 230.649 54.4884 231.827 55.9791C232.026 56.223 232.262 56.4011 232.551 56.525L233.379 56.8696L234.554 57.3517L235.979 57.9247ZM225.753 53.5611C226.47 53.8825 227.308 53.7257 227.85 53.1565C228.717 52.2408 228.435 50.7365 227.285 50.2158L225.883 49.5711L224.813 49.0716L223.978 48.6767C223.432 48.4212 222.817 48.4386 222.29 48.729C220.989 49.4627 221.047 51.3502 222.395 51.9949L223.246 52.3995L224.334 52.9067L225.753 53.5611ZM215.741 48.6941C217.353 49.5305 219.076 47.7881 218.203 46.1735C218.017 45.8502 217.781 45.6102 217.45 45.4379L216.587 44.9887L215.601 44.4679L214.227 43.7304C212.726 42.9056 211 44.4292 211.64 46.0303C211.801 46.4291 212.09 46.7504 212.465 46.9576L213.875 47.7165L214.877 48.245L215.741 48.6941ZM206.005 43.3006C207.486 44.1892 209.275 42.7043 208.673 41.0839C208.525 40.6851 208.254 40.3618 207.892 40.1431L207.122 39.6881L206.224 39.148L205.333 38.6059L204.772 38.2594C204.183 37.8954 203.467 37.8935 202.871 38.2342C201.674 38.9466 201.659 40.6406 202.832 41.3821L203.411 41.7402L204.319 42.2958L205.238 42.8456L206.005 43.3006ZM196.592 37.3533C197.107 37.6941 197.711 37.7599 198.288 37.5431C199.67 36.9894 199.878 35.1502 198.652 34.3062L197.69 33.6518L196.883 33.0962L195.663 32.2386C195.076 31.8243 194.304 31.7856 193.679 32.1456C192.515 32.8252 192.445 34.4514 193.533 35.2374L194.786 36.1163L195.611 36.6854L196.592 37.3533ZM187.555 30.8176C188.128 31.2667 188.918 31.3345 189.561 30.986C190.724 30.3549 190.86 28.7345 189.818 27.9195L189.232 27.4645L188.51 26.8954L187.793 26.3262L186.969 25.6602C185.652 24.578 183.681 25.7454 183.995 27.42C184.076 27.8498 184.301 28.2292 184.638 28.508L185.495 29.1991L186.227 29.7819L186.967 30.3607L187.555 30.8176ZM178.971 23.6914C180.179 24.7852 182.125 23.8482 182.036 22.222C182.009 21.7303 181.794 21.285 181.428 20.9539L180.396 20.0266L179.765 19.4516L178.741 18.505C177.455 17.3066 175.384 18.4217 175.672 20.1583C175.748 20.5687 175.922 20.8978 176.226 21.1882L177.281 22.1639L177.926 22.7544L178.971 23.6914ZM170.91 15.9728C171.406 16.48 172.112 16.6561 172.79 16.449C174.093 16.0231 174.499 14.4104 173.555 13.4192L172.714 12.5461L172.168 11.9731C171.799 11.5762 171.425 11.1871 171.059 10.7864C169.952 9.56671 167.896 10.3372 167.865 11.9905C167.855 12.4687 168.025 12.9159 168.347 13.2702L168.943 13.9129L169.499 14.5014L170.056 15.09L170.91 15.9728ZM163.433 7.68303C164.438 8.90267 166.461 8.33157 166.666 6.75958C166.742 6.24849 166.585 5.72579 166.256 5.32892C165.478 4.4016 164.715 3.46266 163.96 2.51405C162.957 1.23439 160.876 1.82099 160.692 3.44331C160.636 3.93698 160.77 4.40547 161.077 4.79653C161.852 5.77031 162.636 6.73248 163.433 7.68303Z" fill="#31BFD7"/>
<path fill-rule="evenodd" clip-rule="evenodd" d="M360.534 130.225C365.972 128.521 371.76 131.551 373.464 136.987C375.168 142.425 372.138 148.215 366.7 149.917C361.262 151.623 355.473 148.593 353.771 143.155C352.068 137.717 355.096 131.928 360.534 130.225Z" fill="#31BFD7"/>
<path fill-rule="evenodd" clip-rule="evenodd" d="M335.072 132.676C337.85 131.806 340.806 133.353 341.677 136.129C342.546 138.907 341 141.864 338.223 142.733C335.447 143.602 332.491 142.055 331.62 139.279C330.751 136.503 332.297 133.545 335.072 132.676Z" fill="#31BFD7"/>
<path fill-rule="evenodd" clip-rule="evenodd" d="M389.176 132.068C391.952 131.196 394.906 132.745 395.777 135.519C396.645 138.296 395.1 141.254 392.326 142.125C389.546 142.994 386.589 141.447 385.722 138.671C384.851 135.891 386.4 132.939 389.176 132.068Z" fill="#31BFD7"/>
<path fill-rule="evenodd" clip-rule="evenodd" d="M-41.5051 -4.50409C-41.8246 -5.16618 -42.4867 -5.55725 -43.2165 -5.54563C-44.5543 -5.49723 -45.3886 -4.11884 -44.8175 -2.9108L-44.169 -1.53629L-43.2146 0.419025C-42.8583 1.12952 -42.1111 1.52833 -41.3231 1.42766C-40.0803 1.26698 -39.3582 -0.0901375 -39.9176 -1.20911L-40.8527 -3.1315L-41.5051 -4.50409ZM-36.5917 5.26663C-37.4377 3.72562 -39.7608 4.13798 -40.0241 5.88033C-40.0764 6.28688 -40.0183 6.66633 -39.817 7.03028L-38.8103 8.89072L-38.0456 10.2749C-37.5306 11.1829 -36.3884 11.4868 -35.4921 10.9506C-34.6383 10.4259 -34.3557 9.35342 -34.8397 8.47644L-35.5869 7.12707L-36.5917 5.26663ZM-31.1865 14.7934C-32.0693 13.3241 -34.3266 13.7674 -34.5822 15.4729C-34.6383 15.9105 -34.5667 16.3093 -34.3402 16.6907L-34.1601 16.9907L-32.9463 18.9828L-32.4004 19.8598C-31.9764 20.5296 -31.1981 20.8394 -30.4257 20.671C-29.2002 20.3767 -28.6098 18.9693 -29.2893 17.8987L-29.8159 17.0546L-31.0084 15.0954L-31.1865 14.7934ZM-25.3342 24.0318C-26.308 22.6127 -28.4975 23.1606 -28.6872 24.872C-28.7279 25.3114 -28.6291 25.7199 -28.3833 26.0858L-27.9012 26.8079L-26.5945 28.7303L-26.2963 29.1581C-25.4484 30.3294 -23.6576 30.1513 -23.0943 28.8077C-22.8542 28.2037 -22.92 27.5765 -23.2879 27.0422L-23.5647 26.6453L-24.8521 24.7519L-25.3342 24.0318ZM-19.0404 32.9778C-20.1749 31.4871 -22.5464 32.428 -22.3354 34.3058C-22.2928 34.6311 -22.1786 34.9195 -21.983 35.1828L-21.1738 36.2747L-19.7528 38.1525C-19.2863 38.7469 -18.4964 39.0044 -17.7704 38.7817C-16.5372 38.4081 -16.061 36.9058 -16.8528 35.8894L-18.2312 34.0697L-19.0404 32.9778ZM-21.983 35.1828L-16.8528 35.8894L-19.7528 38.1525L-21.983 35.1828ZM-12.3265 41.616C-12.795 41.0468 -13.5714 40.8164 -14.2722 41.0294C-15.5325 41.4166 -15.9971 42.944 -15.1588 43.9643L-13.9992 45.3775L-12.7989 46.8101C-11.7864 47.9833 -9.90661 47.4935 -9.59105 45.9699C-9.48651 45.4085 -9.62976 44.8742 -9.98984 44.4347L-11.165 43.0292L-12.3265 41.616ZM-5.21582 49.9328C-5.70755 49.3888 -6.48579 49.1952 -7.17886 49.4372C-8.42754 49.8766 -8.8186 51.4332 -7.93 52.4127L-6.39675 54.1086L-5.44038 55.1463C-4.14911 56.4995 -1.91695 55.3302 -2.30026 53.4949C-2.37383 53.1697 -2.52291 52.8832 -2.74942 52.6392L-3.68059 51.6306L-5.21582 49.9328ZM2.28987 57.9224C1.07603 56.7067 -0.978008 57.6456 -0.852173 59.3647C-0.81152 59.8081 -0.639225 60.1875 -0.327538 60.505L-0.0197296 60.8205L1.6142 62.4603L2.29761 63.1321C2.8571 63.6761 3.68568 63.8077 4.38649 63.4709C5.5287 62.9114 5.7765 61.3897 4.8666 60.5011L4.20839 59.8545L2.5996 58.24L2.28987 57.9224ZM10.1343 65.5501C8.76558 64.3072 6.63605 65.612 7.11423 67.3892C7.21103 67.728 7.38334 68.0126 7.64276 68.2507L8.29128 68.8567L9.99685 70.417L10.3782 70.7578C10.959 71.2747 11.7857 71.3657 12.471 71.0036C13.5996 70.3919 13.7681 68.8722 12.8195 68.0107L12.4671 67.6932L10.7848 66.1541L10.1343 65.5501ZM18.3195 72.8176C16.9876 71.7258 15.0381 72.8544 15.3265 74.5503C15.4098 74.9917 15.6131 75.3402 15.9538 75.6344L16.9721 76.4979L18.7957 78.0176C20.0541 79.0262 21.8758 78.0776 21.7868 76.4514C21.7384 75.9287 21.5177 75.4931 21.1092 75.1601L19.3378 73.683L18.3195 72.8176ZM26.8144 79.7232C25.376 78.6293 23.382 80.0542 23.9531 81.7694C24.0692 82.1198 24.29 82.416 24.5803 82.6425L25.9917 83.7344L27.5133 84.8882C27.9818 85.2348 28.5529 85.3393 29.1143 85.1864C30.5837 84.7643 30.9361 82.871 29.7222 81.9476L28.2257 80.817L26.8144 79.7232ZM35.6056 86.2473C34.2582 85.3219 32.4751 86.4583 32.7423 88.0709C32.8352 88.5588 33.0927 88.9808 33.5031 89.2635L35.3345 90.5509L36.5348 91.3775C37.0827 91.755 37.799 91.8015 38.3933 91.5053C39.6439 90.8665 39.7698 89.1376 38.6082 88.342L37.437 87.5327L35.6056 86.2473ZM44.6851 92.3939C44.0656 92.0029 43.2951 92.0009 42.6795 92.4017C41.5663 93.1431 41.576 94.7538 42.6931 95.4875L43.0222 95.7005L44.9717 96.9453L45.8235 97.4758C47.3413 98.3857 49.1243 96.9066 48.5067 95.2494C48.3615 94.87 48.1002 94.5641 47.7595 94.3492L46.9386 93.8343L45.0143 92.6069L44.6851 92.3939ZM54.0087 98.1359C53.3563 97.7584 52.5373 97.8126 51.9449 98.2792C50.9305 99.0826 51.037 100.664 52.156 101.311L52.8897 101.743L54.8953 102.9L55.3697 103.169C55.9775 103.502 56.6493 103.477 57.2417 103.125C58.4284 102.376 58.38 100.651 57.1662 99.9596L56.7209 99.7098L54.7443 98.5696L54.0087 98.1359ZM63.5645 103.479C62.9585 103.164 62.2461 103.202 61.675 103.586C60.5309 104.375 60.6257 106.083 61.8551 106.733L63.0128 107.347L65.1423 108.451C66.7472 109.258 68.4373 107.51 67.5816 105.928C67.3996 105.599 67.1325 105.336 66.7937 105.167L64.7203 104.091L63.5645 103.479ZM73.3391 108.412C71.771 107.67 70.1332 109.341 70.9172 110.905C71.1011 111.273 71.4031 111.566 71.7768 111.742L73.3778 112.501L75.1202 113.312C75.7861 113.616 76.5547 113.502 77.1026 113.023C78.0996 112.148 77.8634 110.518 76.6554 109.97L74.9421 109.175L73.3391 108.412ZM83.315 112.928C81.6114 112.233 80.0588 114.166 81.1022 115.681C81.3171 115.978 81.5611 116.179 81.8999 116.322L83.9558 117.19L85.3071 117.749C86.8965 118.398 88.4356 116.682 87.6167 115.172C87.4154 114.799 87.0863 114.502 86.6913 114.344L85.371 113.8L83.315 112.928ZM93.4884 117.023C91.8332 116.419 90.3638 118.212 91.2776 119.716C91.5002 120.068 91.8022 120.312 92.1913 120.465L92.5573 120.603L94.7274 121.41L95.6702 121.751C96.2297 121.946 96.8202 121.875 97.3158 121.545C98.5664 120.696 98.3244 118.804 96.9054 118.287L95.9935 117.958L93.8543 117.162L93.4884 117.023ZM103.809 120.678C103.122 120.452 102.359 120.653 101.873 121.193C100.982 122.18 101.406 123.76 102.667 124.174L103.474 124.44L105.677 125.148L106.2 125.311C107.9 125.828 109.27 123.874 108.211 122.451C107.969 122.136 107.66 121.913 107.28 121.797L106.788 121.642L104.616 120.945L103.809 120.678ZM114.277 123.892C112.747 123.481 111.452 125.022 112.126 126.459C112.352 126.939 112.782 127.287 113.291 127.435L114.542 127.787L116.865 128.424C118.712 128.885 119.961 126.608 118.58 125.299C118.35 125.086 118.09 124.945 117.786 124.866L115.529 124.248L114.277 123.892ZM124.87 126.654C123.438 126.329 122.224 127.719 122.737 129.094C122.969 129.674 123.43 130.098 124.043 130.238L125.747 130.64L127.644 131.068C128.442 131.237 129.226 130.892 129.636 130.186C130.246 129.101 129.652 127.756 128.438 127.479L126.574 127.059L124.87 126.654ZM135.574 128.962C133.743 128.639 132.631 130.896 134.035 132.158C134.304 132.381 134.565 132.513 134.908 132.578L137.063 132.985L138.542 133.248C140.243 133.548 141.382 131.525 140.24 130.224C139.961 129.909 139.587 129.7 139.173 129.628L137.727 129.37L135.574 128.962ZM146.38 130.801C144.561 130.551 143.523 132.791 144.927 134.025C145.201 134.253 145.496 134.387 145.85 134.441L146.181 134.489L148.469 134.812L149.524 134.954C150.26 135.041 150.963 134.702 151.342 134.065C152.012 132.917 151.304 131.488 149.991 131.306L148.969 131.171L146.715 130.851L146.38 130.801ZM157.243 132.16C155.561 131.986 154.558 134.021 155.725 135.254C156.023 135.575 156.443 135.775 156.879 135.819L157.644 135.899L159.944 136.117L160.573 136.171C162.205 136.311 163.19 134.361 162.106 133.13C161.787 132.764 161.353 132.545 160.867 132.505L160.271 132.454L158.008 132.238L157.243 132.16ZM168.15 133.033C166.462 132.944 165.56 135.006 166.774 136.185C167.103 136.501 167.504 136.681 167.959 136.704L169.157 136.774L171.668 136.892C173.371 136.95 174.231 134.832 172.961 133.69C172.628 133.395 172.239 133.231 171.792 133.215L169.352 133.101L168.15 133.033ZM179.088 133.415C178.351 133.415 177.691 133.841 177.394 134.52C176.874 135.724 177.751 137.093 179.071 137.093L180.699 137.11H182.765C184.431 137.11 185.233 135.027 183.986 133.904C183.642 133.595 183.21 133.432 182.747 133.432H180.718L179.088 133.415ZM190.028 133.293C188.232 133.386 187.616 135.711 189.12 136.679C189.449 136.888 189.798 136.981 190.189 136.965L192.249 136.888L193.879 136.806C195.567 136.721 196.249 134.57 194.919 133.527C194.576 133.25 194.125 133.115 193.683 133.136L192.09 133.213L190.028 133.293ZM200.972 132.66C199.174 132.813 198.651 135.192 200.213 136.088C200.542 136.27 200.895 136.355 201.27 136.322L201.483 136.307L203.787 136.104L204.968 135.988C206.716 135.808 207.243 133.504 205.727 132.582C205.388 132.379 204.985 132.29 204.594 132.333L203.448 132.445L201.179 132.644L200.972 132.66ZM211.846 131.508C210.03 131.758 209.647 134.214 211.331 135.006C211.663 135.151 211.974 135.196 212.332 135.153L212.994 135.07L215.289 134.752L216.014 134.644C217.707 134.383 218.154 132.145 216.686 131.254C216.309 131.032 215.893 130.941 215.455 131.01L214.77 131.111L212.512 131.425L211.846 131.508ZM222.657 129.835C221.209 130.114 220.657 131.852 221.673 132.923C222.119 133.37 222.703 133.56 223.328 133.45L224.449 133.248L226.732 132.813L226.98 132.764C227.665 132.619 228.209 132.11 228.387 131.43C228.741 130.12 227.562 128.883 226.236 129.163L223.783 129.632L222.657 129.835ZM233.372 127.64C232.156 127.936 231.581 129.303 232.222 130.377C232.64 131.07 233.436 131.394 234.222 131.215L235.827 130.842L237.815 130.358C238.493 130.186 239.012 129.655 239.165 128.979C239.463 127.64 238.257 126.465 236.927 126.79L234.971 127.268L233.372 127.64ZM243.962 124.918C242.316 125.415 242.173 127.661 243.751 128.37C244.161 128.542 244.574 128.569 245.001 128.447L247.116 127.837L248.55 127.404C250.17 126.914 250.304 124.649 248.753 123.965C248.349 123.785 247.894 123.76 247.472 123.892L246.072 124.312L243.962 124.918ZM254.418 121.663C252.738 122.24 252.767 124.625 254.478 125.162C254.855 125.272 255.233 125.272 255.607 125.142L256.052 124.993L258.272 124.223L259.115 123.919C260.725 123.334 260.715 121.029 259.093 120.457C258.69 120.314 258.253 120.318 257.85 120.465L257.045 120.756L254.861 121.514L254.418 121.663ZM264.678 117.892C262.994 118.578 263.217 121.028 265.004 121.398C265.364 121.466 265.71 121.441 266.053 121.301L267.102 120.887L269.294 119.991L269.495 119.906C270.236 119.584 270.674 118.841 270.602 118.039C270.469 116.797 269.197 116.034 268.047 116.525L265.728 117.476L264.678 117.892ZM274.732 113.606C274.226 113.842 273.874 114.274 273.729 114.812C273.353 116.324 274.865 117.581 276.288 116.938L277.99 116.154L279.637 115.374C280.352 115.031 280.755 114.286 280.669 113.503C280.507 112.241 279.194 111.515 278.046 112.057L276.437 112.822L274.732 113.606ZM284.572 108.803C284.001 109.099 283.624 109.684 283.589 110.327C283.509 111.751 285.006 112.719 286.276 112.061L286.572 111.906L288.702 110.782L289.557 110.315C291.091 109.473 290.674 107.148 288.945 106.886C288.543 106.826 288.144 106.896 287.782 107.094L286.961 107.539L284.874 108.648L284.572 108.803ZM294.136 103.514C293.481 103.909 293.127 104.668 293.267 105.421C293.501 106.679 294.918 107.334 296.019 106.675L297.121 106.027L299.192 104.78C300.507 103.99 300.306 101.99 298.858 101.481C298.335 101.286 297.752 101.355 297.278 101.64L295.243 102.867L294.136 103.514ZM303.421 97.7487C302.834 98.1534 302.536 98.8174 302.627 99.5259C302.828 100.873 304.34 101.555 305.475 100.8L307.447 99.4892L308.545 98.7399C309.999 97.741 309.335 95.4527 307.573 95.3888C307.176 95.3733 306.791 95.4856 306.46 95.7102L305.395 96.4381L303.421 97.7487ZM312.417 91.5072C310.967 92.5855 311.774 94.8913 313.586 94.8216C313.97 94.8003 314.291 94.688 314.601 94.4634L315.526 93.7859L317.586 92.2468C318.14 91.8151 318.395 91.1317 318.267 90.4405C317.992 89.095 316.43 88.5065 315.334 89.339L313.342 90.8316L312.417 91.5072ZM321.094 84.8282C320.556 85.2716 320.31 85.9549 320.451 86.6383C320.749 87.9877 322.331 88.5491 323.409 87.6857L325.394 86.0556L326.272 85.318C327.513 84.2494 326.873 82.236 325.246 82.0869C324.745 82.0482 324.282 82.1895 323.895 82.5148L323.047 83.2253L321.094 84.8282ZM329.413 77.7427C328.106 78.9216 329.058 81.0977 330.822 80.9331C331.219 80.8983 331.587 80.7298 331.883 80.4646L333.085 79.3844L334.62 77.9789C335.89 76.796 334.961 74.6684 333.228 74.7962C332.795 74.8368 332.442 74.9878 332.121 75.2821L330.617 76.6605L329.413 77.7427ZM337.396 70.2505C336.845 70.8004 336.69 71.6386 337.029 72.3433C337.563 73.4874 339.094 73.7546 339.983 72.8621L340.581 72.2775L342.426 70.4286L342.616 70.2331C343.857 68.9322 342.705 66.8201 340.943 67.1511C340.56 67.2305 340.246 67.3989 339.973 67.6796L339.811 67.8461L337.997 69.664L337.396 70.2505ZM345.024 62.3925C343.746 63.8019 345.148 65.976 346.962 65.3816C347.262 65.2771 347.508 65.1203 347.723 64.8861L347.874 64.7273L349.666 62.7701L350.228 62.1409C351.473 60.6967 350.017 58.5633 348.22 59.1963C347.918 59.3086 347.688 59.4693 347.471 59.7054L346.939 60.3037L345.177 62.2319L345.024 62.3925ZM352.264 54.2074C351.897 54.6526 351.763 55.2276 351.891 55.791C352.224 57.272 354.135 57.723 355.097 56.5518L356.68 54.6584L357.461 53.7079C357.991 53.0439 358.012 52.1069 357.49 51.4293C356.758 50.4865 355.358 50.4749 354.603 51.3925L353.85 52.3101L352.264 54.2074ZM359.151 45.6873C358.109 47.056 359.375 48.9958 361.052 48.5854C361.456 48.4905 361.828 48.2427 362.082 47.9097L363.474 46.0938L364.318 44.969C364.66 44.5102 364.765 43.9159 364.61 43.3661C364.184 41.9044 362.271 41.5559 361.363 42.7775L360.541 43.8713L359.151 45.6873ZM365.661 36.8806C365.266 37.4556 365.224 38.1932 365.555 38.8069C366.203 40.0033 367.911 40.1021 368.683 38.9773L370.017 37.0742L370.795 35.9475C371.665 34.6775 370.648 32.9391 369.115 33.0823C368.565 33.123 368.062 33.4308 367.754 33.8799L366.997 34.9776L365.661 36.8806ZM371.804 27.8107C371.448 28.376 371.425 29.0846 371.742 29.6712C372.41 30.9044 374.162 30.9644 374.909 29.7815L376.319 27.5939L376.901 26.6666C377.821 25.1798 376.334 23.3619 374.685 23.9756C374.303 24.1189 373.994 24.3841 373.775 24.7268L373.21 25.6231L371.804 27.8107ZM377.589 18.4833C376.756 19.8695 378.032 21.5983 379.606 21.2072C380.094 21.0872 380.494 20.7871 380.754 20.3593L380.864 20.1754L382.347 17.6431L382.63 17.1514C383.379 15.7904 382.27 14.1991 380.729 14.4314C380.177 14.5224 379.705 14.8515 379.426 15.3413L379.164 15.8021L377.699 18.3014L377.589 18.4833ZM382.264 10.6505L381.42 11.6901L380.835 12.3909L379.889 13.5138C379.588 13.8661 379.182 14.081 378.721 14.1429C377.062 14.3578 376.005 12.387 377.093 11.1229L377.436 10.7183L378.013 10.0349L378.58 9.35148L379.412 8.32737C380.44 7.08062 382.456 7.65173 382.665 9.25856C382.725 9.75223 382.581 10.2633 382.264 10.6505ZM374.929 19.0661C375.304 18.6653 375.475 18.1291 375.415 17.5851C375.215 16.0305 373.33 15.411 372.255 16.5397L371.911 16.9036L371.258 17.5928L370.594 18.2801L369.738 19.1571C368.586 20.3089 369.407 22.2933 371.047 22.2933C371.55 22.2836 371.992 22.1055 372.346 21.7493L373.237 20.8413L373.914 20.1347L374.588 19.43L374.929 19.0661ZM367.005 26.9241C367.591 26.3743 367.764 25.536 367.431 24.8023C366.906 23.662 365.444 23.3755 364.513 24.2157L363.501 25.143L362.744 25.8264L361.82 26.6453C360.556 27.7352 361.317 29.8377 362.99 29.8686C363.45 29.8783 363.886 29.7176 364.234 29.4156L365.195 28.5658L365.969 27.8688L367.005 26.9241ZM358.541 34.2032C359.821 33.2004 359.232 31.1193 357.612 30.9353C357.116 30.8811 356.647 31.0128 356.258 31.3206L355.521 31.9072L354.677 32.5751L353.819 33.2391L353.393 33.5644C352.851 33.9787 352.58 34.6562 352.692 35.3299C352.919 36.6928 354.52 37.3279 355.618 36.4915L356.063 36.1527L356.938 35.4693L357.807 34.7859L358.541 34.2032ZM349.606 40.8803C351.049 39.8891 350.414 37.626 348.66 37.5292C348.261 37.506 347.856 37.6221 347.523 37.8505L346.612 38.4817L345.667 39.1263L344.515 39.8968C344.118 40.1582 343.849 40.5473 343.739 41.0081C343.363 42.6343 345.146 43.8772 346.534 42.9692L347.727 42.1716L348.693 41.5134L349.606 40.8803ZM340.258 46.9476C341.779 46.0377 341.251 43.7029 339.479 43.5403C339.094 43.5035 338.705 43.5945 338.37 43.7939L337.751 44.1675L336.717 44.7812L335.671 45.393L335.236 45.6427C333.635 46.5701 334.237 49.0074 336.099 49.0771C336.442 49.081 336.763 49.0055 337.058 48.8351L337.515 48.5718L338.583 47.9485L339.638 47.3193L340.258 46.9476ZM330.545 52.4127C331.254 52.0469 331.643 51.2686 331.517 50.4807C331.312 49.2513 329.964 48.5718 328.855 49.1468L328.057 49.565L326.927 50.1438L325.618 50.802C324.427 51.3964 324.228 52.9896 325.239 53.8569C325.808 54.3332 326.569 54.4242 327.239 54.1028L328.592 53.4214L329.746 52.8309L330.545 52.4127ZM320.532 57.2816C321.16 56.999 321.58 56.395 321.617 55.7077C321.69 54.3332 320.281 53.3594 319.026 53.9267L317.493 54.6081L316.262 55.1444L315.696 55.3883C314.965 55.7 314.51 56.4473 314.583 57.2429C314.694 58.4839 315.983 59.2641 317.129 58.7743L317.723 58.5187L318.976 57.9747L320.532 57.2816ZM310.266 61.5717C310.884 61.3316 311.327 60.7838 311.424 60.1256C311.631 58.7414 310.254 57.632 308.946 58.1412L307.345 58.751L306.026 59.2428L305.539 59.4209C304.905 59.6513 304.445 60.2088 304.344 60.8748C304.143 62.2512 305.48 63.3547 306.791 62.8804L307.3 62.6945L308.642 62.1931L310.266 61.5717ZM299.781 65.3081C300.975 64.917 301.44 63.4844 300.697 62.468C300.232 61.8311 299.4 61.562 298.648 61.8079L297.855 62.0673L296.451 62.5165L295.168 62.9172C293.605 63.3896 293.408 65.5462 294.862 66.3032C295.295 66.5297 295.787 66.5703 296.254 66.429L297.56 66.0205L298.987 65.5636L299.781 65.3081ZM289.135 68.5101C290.738 68.0804 290.982 65.8753 289.505 65.1106C289.085 64.8899 288.622 64.8415 288.167 64.9635L286.291 65.4726L284.648 65.9005C283.002 66.3109 282.756 68.5682 284.27 69.3252C284.657 69.5265 285.124 69.573 285.548 69.4665L287.236 69.0232L289.135 68.5101ZM278.356 71.2088C279.049 71.0501 279.587 70.5158 279.746 69.8189C280.042 68.5063 278.857 67.3215 277.547 67.6215L277.098 67.7222L275.522 68.0726L273.977 68.4037C273.22 68.5624 272.649 69.178 272.538 69.9427C272.374 71.2127 273.481 72.2659 274.738 72.0026L276.306 71.6638L277.903 71.3095L278.356 71.2088ZM267.466 73.4332C269.125 73.1429 269.542 70.932 268.099 70.055C267.714 69.8188 267.267 69.7356 266.818 69.8149L265.801 70.0008L264.134 70.2932L263.221 70.448C261.608 70.7307 261.128 72.7711 262.446 73.7507C262.859 74.0411 263.323 74.1534 263.825 74.076L264.758 73.9153L266.446 73.621L267.466 73.4332ZM256.511 75.2124C258.21 74.9762 258.681 72.7169 257.213 71.8225C256.838 71.598 256.433 71.5089 255.998 71.5709L253.86 71.869L252.377 72.0645C250.561 72.3123 250.167 74.7381 251.826 75.5512C252.153 75.7022 252.49 75.7544 252.844 75.7119L254.35 75.5125L256.511 75.2124ZM245.499 76.5734C247.226 76.3953 247.762 74.1186 246.283 73.1912C245.935 72.9686 245.526 72.8738 245.114 72.9164L243.108 73.1196L241.478 73.2764C239.579 73.4739 239.178 76.0313 240.922 76.7979C241.217 76.9218 241.503 76.9644 241.819 76.9393L243.47 76.7785L245.499 76.5734ZM234.447 77.5452C235.082 77.5007 235.657 77.127 235.949 76.5617C236.613 75.2879 235.622 73.7759 234.191 73.8766L231.864 74.0315L230.542 74.1147C228.784 74.2347 228.166 76.4727 229.626 77.4774C229.977 77.704 230.339 77.8065 230.757 77.7853L232.094 77.704L234.447 77.5452ZM223.369 78.1492C225.073 78.0892 225.785 75.9229 224.44 74.8639C224.099 74.5948 223.673 74.4574 223.239 74.4729L222.107 74.5174L219.582 74.5967C217.679 74.6626 217.097 77.189 218.802 78.0776C219.087 78.215 219.358 78.2789 219.675 78.2751L220.227 78.2596L222.239 78.1918L223.369 78.1492ZM212.292 78.4125C213.93 78.3835 214.725 76.4262 213.571 75.2743C213.209 74.9201 212.764 74.7361 212.259 74.7361L209.932 74.7497L208.604 74.7536C207.8 74.7536 207.092 75.2647 206.85 76.0294C206.472 77.2122 207.355 78.4299 208.594 78.4299L209.945 78.428L212.292 78.4125ZM201.203 78.3602C203.009 78.3912 203.777 76.0894 202.316 75.0265C202.002 74.8058 201.671 74.6955 201.288 74.6819L199.391 74.6432L197.623 74.5987C195.873 74.5677 195.06 76.7089 196.401 77.8569C196.727 78.1202 197.098 78.2576 197.518 78.2731L199.305 78.3196L201.203 78.3602ZM190.144 78.0272C190.555 78.0427 190.915 77.9363 191.254 77.7097C192.71 76.6876 192.059 74.4458 190.294 74.3528L188.689 74.2909L186.627 74.2018C185.008 74.1457 184.102 76.01 185.159 77.2451C185.485 77.6285 185.963 77.8511 186.46 77.8762L188.536 77.9653L190.144 78.0272ZM179.09 77.4949C180.846 77.5859 181.721 75.4253 180.401 74.2676C180.087 73.9985 179.725 73.8553 179.309 73.8243L178.32 73.7682L175.652 73.6036C174.967 73.5571 174.314 73.9017 173.956 74.4845C173.251 75.6712 174.03 77.1793 175.408 77.2703L178.103 77.4387L179.09 77.4949ZM168.051 76.7573C169.821 76.8792 170.729 74.7032 169.395 73.532C169.087 73.2668 168.737 73.1254 168.334 73.0906L166.319 72.9299L164.683 72.7963C162.962 72.6492 162.005 74.771 163.26 75.9597C163.577 76.2539 163.943 76.4224 164.375 76.4611L166.024 76.5966L168.051 76.7573ZM157.022 75.7951C158.174 75.9132 159.156 74.9259 159.034 73.774C158.941 72.9009 158.257 72.2233 157.386 72.1342L156.685 72.0665L154.796 71.8748L153.739 71.7625C151.942 71.5767 150.978 73.8185 152.361 74.9975C152.643 75.2337 152.98 75.3808 153.348 75.4195L154.42 75.5357L156.32 75.7254L157.022 75.7951ZM146.013 74.5929C146.777 74.6858 147.525 74.2947 147.873 73.6075C148.452 72.473 147.726 71.0985 146.46 70.9436L145.55 70.8333L143.738 70.6087L142.826 70.4906C142.249 70.4209 141.695 70.6068 141.285 71.0172C140.218 72.111 140.836 73.9288 142.35 74.1379L143.277 74.256L145.101 74.4825L146.013 74.5929ZM135.036 73.139C136.856 73.3907 137.893 71.1488 136.49 69.9156C136.217 69.6872 135.919 69.5556 135.568 69.5014L133.133 69.1413L131.944 68.9593C131.313 68.8625 130.664 69.1025 130.254 69.5943C129.338 70.6978 129.964 72.3704 131.381 72.595L132.585 72.7789L135.036 73.139ZM124.094 71.4102C124.853 71.5418 125.627 71.1759 126.007 70.5042C126.63 69.3929 125.97 68.0068 124.717 67.7861L122.977 67.4841L121.116 67.153C119.469 66.8626 118.321 68.6979 119.314 70.0647C119.604 70.4403 119.984 70.6784 120.448 70.7694L122.338 71.1062L124.094 71.4102ZM113.194 69.3813C114.991 69.7278 116.143 67.5635 114.848 66.2664C114.577 66.0108 114.292 65.854 113.926 65.7785L113.254 65.6449L111.677 65.3216L110.341 65.0409C109.597 64.8861 108.837 65.1997 108.42 65.8366C107.716 66.9149 108.318 68.3746 109.58 68.6379L110.931 68.9225L112.527 69.2497L113.194 69.3813ZM102.357 67.0369C104.105 67.4357 105.336 65.3778 104.15 64.0207C103.888 63.738 103.577 63.5406 103.199 63.4554L102.448 63.2811L100.95 62.9249L99.637 62.6074C98.9749 62.4448 98.2973 62.6597 97.8366 63.1572C96.9015 64.193 97.4126 65.8405 98.7639 66.1793L100.092 66.4987L101.606 66.8588L102.357 67.0369ZM91.5989 64.3479C92.7044 64.6441 93.8059 63.8697 93.9066 62.7294C93.984 61.8447 93.4071 61.0258 92.5534 60.7973L90.7801 60.3172L89.0299 59.8313C88.302 59.6222 87.5432 59.8816 87.0746 60.474C86.2828 61.5078 86.7726 63.0082 88.0271 63.3683L89.8082 63.86L91.5989 64.3479ZM80.928 61.2852C81.6075 61.4904 82.3219 61.3046 82.8117 60.7896C83.7448 59.81 83.3112 58.1664 82.018 57.7714L81.1564 57.5081L79.8245 57.0919L78.5274 56.6776C77.0251 56.1878 75.6351 57.7308 76.2856 59.1789C76.4947 59.6571 76.9051 60.0152 77.4007 60.1778L78.7172 60.5979L80.0665 61.02L80.928 61.2852ZM70.381 57.8198C71.9239 58.3542 73.341 56.7938 72.6576 55.3031C72.4331 54.8482 72.0885 54.5268 71.6064 54.3526L70.8011 54.0699L69.5524 53.6246L68.1721 53.1232C66.6349 52.5657 65.1965 54.1028 65.8547 55.6032C66.0677 56.0581 66.4181 56.3969 66.8924 56.5692L68.3056 57.0842L69.5718 57.5372L70.381 57.8198ZM59.9791 53.9247C61.6576 54.5771 63.1754 52.7206 62.1958 51.2028C61.9867 50.8853 61.7002 50.6549 61.3459 50.5097L59.9385 49.9425L58.7827 49.4682L57.9716 49.1313C56.204 48.4131 54.6495 50.4884 55.8265 51.9791C56.0259 52.223 56.2621 52.4011 56.5506 52.525L57.3792 52.8696L58.5543 53.3517L59.9791 53.9247ZM49.7535 49.5611C50.4698 49.8825 51.308 49.7257 51.8501 49.1565C52.7174 48.2408 52.4348 46.7365 51.2848 46.2158L49.8832 45.5711L48.8126 45.0716L47.9782 44.6767C47.4323 44.4212 46.8166 44.4386 46.2901 44.729C44.9891 45.4627 45.0472 47.3502 46.3946 47.9949L47.2464 48.3995L48.3344 48.9067L49.7535 49.5611ZM39.7407 44.6941C41.3534 45.5305 43.0764 43.7881 42.2033 42.1735C42.0174 41.8502 41.7812 41.6102 41.4502 41.4379L40.5868 40.9887L39.6014 40.4679L38.2268 39.7304C36.7265 38.9056 34.9996 40.4292 35.6404 42.0303C35.8011 42.4291 36.0896 42.7504 36.4651 42.9576L37.8745 43.7165L38.8773 44.245L39.7407 44.6941ZM30.0049 39.3006C31.4859 40.1892 33.2747 38.7043 32.6726 37.0839C32.5255 36.6851 32.2545 36.3618 31.8924 36.1431L31.1219 35.6881L30.2236 35.148L29.3331 34.6059L28.7717 34.2594C28.1831 33.8954 27.4668 33.8935 26.8706 34.2342C25.6741 34.9466 25.6587 36.6406 26.8318 37.3821L27.4107 37.7402L28.3187 38.2958L29.2382 38.8456L30.0049 39.3006ZM20.5923 33.3533C21.1073 33.6941 21.7113 33.7599 22.2882 33.5431C23.6704 32.9894 23.8776 31.1502 22.6521 30.3062L21.69 29.6518L20.8827 29.0962L19.6631 28.2386C19.0765 27.8243 18.304 27.7856 17.6787 28.1456C16.5152 28.8252 16.4455 30.4514 17.5335 31.2374L18.7861 32.1163L19.6108 32.6854L20.5923 33.3533ZM11.5553 26.8176C12.1283 27.2667 12.9182 27.3345 13.5609 26.986C14.7244 26.3549 14.8599 24.7345 13.8184 23.9195L13.2318 23.4645L12.5097 22.8954L11.7934 22.3262L10.9687 21.6602C9.65224 20.578 7.68146 21.7454 7.99508 23.42C8.07639 23.8498 8.30097 24.2292 8.63782 24.508L9.49546 25.1991L10.2272 25.7819L10.9668 26.3607L11.5553 26.8176ZM2.97131 19.6914C4.17934 20.7852 6.12497 19.8482 6.03592 18.222C6.00882 17.7303 5.79391 17.285 5.42801 16.9539L4.39618 16.0266L3.76505 15.4516L2.74092 14.505C1.45545 13.3066 -0.615993 14.4217 -0.327538 16.1583C-0.252037 16.5687 -0.0778084 16.8978 0.226135 17.1882L1.28122 18.1639L1.92591 18.7544L2.97131 19.6914ZM-5.08998 11.9728C-4.59438 12.48 -3.88774 12.6561 -3.21016 12.449C-1.90727 12.0231 -1.50074 10.4104 -2.44548 9.41924L-3.28566 8.54612L-3.8316 7.97309C-4.20136 7.57622 -4.575 7.1871 -4.94089 6.78635C-6.04825 5.56671 -8.10424 6.33722 -8.13522 7.99052C-8.1449 8.4687 -7.97452 8.91589 -7.65315 9.27017L-7.05688 9.91291L-6.50126 10.5014L-5.94372 11.09L-5.08998 11.9728ZM-12.5666 3.68303C-11.5618 4.90267 -9.53879 4.33157 -9.33358 2.75958C-9.25808 2.24849 -9.41487 1.72579 -9.74398 1.32892C-10.5222 0.401604 -11.285 -0.537338 -12.04 -1.48595C-13.0428 -2.76561 -15.124 -2.17901 -15.3079 -0.55669C-15.364 -0.0630226 -15.2305 0.405472 -14.9226 0.796532C-14.1483 1.77031 -13.3642 2.73248 -12.5666 3.68303Z" fill="#31BFD7"/>
<path fill-rule="evenodd" clip-rule="evenodd" d="M184.534 126.225C189.972 124.521 195.76 127.551 197.464 132.987C199.168 138.425 196.138 144.215 190.7 145.917C185.262 147.623 179.473 144.593 177.771 139.155C176.068 133.717 179.096 127.928 184.534 126.225Z" fill="#31BFD7"/>
<path fill-rule="evenodd" clip-rule="evenodd" d="M159.072 128.676C161.85 127.806 164.806 129.353 165.677 132.129C166.546 134.907 165 137.864 162.223 138.733C159.447 139.602 156.491 138.055 155.62 135.279C154.751 132.503 156.297 129.545 159.072 128.676Z" fill="#31BFD7"/>
<path fill-rule="evenodd" clip-rule="evenodd" d="M213.176 128.068C215.952 127.196 218.906 128.745 219.777 131.519C220.645 134.296 219.1 137.254 216.326 138.125C213.546 138.994 210.589 137.447 209.722 134.671C208.851 131.891 210.4 128.939 213.176 128.068Z" fill="#31BFD7"/>
<path fill-rule="evenodd" clip-rule="evenodd" d="M439.155 -54.6085C438.716 -56.3586 436.277 -56.498 435.644 -54.7982C435.518 -54.4439 435.496 -54.0916 435.586 -53.7257C435.882 -52.5332 436.18 -51.3406 436.478 -50.15C436.658 -49.4298 437.256 -48.8897 437.992 -48.7774C439.289 -48.5877 440.363 -49.7725 440.044 -51.0444C439.746 -52.2331 439.452 -53.4198 439.155 -54.6085ZM734.409 -50.6263C734.827 -52.297 732.962 -53.5747 731.561 -52.5854C731.203 -52.326 730.963 -51.9814 730.85 -51.5536C730.544 -50.3765 730.229 -49.1975 729.909 -48.0243C729.739 -47.3913 729.902 -46.7408 730.353 -46.2646C731.356 -45.2385 733.059 -45.6683 733.456 -47.0486C733.779 -48.2373 734.099 -49.4298 734.409 -50.6263ZM731.418 -39.9398C731.598 -40.5264 731.462 -41.1692 731.071 -41.6396C730.13 -42.7702 728.32 -42.3985 727.894 -40.9949C727.544 -39.8275 727.191 -38.6621 726.829 -37.4967C726.483 -36.3603 727.251 -35.2219 728.436 -35.1174C729.305 -35.0535 730.072 -35.5723 730.337 -36.4029C730.705 -37.578 731.063 -38.757 731.418 -39.9398ZM728.078 -29.3638C728.657 -31.1235 726.578 -32.5406 725.145 -31.3481C724.88 -31.1197 724.704 -30.8525 724.589 -30.5253C724.206 -29.3676 723.817 -28.2138 723.42 -27.058C723.186 -26.3766 723.374 -25.6061 723.904 -25.1144C724.882 -24.2122 726.462 -24.6033 726.897 -25.8616C727.296 -27.029 727.693 -28.1964 728.078 -29.3638ZM724.431 -18.8941C725.052 -20.6113 723.064 -22.0885 721.6 -21.0005C721.318 -20.7894 721.099 -20.4971 720.979 -20.1622C720.561 -19.0181 720.135 -17.872 719.705 -16.7298C719.115 -15.1094 720.824 -13.6477 722.332 -14.4783C722.715 -14.7009 722.987 -15.0165 723.149 -15.4308C723.581 -16.5846 724.005 -17.7403 724.431 -18.8941ZM720.472 -8.54264C721.173 -10.3489 719.004 -11.886 717.525 -10.5851C717.316 -10.3915 717.165 -10.1766 717.061 -9.91136C716.608 -8.78077 716.149 -7.65017 715.684 -6.52345C714.993 -4.82563 716.927 -3.273 718.435 -4.3126C718.724 -4.51588 718.948 -4.79078 719.082 -5.11989C719.55 -6.25436 720.015 -7.39656 720.472 -8.54264ZM716.191 1.69077C716.929 -0.00899887 714.987 -1.61195 713.454 -0.556862C713.171 -0.35746 712.968 -0.105793 712.825 0.207832C712.335 1.32487 711.841 2.43997 711.342 3.55508C711.09 4.11069 711.133 4.76892 711.458 5.28775C712.238 6.5287 714.087 6.40286 714.693 5.06706C715.2 3.94421 715.696 2.81942 716.191 1.69077ZM711.582 11.777C711.863 11.1827 711.814 10.5167 711.454 9.965C710.662 8.77827 708.881 8.90216 708.266 10.1896C707.741 11.2872 707.207 12.383 706.668 13.4729C706.341 14.1331 706.446 14.9443 706.932 15.4979C707.801 16.4853 709.379 16.2801 709.965 15.1049C710.511 13.9995 711.051 12.8902 711.582 11.777ZM706.612 21.7026C706.936 21.0831 706.889 20.3359 706.477 19.7686C705.675 18.6651 703.999 18.7832 703.362 19.9893C702.797 21.0677 702.222 22.1421 701.643 23.2146C701.312 23.8206 701.356 24.5504 701.738 25.1215C702.524 26.2618 704.212 26.1766 704.876 24.9667L705.826 23.1972L706.612 21.7026ZM701.261 31.4346C702.134 29.9304 700.603 28.161 698.989 28.8076C698.605 28.9624 698.288 29.2374 698.079 29.5936L697.357 30.8403L696.809 31.7734L696.236 32.7395C695.332 34.2456 696.863 36.0461 698.493 35.3937C698.872 35.2349 699.172 34.9929 699.383 34.6386L699.974 33.6436L700.53 32.6988L701.261 31.4346ZM695.496 40.9324C696.481 39.3759 694.826 37.5 693.157 38.2801C692.836 38.437 692.596 38.648 692.399 38.948L691.665 40.0941L691.069 41.0118L690.416 42.0049C690.002 42.6244 690.002 43.4259 690.414 44.0454C691.146 45.1315 692.745 45.1373 693.475 44.0473L694.149 43.0232L694.751 42.094L695.496 40.9324ZM689.276 50.1552C690.23 48.8407 689.092 47.0074 687.477 47.2746C686.988 47.3578 686.573 47.6172 686.285 48.0199L685.489 49.1292L684.844 50.0159L684.148 50.9625C683.125 52.3332 684.359 54.2362 686.043 53.8549C686.475 53.7445 686.821 53.5238 687.092 53.1676L687.812 52.1899L688.469 51.2858L689.276 50.1552ZM682.562 59.0432C683.66 57.6667 682.397 55.6843 680.684 56.1044C680.278 56.2148 679.966 56.4084 679.699 56.7355L678.822 57.8197L678.129 58.6657L677.397 59.5446C676.286 60.8978 677.447 62.8589 679.159 62.5376C679.579 62.4505 679.921 62.2472 680.202 61.9219L680.965 61.0062L681.671 60.1428L682.562 59.0432ZM675.31 67.511C676.489 66.2139 675.376 64.1676 673.637 64.4561C673.229 64.5316 672.888 64.7174 672.604 65.0214L671.661 66.0455L670.917 66.8393L670.127 67.6678C669.014 68.8352 669.787 70.7285 671.403 70.7886C671.918 70.7982 672.4 70.6027 672.762 70.2329L673.591 69.3637L674.352 68.5506L675.31 67.511ZM667.477 75.4677C668.712 74.2887 667.845 72.227 666.134 72.2909C665.686 72.3141 665.289 72.4786 664.96 72.7865L663.99 73.6905L663.195 74.4185L662.293 75.2277C661.193 76.2073 661.609 77.9767 663.03 78.3852C663.646 78.5381 664.238 78.4104 664.722 77.9922L665.667 77.1404L666.484 76.3912L667.477 75.4677ZM659.023 82.7856C660.295 81.7925 659.731 79.7326 658.117 79.5197C657.608 79.4635 657.147 79.5855 656.74 79.9011L655.809 80.6348L654.961 81.2853L653.877 82.1003C653.385 82.4681 653.116 83.0199 653.128 83.6336C653.182 85.1223 654.849 85.9354 656.055 85.0662L656.314 84.8726L657.191 84.2105L658.066 83.5368L659.023 82.7856ZM649.914 89.3349C650.541 88.9381 650.876 88.1889 650.739 87.4571C650.501 86.1735 649.051 85.5289 647.943 86.2316L647.109 86.7679L646.211 87.3293L645.307 87.883L644.873 88.1424C644.275 88.5025 643.934 89.1413 643.975 89.8383C644.075 91.2186 645.551 92.0007 646.745 91.3077L647.214 91.0289L648.149 90.4539L649.08 89.8693L649.914 89.3349ZM640.184 94.9259C640.809 94.6123 641.208 93.9812 641.208 93.2785C641.208 91.9175 639.77 91.0231 638.556 91.629L637.878 91.9678L636.924 92.4324L635.966 92.8874L635.294 93.1971C633.883 93.836 633.852 95.8242 635.247 96.5211C635.755 96.7593 636.301 96.7767 636.816 96.5463L637.522 96.2192L638.517 95.7468L639.507 95.2628L640.184 94.9259ZM629.877 99.3999C631.443 98.8288 631.517 96.6547 629.968 95.9752C629.519 95.7971 629.091 95.7797 628.634 95.9384L628.104 96.132L627.097 96.4883L626.083 96.8309L625.219 97.1116C624.654 97.2975 624.23 97.7118 624.034 98.2751C623.556 99.7155 624.892 101.055 626.334 100.618L627.24 100.321L628.295 99.9633L629.345 99.5955L629.877 99.3999ZM619.094 102.608C619.789 102.451 620.327 101.913 620.484 101.218C620.782 99.9052 619.593 98.7223 618.285 99.0224L617.777 99.1405L616.713 99.3748L615.642 99.5935L614.752 99.7658C614.024 99.9052 613.47 100.44 613.298 101.158C613.003 102.459 614.117 103.611 615.427 103.38L616.36 103.2L617.475 102.97L618.587 102.73L619.094 102.608ZM607.993 104.464C609.033 104.358 609.768 103.44 609.643 102.403C609.505 101.408 608.646 100.718 607.645 100.805L606.878 100.883L605.757 100.985L604.629 101.071L604.05 101.109C602.152 101.237 601.653 103.765 603.372 104.61C603.655 104.741 603.949 104.797 604.263 104.78L604.888 104.741L606.063 104.65L607.232 104.546L607.993 104.464ZM596.769 104.952C598.515 104.983 599.314 102.782 597.957 101.682C597.632 101.425 597.255 101.282 596.838 101.274L596.561 101.272L595.386 101.243L594.202 101.198L593.234 101.15C592.542 101.115 591.902 101.454 591.545 102.048C590.845 103.229 591.654 104.751 593.024 104.823L594.041 104.873L595.27 104.921L596.492 104.95L596.769 104.952ZM585.637 104.308C587.356 104.457 588.312 102.335 587.06 101.146C586.742 100.856 586.378 100.682 585.947 100.647L584.729 100.54L583.573 100.436L582.319 100.314C580.602 100.136 579.606 102.221 580.834 103.45C581.14 103.746 581.513 103.928 581.939 103.973L583.229 104.098L584.402 104.205L585.637 104.308ZM574.579 103.119C575.189 103.204 575.787 102.974 576.197 102.517C577.171 101.409 576.526 99.6748 575.067 99.4735L573.464 99.2567L572.372 99.1018L571.452 98.9682C569.89 98.7514 568.8 100.412 569.619 101.76C569.911 102.221 570.37 102.521 570.906 102.604L571.843 102.741L572.953 102.9L574.579 103.119ZM563.59 101.377C564.293 101.514 565.004 101.222 565.426 100.645C566.206 99.5451 565.594 98.0177 564.272 97.7641L562.845 97.493L561.819 97.2897L560.704 97.0632C559.941 96.9006 559.147 97.2413 558.747 97.9131C558.094 98.9934 558.706 100.401 559.941 100.66L561.095 100.894L562.142 101.102L563.59 101.377ZM552.697 99.005C553.378 99.1773 554.077 98.9566 554.54 98.432C555.436 97.3827 554.939 95.801 553.607 95.4428L552.844 95.2512L551.876 95.0034L550.916 94.7478L550.083 94.5194C548.296 94.0412 546.993 96.1862 548.261 97.555C548.5 97.8066 548.778 97.9712 549.109 98.066L549.963 98.2984L550.945 98.5578L551.934 98.8133L552.697 99.005ZM541.975 95.9326C543.675 96.4902 545.092 94.5213 544.024 93.0849C543.799 92.7829 543.484 92.5564 543.125 92.4382L542.529 92.2427L541.625 91.9446L540.727 91.6387L539.685 91.2747C539 91.0386 538.272 91.1993 537.757 91.7142C536.816 92.6822 537.176 94.2755 538.444 94.7382L539.532 95.1176L540.452 95.4274L541.377 95.7371L541.975 95.9326ZM531.483 92.0878C532.062 92.324 532.679 92.2679 533.202 91.9291C534.433 91.1102 534.261 89.2749 532.906 88.698L532.056 88.3457L531.219 87.9914L530.387 87.6313L529.562 87.2673C529.005 87.0195 528.35 87.0641 527.835 87.3893C526.594 88.1714 526.72 90.0183 528.056 90.6243L528.921 91.0037L529.775 91.3716L530.637 91.7355L531.483 92.0878ZM521.327 87.4145C522.883 88.2218 524.587 86.5917 523.836 84.9926C523.667 84.6325 523.377 84.3363 523.025 84.1505L522.36 83.8097L521.586 83.4032L520.818 82.9928L519.824 82.4546C518.204 81.564 516.427 83.3335 517.331 84.9694C517.494 85.2578 517.745 85.5076 518.036 85.6644L519.073 86.2316L519.867 86.6536L520.667 87.0699L521.327 87.4145ZM511.61 81.8777C512.284 82.3036 513.13 82.2455 513.751 81.7538C514.727 80.96 514.64 79.4442 513.577 78.7685L512.673 78.1936L511.963 77.7309L511.256 77.2662L510.553 76.7977C510.098 76.4841 509.529 76.3951 509.004 76.5461C507.508 76.9855 507.196 78.9525 508.474 79.8314L509.221 80.3308L509.949 80.809L510.685 81.2833L511.61 81.8777ZM502.42 75.4755C503.895 76.5964 505.913 75.1057 505.26 73.3595C505.134 73.0362 504.941 72.7768 504.668 72.5658L503.779 71.8766L503.127 71.3616L502.48 70.8428L501.836 70.3201L499.487 73.1504L500.169 73.706L500.839 74.2404L501.51 74.7689L502.42 75.4755ZM501.836 70.3201L499.489 73.1504C498.442 72.2909 498.674 70.6124 499.905 70.0587C500.546 69.7664 501.297 69.8767 501.836 70.3201ZM493.865 68.2563C495.191 69.4547 497.251 68.297 496.922 66.5547C496.841 66.1655 496.661 65.8326 496.368 65.5615L495.629 64.8704L495.029 64.3031L494.434 63.732L493.751 63.0661C492.555 61.8697 490.495 62.8144 490.623 64.5084C490.655 64.9517 490.843 65.3602 491.159 65.6757L491.877 66.3765L492.487 66.9631L493.104 67.5497L493.865 68.2563ZM486.005 60.2919C487.091 61.4902 489.083 60.8049 489.204 59.1865C489.231 58.6792 489.076 58.2068 488.733 57.8274L488.158 57.1886L487.612 56.569L487.068 55.9457L486.344 55.1055C485.274 53.8665 483.26 54.5073 483.111 56.1315C483.07 56.6426 483.214 57.0859 483.539 57.4828L484.29 58.3578L484.852 58.9967L485.415 59.6337L486.005 60.2919ZM478.854 51.6847C479.894 53.0495 482.064 52.3835 482.157 50.6644C482.172 50.2211 482.054 49.8242 481.787 49.466L481.32 48.8524L480.819 48.1845L480.321 47.5107L479.619 46.5505C478.573 45.1063 476.287 45.8419 476.287 47.6346C476.293 48.0238 476.405 48.3819 476.633 48.6975L477.361 49.6926L477.872 50.3837L478.385 51.0671L478.854 51.6847ZM472.415 42.5644C473.427 44.1151 475.834 43.3794 475.797 41.5171C475.784 41.1686 475.691 40.8666 475.503 40.5723L475.058 39.8831L474.597 39.1668L474.142 38.4447L473.551 37.5019C472.589 35.9822 470.282 36.5552 470.15 38.3556C470.129 38.7448 470.222 39.0952 470.419 39.4282L471.029 40.4039L471.497 41.1395L471.966 41.8733L472.415 42.5644ZM466.644 33.0318C467.544 34.6173 469.947 34.0811 470.082 32.2497C470.103 31.8799 470.028 31.5547 469.85 31.2333L469.321 30.2866C468.911 29.5394 468.502 28.7921 468.096 28.0409C467.221 26.4496 464.845 26.92 464.646 28.7243C464.611 29.098 464.679 29.4445 464.855 29.7794L465.676 31.2933L466.106 32.0735L466.644 33.0318ZM461.467 23.1682C462.329 24.8892 464.89 24.3413 464.96 22.4035C464.965 22.1073 464.904 21.8285 464.774 21.5633C464.243 20.4714 463.713 19.3756 463.2 18.2721C462.952 17.7475 462.495 17.3816 461.93 17.2538C460.43 16.9402 459.235 18.429 459.866 19.8248L460.354 20.8644C460.724 21.6349 461.096 22.4015 461.467 23.1682ZM456.827 13.0664C457.15 13.8059 457.892 14.2454 458.695 14.1718C459.938 14.0382 460.697 12.7682 460.207 11.6164C459.725 10.4993 459.251 9.3784 458.786 8.25362C458.534 7.63605 457.953 7.20047 457.293 7.1269C455.901 6.97202 454.86 8.35816 455.386 9.65331C455.859 10.7936 456.339 11.9319 456.827 13.0664ZM452.645 2.77684C453.23 4.27913 455.293 4.37399 456.018 2.9259C456.24 2.45353 456.265 1.95987 456.083 1.46813C455.646 0.329796 455.218 -0.81242 454.792 -1.95657C454.517 -2.71352 453.751 -3.21492 452.949 -3.15878C451.716 -3.06779 450.92 -1.84621 451.342 -0.684639C451.772 0.473057 452.206 1.62689 452.645 2.77684ZM448.856 -7.6463C449.104 -6.93 449.764 -6.4344 450.525 -6.40536C451.813 -6.3589 452.755 -7.62114 452.333 -8.84079C451.937 -9.99268 451.544 -11.1484 451.16 -12.3042C450.636 -13.9072 448.376 -14.0001 447.722 -12.4416C447.546 -12.0254 447.528 -11.5763 447.672 -11.1484C448.059 -9.97911 448.454 -8.81368 448.856 -7.6463ZM445.401 -18.1759C445.964 -16.4471 448.372 -16.4626 448.916 -18.1972C449.021 -18.5612 449.019 -18.9096 448.911 -19.2717C448.547 -20.4352 448.185 -21.6026 447.828 -22.7699C447.315 -24.4639 444.926 -24.5219 444.334 -22.8435C444.206 -22.4776 444.199 -22.0769 444.311 -21.7052C444.667 -20.5281 445.031 -19.351 445.401 -18.1759ZM442.216 -28.781C442.369 -28.2467 442.758 -27.8111 443.269 -27.5962C444.692 -26.9961 446.173 -28.3183 445.751 -29.7974C445.412 -30.9687 445.077 -32.1438 444.746 -33.3208C444.262 -35.0148 441.918 -35.1368 441.266 -33.4989C441.118 -33.104 441.095 -32.742 441.204 -32.3316C441.541 -31.1487 441.874 -29.9639 442.216 -28.781ZM439.254 -39.4462C439.405 -38.8847 439.808 -38.4298 440.346 -38.213C441.748 -37.6535 443.198 -38.9351 442.807 -40.3928C442.489 -41.5738 442.177 -42.7566 441.866 -43.9395C441.426 -45.5851 439.202 -45.8135 438.433 -44.2763C438.246 -43.8756 438.195 -43.44 438.309 -43.0083C438.623 -41.8216 438.937 -40.6348 439.254 -39.4462Z" fill="#31BFD7"/>
<path fill-rule="evenodd" clip-rule="evenodd" d="M540.614 106.209C546.532 106.083 551.256 101.152 551.128 95.2339C551.002 89.3158 546.072 84.592 540.153 84.7198C534.233 84.8457 529.511 89.7765 529.639 95.6947C529.765 101.613 534.696 106.335 540.614 106.209Z" fill="#31BFD7"/>
<path fill-rule="evenodd" clip-rule="evenodd" d="M514.208 90.7638C517.228 90.698 519.641 88.1832 519.577 85.1592C519.511 82.1372 516.994 79.7231 513.972 79.7889C510.948 79.8528 508.538 82.3734 508.602 85.3954C508.668 88.4174 511.184 90.8296 514.208 90.7638Z" fill="#31BFD7"/>
<path fill-rule="evenodd" clip-rule="evenodd" d="M568.513 105.837C571.535 105.773 573.945 103.254 573.881 100.232C573.816 97.2105 571.299 94.7983 568.277 94.8641C565.255 94.9299 562.845 97.4486 562.908 100.469C562.974 103.491 565.491 105.903 568.513 105.837Z" fill="#31BFD7"/>
<path fill-rule="evenodd" clip-rule="evenodd" d="M533.898 89.6583C534.958 87.7379 537.723 86.2453 540.071 86.3285C542.422 86.4118 543.465 88.036 542.402 89.9584C541.341 91.8808 538.575 93.3696 536.228 93.2863C533.878 93.207 532.835 91.5807 533.898 89.6583Z" fill="white"/>
</svg>
