<svg width="670" height="164" viewBox="0 0 670 164" fill="none" xmlns="http://www.w3.org/2000/svg">
<path fill-rule="evenodd" clip-rule="evenodd" d="M233.495 12.4959C233.175 11.8338 232.513 11.4428 231.783 11.4544C230.446 11.5028 229.611 12.8812 230.182 14.0892L230.831 15.4637L231.785 17.419C232.142 18.1295 232.889 18.5283 233.677 18.4277C234.92 18.267 235.642 16.9099 235.082 15.7909L234.147 13.8685L233.495 12.4959ZM238.408 22.2666C237.562 20.7256 235.239 21.138 234.976 22.8803C234.924 23.2869 234.982 23.6663 235.183 24.0303L236.19 25.8907L236.954 27.2749C237.469 28.1829 238.612 28.4868 239.508 27.9506C240.362 27.4259 240.644 26.3534 240.16 25.4764L239.413 24.1271L238.408 22.2666ZM243.813 31.7934C242.931 30.3241 240.673 30.7674 240.418 32.4729C240.362 32.9105 240.433 33.3093 240.66 33.6907L240.84 33.9907L242.054 35.9828L242.6 36.8598C243.024 37.5296 243.802 37.8394 244.574 37.671C245.8 37.3767 246.39 35.9693 245.711 34.8987L245.184 34.0546L243.992 32.0954L243.813 31.7934ZM249.666 41.0318C248.692 39.6127 246.502 40.1606 246.313 41.872C246.272 42.3114 246.371 42.7199 246.617 43.0858L247.099 43.8079L248.406 45.7303L248.704 46.1581C249.552 47.3294 251.342 47.1513 251.906 45.8077C252.146 45.2037 252.08 44.5765 251.712 44.0422L251.435 43.6453L250.148 41.7519L249.666 41.0318ZM255.96 49.9778C254.825 48.4871 252.454 49.428 252.665 51.3058C252.707 51.6311 252.821 51.9195 253.017 52.1828L253.826 53.2747L255.247 55.1525C255.714 55.7469 256.504 56.0044 257.23 55.7817C258.463 55.4081 258.939 53.9058 258.147 52.8894L256.769 51.0697L255.96 49.9778ZM253.017 52.1828L258.147 52.8894L255.247 55.1525L253.017 52.1828ZM262.673 58.616C262.205 58.0468 261.429 57.8164 260.728 58.0294C259.468 58.4166 259.003 59.944 259.841 60.9643L261.001 62.3775L262.201 63.8101C263.214 64.9833 265.093 64.4935 265.409 62.9699C265.513 62.4085 265.37 61.8742 265.01 61.4347L263.835 60.0292L262.673 58.616ZM269.784 66.9328C269.292 66.3888 268.514 66.1952 267.821 66.4372C266.572 66.8766 266.181 68.4332 267.07 69.4127L268.603 71.1086L269.56 72.1463C270.851 73.4995 273.083 72.3302 272.7 70.4949C272.626 70.1697 272.477 69.8832 272.251 69.6392L271.319 68.6306L269.784 66.9328ZM277.29 74.9224C276.076 73.7067 274.022 74.6456 274.148 76.3647C274.188 76.8081 274.361 77.1875 274.672 77.505L274.98 77.8205L276.614 79.4603L277.298 80.1321C277.857 80.6761 278.686 80.8077 279.386 80.4709C280.529 79.9114 280.776 78.3897 279.867 77.5011L279.208 76.8545L277.6 75.24L277.29 74.9224ZM285.134 82.5501C283.766 81.3072 281.636 82.612 282.114 84.3892C282.211 84.728 282.383 85.0126 282.643 85.2507L283.291 85.8567L284.997 87.417L285.378 87.7578C285.959 88.2747 286.786 88.3657 287.471 88.0036C288.6 87.3919 288.768 85.8722 287.819 85.0107L287.467 84.6932L285.785 83.1541L285.134 82.5501ZM293.319 89.8176C291.988 88.7258 290.038 89.8544 290.327 91.5503C290.41 91.9917 290.613 92.3402 290.954 92.6344L291.972 93.4979L293.796 95.0176C295.054 96.0262 296.876 95.0776 296.787 93.4514C296.738 92.9287 296.518 92.4931 296.109 92.1601L294.338 90.683L293.319 89.8176ZM301.814 96.7232C300.376 95.6293 298.382 97.0542 298.953 98.7694C299.069 99.1198 299.29 99.416 299.58 99.6425L300.992 100.734L302.513 101.888C302.982 102.235 303.553 102.339 304.114 102.186C305.584 101.764 305.936 99.871 304.722 98.9476L303.226 97.817L301.814 96.7232ZM310.606 103.247C309.258 102.322 307.475 103.458 307.742 105.071C307.835 105.559 308.093 105.981 308.503 106.263L310.335 107.551L311.535 108.378C312.083 108.755 312.799 108.802 313.393 108.505C314.644 107.866 314.77 106.138 313.608 105.342L312.437 104.533L310.606 103.247ZM319.685 109.394C319.066 109.003 318.295 109.001 317.68 109.402C316.566 110.143 316.576 111.754 317.693 112.488L318.022 112.701L319.972 113.945L320.824 114.476C322.341 115.386 324.124 113.907 323.507 112.249C323.362 111.87 323.1 111.564 322.759 111.349L321.939 110.834L320.014 109.607L319.685 109.394ZM329.009 115.136C328.356 114.758 327.537 114.813 326.945 115.279C325.931 116.083 326.037 117.664 327.156 118.311L327.89 118.743L329.895 119.9L330.37 120.169C330.978 120.502 331.649 120.477 332.242 120.125C333.428 119.376 333.38 117.651 332.166 116.96L331.721 116.71L329.744 115.57L329.009 115.136ZM338.564 120.479C337.959 120.164 337.246 120.202 336.675 120.586C335.531 121.375 335.626 123.083 336.855 123.733L338.013 124.347L340.142 125.451C341.747 126.258 343.437 124.51 342.582 122.928C342.4 122.599 342.132 122.336 341.794 122.167L339.72 121.091L338.564 120.479ZM348.339 125.412C346.771 124.67 345.133 126.341 345.917 127.905C346.101 128.273 346.403 128.566 346.777 128.742L348.378 129.501L350.12 130.312C350.786 130.616 351.555 130.502 352.103 130.023C353.1 129.148 352.863 127.518 351.655 126.97L349.942 126.175L348.339 125.412ZM358.315 129.928C356.611 129.233 355.059 131.166 356.102 132.681C356.317 132.978 356.561 133.179 356.9 133.322L358.956 134.19L360.307 134.749C361.897 135.398 363.436 133.682 362.617 132.172C362.415 131.799 362.086 131.502 361.691 131.344L360.371 130.8L358.315 129.928ZM368.488 134.023C366.833 133.419 365.364 135.212 366.278 136.716C366.5 137.068 366.802 137.312 367.191 137.465L367.557 137.603L369.727 138.41L370.67 138.751C371.23 138.946 371.82 138.875 372.316 138.545C373.566 137.696 373.324 135.804 371.905 135.287L370.994 134.958L368.854 134.162L368.488 134.023ZM378.809 137.678C378.122 137.452 377.359 137.653 376.873 138.193C375.982 139.18 376.406 140.76 377.667 141.174L378.474 141.44L380.677 142.148L381.2 142.311C382.9 142.828 384.27 140.874 383.211 139.451C382.969 139.136 382.66 138.913 382.28 138.797L381.788 138.642L379.616 137.945L378.809 137.678ZM389.277 140.892C387.747 140.481 386.452 142.022 387.126 143.459C387.352 143.939 387.782 144.287 388.291 144.435L389.542 144.787L391.865 145.424C393.712 145.885 394.961 143.608 393.58 142.299C393.35 142.086 393.09 141.945 392.786 141.866L390.529 141.248L389.277 140.892ZM399.87 143.654C398.438 143.329 397.224 144.719 397.737 146.094C397.969 146.674 398.43 147.098 399.043 147.238L400.747 147.64L402.644 148.068C403.442 148.237 404.226 147.892 404.636 147.186C405.246 146.101 404.652 144.756 403.438 144.479L401.574 144.059L399.87 143.654ZM410.574 145.962C408.743 145.639 407.631 147.896 409.035 149.158C409.304 149.381 409.565 149.513 409.908 149.578L412.063 149.985L413.542 150.248C415.243 150.548 416.382 148.525 415.24 147.224C414.961 146.909 414.587 146.7 414.173 146.628L412.727 146.37L410.574 145.962ZM421.38 147.801C419.561 147.551 418.523 149.791 419.927 151.025C420.201 151.253 420.496 151.387 420.85 151.441L421.181 151.489L423.469 151.812L424.524 151.954C425.26 152.041 425.963 151.702 426.342 151.065C427.012 149.917 426.304 148.488 424.991 148.306L423.969 148.171L421.715 147.851L421.38 147.801ZM432.243 149.16C430.561 148.986 429.558 151.021 430.725 152.254C431.023 152.575 431.443 152.775 431.879 152.819L432.644 152.899L434.944 153.117L435.573 153.171C437.205 153.311 438.19 151.361 437.106 150.13C436.787 149.764 436.353 149.545 435.867 149.505L435.271 149.454L433.008 149.238L432.243 149.16ZM443.15 150.033C441.462 149.944 440.56 152.006 441.774 153.185C442.103 153.501 442.504 153.681 442.959 153.704L444.157 153.774L446.668 153.892C448.371 153.95 449.231 151.832 447.961 150.69C447.628 150.395 447.239 150.231 446.792 150.215L444.352 150.101L443.15 150.033ZM454.088 150.415C453.351 150.415 452.691 150.841 452.394 151.52C451.874 152.724 452.751 154.093 454.071 154.093L455.699 154.11H457.765C459.431 154.11 460.233 152.027 458.986 150.904C458.642 150.595 458.21 150.432 457.747 150.432H455.718L454.088 150.415ZM465.028 150.293C463.232 150.386 462.616 152.711 464.12 153.679C464.449 153.888 464.798 153.981 465.189 153.965L467.249 153.888L468.879 153.806C470.567 153.721 471.249 151.57 469.919 150.527C469.576 150.25 469.125 150.115 468.683 150.136L467.09 150.213L465.028 150.293ZM475.972 149.66C474.174 149.813 473.651 152.192 475.213 153.088C475.542 153.27 475.895 153.355 476.27 153.322L476.483 153.307L478.787 153.104L479.968 152.988C481.716 152.808 482.243 150.504 480.727 149.582C480.388 149.379 479.985 149.29 479.594 149.333L478.448 149.445L476.179 149.644L475.972 149.66ZM486.846 148.508C485.03 148.758 484.647 151.214 486.331 152.006C486.663 152.151 486.974 152.196 487.332 152.153L487.994 152.07L490.289 151.752L491.014 151.644C492.707 151.383 493.154 149.145 491.686 148.254C491.309 148.032 490.893 147.941 490.455 148.01L489.77 148.111L487.512 148.425L486.846 148.508ZM497.657 146.835C496.209 147.114 495.657 148.852 496.673 149.923C497.119 150.37 497.703 150.56 498.328 150.45L499.449 150.248L501.732 149.813L501.98 149.764C502.665 149.619 503.209 149.11 503.387 148.43C503.741 147.12 502.562 145.883 501.236 146.163L498.783 146.632L497.657 146.835ZM508.372 144.64C507.156 144.936 506.581 146.303 507.222 147.377C507.64 148.07 508.436 148.394 509.222 148.215L510.827 147.842L512.815 147.358C513.493 147.186 514.012 146.655 514.165 145.979C514.463 144.64 513.257 143.465 511.927 143.79L509.971 144.268L508.372 144.64ZM518.962 141.918C517.316 142.415 517.173 144.661 518.751 145.37C519.161 145.542 519.574 145.569 520.001 145.447L522.116 144.837L523.55 144.404C525.17 143.914 525.304 141.649 523.753 140.965C523.349 140.785 522.894 140.76 522.472 140.892L521.072 141.312L518.962 141.918ZM529.418 138.663C527.738 139.24 527.767 141.625 529.478 142.162C529.855 142.272 530.233 142.272 530.607 142.142L531.052 141.993L533.272 141.223L534.115 140.919C535.725 140.334 535.715 138.029 534.093 137.457C533.69 137.314 533.253 137.318 532.85 137.465L532.045 137.756L529.861 138.514L529.418 138.663ZM539.678 134.892C537.994 135.578 538.217 138.028 540.004 138.398C540.364 138.466 540.71 138.441 541.053 138.301L542.102 137.887L544.294 136.991L544.495 136.906C545.236 136.584 545.674 135.841 545.602 135.039C545.469 133.797 544.197 133.034 543.047 133.525L540.728 134.476L539.678 134.892ZM549.732 130.606C549.226 130.842 548.874 131.274 548.729 131.812C548.353 133.324 549.865 134.581 551.288 133.938L552.99 133.154L554.637 132.374C555.352 132.031 555.755 131.286 555.669 130.503C555.507 129.241 554.194 128.515 553.046 129.057L551.437 129.822L549.732 130.606ZM559.572 125.803C559.001 126.099 558.624 126.684 558.589 127.327C558.509 128.751 560.006 129.719 561.276 129.061L561.572 128.906L563.702 127.782L564.557 127.315C566.091 126.473 565.674 124.148 563.945 123.886C563.543 123.826 563.144 123.896 562.782 124.094L561.961 124.539L559.874 125.648L559.572 125.803ZM569.136 120.514C568.481 120.909 568.127 121.668 568.267 122.421C568.501 123.679 569.918 124.334 571.019 123.675L572.121 123.027L574.192 121.78C575.507 120.99 575.306 118.99 573.858 118.481C573.335 118.286 572.752 118.355 572.278 118.64L570.243 119.867L569.136 120.514ZM578.421 114.749C577.834 115.153 577.536 115.817 577.627 116.526C577.828 117.873 579.34 118.555 580.475 117.8L582.447 116.489L583.545 115.74C584.999 114.741 584.335 112.453 582.573 112.389C582.176 112.373 581.791 112.486 581.46 112.71L580.395 113.438L578.421 114.749ZM587.417 108.507C585.967 109.586 586.774 111.891 588.586 111.822C588.97 111.8 589.291 111.688 589.601 111.463L590.526 110.786L592.586 109.247C593.14 108.815 593.395 108.132 593.267 107.441C592.992 106.095 591.43 105.507 590.334 106.339L588.342 107.832L587.417 108.507ZM596.094 101.828C595.556 102.272 595.31 102.955 595.451 103.638C595.749 104.988 597.331 105.549 598.409 104.686L600.394 103.056L601.272 102.318C602.513 101.249 601.873 99.236 600.246 99.0869C599.745 99.0482 599.282 99.1895 598.895 99.5148L598.047 100.225L596.094 101.828ZM604.413 94.7427C603.106 95.9216 604.058 98.0977 605.822 97.9331C606.219 97.8983 606.587 97.7298 606.883 97.4646L608.085 96.3844L609.62 94.9789C610.89 93.796 609.961 91.6684 608.228 91.7962C607.795 91.8368 607.442 91.9878 607.121 92.2821L605.617 93.6605L604.413 94.7427ZM612.396 87.2505C611.845 87.8004 611.69 88.6386 612.029 89.3433C612.563 90.4874 614.094 90.7546 614.983 89.8621L615.581 89.2775L617.426 87.4286L617.616 87.2331C618.857 85.9322 617.705 83.8201 615.943 84.1511C615.56 84.2305 615.246 84.3989 614.973 84.6796L614.811 84.8461L612.997 86.664L612.396 87.2505ZM620.024 79.3925C618.746 80.8019 620.148 82.976 621.962 82.3816C622.262 82.2771 622.508 82.1203 622.723 81.8861L622.874 81.7273L624.666 79.7701L625.228 79.1409C626.473 77.6967 625.017 75.5633 623.22 76.1963C622.918 76.3086 622.688 76.4693 622.471 76.7054L621.939 77.3037L620.177 79.2319L620.024 79.3925ZM627.264 71.2074C626.897 71.6526 626.763 72.2276 626.891 72.791C627.224 74.272 629.135 74.723 630.097 73.5518L631.68 71.6584L632.461 70.7079C632.991 70.0439 633.012 69.1069 632.49 68.4293C631.758 67.4865 630.358 67.4749 629.603 68.3925L628.85 69.3101L627.264 71.2074ZM634.151 62.6873C633.109 64.056 634.375 65.9958 636.052 65.5854C636.456 65.4905 636.828 65.2427 637.082 64.9097L638.474 63.0938L639.318 61.969C639.66 61.5102 639.765 60.9159 639.61 60.3661C639.184 58.9044 637.271 58.5559 636.363 59.7775L635.541 60.8713L634.151 62.6873ZM640.661 53.8806C640.266 54.4556 640.224 55.1932 640.555 55.8069C641.203 57.0033 642.911 57.1021 643.683 55.9773L645.017 54.0742L645.795 52.9475C646.665 51.6775 645.648 49.9391 644.115 50.0823C643.565 50.123 643.062 50.4308 642.754 50.8799L641.997 51.9776L640.661 53.8806ZM646.804 44.8107C646.448 45.376 646.425 46.0846 646.742 46.6712C647.41 47.9044 649.162 47.9644 649.909 46.7815L651.319 44.5939L651.901 43.6666C652.821 42.1798 651.334 40.3619 649.685 40.9756C649.303 41.1189 648.994 41.3841 648.775 41.7268L648.21 42.6231L646.804 44.8107ZM652.589 35.4833C651.756 36.8695 653.032 38.5983 654.606 38.2072C655.094 38.0872 655.494 37.7871 655.754 37.3593L655.864 37.1754L657.347 34.6431L657.63 34.1514C658.379 32.7904 657.27 31.1991 655.729 31.4314C655.177 31.5224 654.705 31.8515 654.426 32.3413L654.164 32.8021L652.699 35.3014L652.589 35.4833ZM657.264 27.6505L656.42 28.6901L655.835 29.3909L654.889 30.5138C654.588 30.8661 654.182 31.081 653.721 31.1429C652.062 31.3578 651.005 29.387 652.093 28.1229L652.436 27.7183L653.013 27.0349L653.58 26.3515L654.412 25.3274C655.44 24.0806 657.456 24.6517 657.665 26.2586C657.725 26.7522 657.581 27.2633 657.264 27.6505ZM649.929 36.0661C650.304 35.6653 650.475 35.1291 650.415 34.5851C650.215 33.0305 648.33 32.411 647.255 33.5397L646.911 33.9036L646.258 34.5928L645.594 35.2801L644.738 36.1571C643.586 37.3089 644.407 39.2933 646.047 39.2933C646.55 39.2836 646.992 39.1055 647.346 38.7493L648.237 37.8413L648.914 37.1347L649.588 36.43L649.929 36.0661ZM642.005 43.9241C642.591 43.3743 642.764 42.536 642.431 41.8023C641.906 40.662 640.444 40.3755 639.513 41.2157L638.501 42.143L637.744 42.8264L636.82 43.6453C635.556 44.7352 636.317 46.8377 637.99 46.8686C638.45 46.8783 638.886 46.7176 639.234 46.4156L640.195 45.5658L640.969 44.8688L642.005 43.9241ZM633.541 51.2032C634.821 50.2004 634.232 48.1193 632.612 47.9353C632.116 47.8811 631.647 48.0128 631.258 48.3206L630.521 48.9072L629.677 49.5751L628.819 50.2391L628.393 50.5644C627.851 50.9787 627.58 51.6562 627.692 52.3299C627.919 53.6928 629.52 54.3279 630.618 53.4915L631.063 53.1527L631.938 52.4693L632.807 51.7859L633.541 51.2032ZM624.606 57.8803C626.049 56.8891 625.414 54.626 623.66 54.5292C623.261 54.506 622.856 54.6221 622.523 54.8505L621.612 55.4817L620.667 56.1263L619.515 56.8968C619.118 57.1582 618.849 57.5473 618.739 58.0081C618.363 59.6343 620.146 60.8772 621.534 59.9692L622.727 59.1716L623.693 58.5134L624.606 57.8803ZM615.258 63.9476C616.779 63.0377 616.251 60.7029 614.479 60.5403C614.094 60.5035 613.705 60.5945 613.37 60.7939L612.751 61.1675L611.717 61.7812L610.671 62.393L610.236 62.6427C608.635 63.5701 609.237 66.0074 611.099 66.0771C611.442 66.081 611.763 66.0055 612.058 65.8351L612.515 65.5718L613.583 64.9485L614.638 64.3193L615.258 63.9476ZM605.545 69.4127C606.254 69.0469 606.643 68.2686 606.517 67.4807C606.312 66.2513 604.964 65.5718 603.855 66.1468L603.057 66.565L601.927 67.1438L600.618 67.802C599.427 68.3964 599.228 69.9896 600.239 70.8569C600.808 71.3332 601.569 71.4242 602.239 71.1028L603.592 70.4214L604.746 69.8309L605.545 69.4127ZM595.532 74.2816C596.16 73.999 596.58 73.395 596.617 72.7077C596.69 71.3332 595.281 70.3594 594.026 70.9267L592.493 71.6081L591.262 72.1444L590.696 72.3883C589.965 72.7 589.51 73.4473 589.583 74.2429C589.694 75.4839 590.983 76.2641 592.129 75.7743L592.723 75.5187L593.976 74.9747L595.532 74.2816ZM585.266 78.5717C585.884 78.3316 586.327 77.7838 586.424 77.1256C586.631 75.7414 585.254 74.632 583.946 75.1412L582.345 75.751L581.026 76.2428L580.539 76.4209C579.905 76.6513 579.445 77.2088 579.344 77.8748C579.143 79.2512 580.48 80.3547 581.791 79.8804L582.3 79.6945L583.642 79.1931L585.266 78.5717ZM574.781 82.3081C575.975 81.917 576.44 80.4844 575.697 79.468C575.232 78.8311 574.4 78.562 573.648 78.8079L572.855 79.0673L571.451 79.5165L570.168 79.9172C568.605 80.3896 568.408 82.5462 569.862 83.3032C570.295 83.5297 570.787 83.5703 571.254 83.429L572.56 83.0205L573.987 82.5636L574.781 82.3081ZM564.135 85.5101C565.738 85.0804 565.982 82.8753 564.505 82.1106C564.085 81.8899 563.622 81.8415 563.167 81.9635L561.291 82.4726L559.648 82.9005C558.002 83.3109 557.756 85.5682 559.27 86.3252C559.657 86.5265 560.124 86.573 560.548 86.4665L562.236 86.0232L564.135 85.5101ZM553.356 88.2088C554.049 88.0501 554.587 87.5158 554.746 86.8189C555.042 85.5063 553.857 84.3215 552.547 84.6215L552.098 84.7222L550.522 85.0726L548.977 85.4037C548.22 85.5624 547.649 86.178 547.538 86.9427C547.374 88.2127 548.481 89.2659 549.738 89.0026L551.306 88.6638L552.903 88.3095L553.356 88.2088ZM542.466 90.4332C544.125 90.1429 544.542 87.932 543.099 87.055C542.714 86.8188 542.267 86.7356 541.818 86.8149L540.801 87.0008L539.134 87.2932L538.221 87.448C536.608 87.7307 536.128 89.7711 537.446 90.7507C537.859 91.0411 538.323 91.1534 538.825 91.076L539.758 90.9153L541.446 90.621L542.466 90.4332ZM531.511 92.2124C533.21 91.9762 533.681 89.7169 532.213 88.8225C531.838 88.598 531.433 88.5089 530.998 88.5709L528.86 88.869L527.377 89.0645C525.561 89.3123 525.167 91.7381 526.826 92.5512C527.153 92.7022 527.49 92.7544 527.844 92.7119L529.35 92.5125L531.511 92.2124ZM520.499 93.5734C522.226 93.3953 522.762 91.1186 521.283 90.1912C520.935 89.9686 520.526 89.8738 520.114 89.9164L518.108 90.1196L516.478 90.2764C514.579 90.4739 514.178 93.0313 515.922 93.7979C516.217 93.9218 516.503 93.9644 516.819 93.9393L518.47 93.7785L520.499 93.5734ZM509.447 94.5452C510.082 94.5007 510.657 94.127 510.949 93.5617C511.613 92.2879 510.622 90.7759 509.191 90.8766L506.864 91.0315L505.542 91.1147C503.784 91.2347 503.166 93.4727 504.626 94.4774C504.977 94.704 505.339 94.8065 505.757 94.7853L507.094 94.704L509.447 94.5452ZM498.369 95.1492C500.073 95.0892 500.785 92.9229 499.44 91.8639C499.099 91.5948 498.673 91.4574 498.239 91.4729L497.107 91.5174L494.582 91.5967C492.679 91.6626 492.097 94.189 493.802 95.0776C494.087 95.215 494.358 95.2789 494.675 95.2751L495.227 95.2596L497.239 95.1918L498.369 95.1492ZM487.292 95.4125C488.93 95.3835 489.725 93.4262 488.571 92.2743C488.209 91.9201 487.764 91.7361 487.259 91.7361L484.932 91.7497L483.604 91.7536C482.8 91.7536 482.092 92.2647 481.85 93.0294C481.472 94.2122 482.355 95.4299 483.594 95.4299L484.945 95.428L487.292 95.4125ZM476.203 95.3602C478.009 95.3912 478.777 93.0894 477.316 92.0265C477.002 91.8058 476.671 91.6955 476.288 91.6819L474.391 91.6432L472.623 91.5987C470.873 91.5677 470.06 93.7089 471.401 94.8569C471.727 95.1202 472.098 95.2576 472.518 95.2731L474.305 95.3196L476.203 95.3602ZM465.144 95.0272C465.555 95.0427 465.915 94.9363 466.254 94.7097C467.71 93.6876 467.059 91.4458 465.294 91.3528L463.689 91.2909L461.627 91.2018C460.008 91.1457 459.102 93.01 460.159 94.2451C460.485 94.6285 460.963 94.8511 461.46 94.8762L463.536 94.9653L465.144 95.0272ZM454.09 94.4949C455.846 94.5859 456.721 92.4253 455.401 91.2676C455.087 90.9985 454.725 90.8553 454.309 90.8243L453.32 90.7682L450.652 90.6036C449.967 90.5571 449.314 90.9017 448.956 91.4845C448.251 92.6712 449.03 94.1793 450.408 94.2703L453.103 94.4387L454.09 94.4949ZM443.051 93.7573C444.821 93.8792 445.729 91.7032 444.395 90.532C444.087 90.2668 443.737 90.1254 443.334 90.0906L441.319 89.9299L439.683 89.7963C437.962 89.6492 437.005 91.771 438.26 92.9597C438.577 93.2539 438.943 93.4224 439.375 93.4611L441.024 93.5966L443.051 93.7573ZM432.022 92.7951C433.174 92.9132 434.156 91.9259 434.034 90.774C433.941 89.9009 433.257 89.2233 432.386 89.1342L431.685 89.0665L429.796 88.8748L428.739 88.7625C426.942 88.5767 425.978 90.8185 427.361 91.9975C427.643 92.2337 427.98 92.3808 428.348 92.4195L429.42 92.5357L431.32 92.7254L432.022 92.7951ZM421.013 91.5929C421.777 91.6858 422.525 91.2947 422.873 90.6075C423.452 89.473 422.726 88.0985 421.46 87.9436L420.55 87.8333L418.738 87.6087L417.826 87.4906C417.249 87.4209 416.695 87.6068 416.285 88.0172C415.218 89.111 415.836 90.9288 417.35 91.1379L418.277 91.256L420.101 91.4825L421.013 91.5929ZM410.036 90.139C411.856 90.3907 412.893 88.1488 411.49 86.9156C411.217 86.6872 410.919 86.5556 410.568 86.5014L408.133 86.1413L406.944 85.9593C406.313 85.8625 405.664 86.1025 405.254 86.5943C404.338 87.6978 404.964 89.3704 406.381 89.595L407.585 89.7789L410.036 90.139ZM399.094 88.4102C399.853 88.5418 400.627 88.1759 401.007 87.5042C401.63 86.3929 400.97 85.0068 399.717 84.7861L397.977 84.4841L396.116 84.153C394.469 83.8626 393.321 85.6979 394.314 87.0647C394.604 87.4403 394.984 87.6784 395.448 87.7694L397.338 88.1062L399.094 88.4102ZM388.194 86.3813C389.991 86.7278 391.143 84.5635 389.848 83.2664C389.577 83.0108 389.292 82.854 388.926 82.7785L388.254 82.6449L386.677 82.3216L385.341 82.0409C384.597 81.8861 383.837 82.1997 383.42 82.8366C382.716 83.9149 383.318 85.3746 384.58 85.6379L385.931 85.9225L387.527 86.2497L388.194 86.3813ZM377.357 84.0369C379.105 84.4357 380.336 82.3778 379.15 81.0207C378.888 80.738 378.577 80.5406 378.199 80.4554L377.448 80.2811L375.95 79.9249L374.637 79.6074C373.975 79.4448 373.297 79.6597 372.837 80.1572C371.902 81.193 372.413 82.8405 373.764 83.1793L375.092 83.4987L376.606 83.8588L377.357 84.0369ZM366.599 81.3479C367.704 81.6441 368.806 80.8697 368.907 79.7294C368.984 78.8447 368.407 78.0258 367.553 77.7973L365.78 77.3172L364.03 76.8313C363.302 76.6222 362.543 76.8816 362.075 77.474C361.283 78.5078 361.773 80.0082 363.027 80.3683L364.808 80.86L366.599 81.3479ZM355.928 78.2852C356.608 78.4904 357.322 78.3046 357.812 77.7896C358.745 76.81 358.311 75.1664 357.018 74.7714L356.156 74.5081L354.825 74.0919L353.527 73.6776C352.025 73.1878 350.635 74.7308 351.286 76.1789C351.495 76.6571 351.905 77.0152 352.401 77.1778L353.717 77.5979L355.066 78.02L355.928 78.2852ZM345.381 74.8198C346.924 75.3542 348.341 73.7938 347.658 72.3031C347.433 71.8482 347.088 71.5268 346.606 71.3526L345.801 71.0699L344.552 70.6246L343.172 70.1232C341.635 69.5657 340.197 71.1028 340.855 72.6032C341.068 73.0581 341.418 73.3969 341.892 73.5692L343.306 74.0842L344.572 74.5372L345.381 74.8198ZM334.979 70.9247C336.658 71.5771 338.175 69.7206 337.196 68.2028C336.987 67.8853 336.7 67.6549 336.346 67.5097L334.938 66.9425L333.783 66.4682L332.972 66.1313C331.204 65.4131 329.649 67.4884 330.827 68.9791C331.026 69.223 331.262 69.4011 331.551 69.525L332.379 69.8696L333.554 70.3517L334.979 70.9247ZM324.753 66.5611C325.47 66.8825 326.308 66.7257 326.85 66.1565C327.717 65.2408 327.435 63.7365 326.285 63.2158L324.883 62.5711L323.813 62.0716L322.978 61.6767C322.432 61.4212 321.817 61.4386 321.29 61.729C319.989 62.4627 320.047 64.3502 321.395 64.9949L322.246 65.3995L323.334 65.9067L324.753 66.5611ZM314.741 61.6941C316.353 62.5305 318.076 60.7881 317.203 59.1735C317.017 58.8502 316.781 58.6102 316.45 58.4379L315.587 57.9887L314.601 57.4679L313.227 56.7304C311.726 55.9056 310 57.4292 310.64 59.0303C310.801 59.4291 311.09 59.7504 311.465 59.9576L312.875 60.7165L313.877 61.245L314.741 61.6941ZM305.005 56.3006C306.486 57.1892 308.275 55.7043 307.673 54.0839C307.525 53.6851 307.254 53.3618 306.892 53.1431L306.122 52.6881L305.224 52.148L304.333 51.6059L303.772 51.2594C303.183 50.8954 302.467 50.8935 301.871 51.2342C300.674 51.9466 300.659 53.6406 301.832 54.3821L302.411 54.7402L303.319 55.2958L304.238 55.8456L305.005 56.3006ZM295.592 50.3533C296.107 50.6941 296.711 50.7599 297.288 50.5431C298.67 49.9894 298.878 48.1502 297.652 47.3062L296.69 46.6518L295.883 46.0962L294.663 45.2386C294.076 44.8243 293.304 44.7856 292.679 45.1456C291.515 45.8252 291.445 47.4514 292.533 48.2374L293.786 49.1163L294.611 49.6854L295.592 50.3533ZM286.555 43.8176C287.128 44.2667 287.918 44.3345 288.561 43.986C289.724 43.3549 289.86 41.7345 288.818 40.9195L288.232 40.4645L287.51 39.8954L286.793 39.3262L285.969 38.6602C284.652 37.578 282.681 38.7454 282.995 40.42C283.076 40.8498 283.301 41.2292 283.638 41.508L284.495 42.1991L285.227 42.7819L285.967 43.3607L286.555 43.8176ZM277.971 36.6914C279.179 37.7852 281.125 36.8482 281.036 35.222C281.009 34.7303 280.794 34.285 280.428 33.9539L279.396 33.0266L278.765 32.4516L277.741 31.505C276.455 30.3066 274.384 31.4217 274.672 33.1583C274.748 33.5687 274.922 33.8978 275.226 34.1882L276.281 35.1639L276.926 35.7544L277.971 36.6914ZM269.91 28.9728C270.406 29.48 271.112 29.6561 271.79 29.449C273.093 29.0231 273.499 27.4104 272.555 26.4192L271.714 25.5461L271.168 24.9731C270.799 24.5762 270.425 24.1871 270.059 23.7864C268.952 22.5667 266.896 23.3372 266.865 24.9905C266.855 25.4687 267.025 25.9159 267.347 26.2702L267.943 26.9129L268.499 27.5014L269.056 28.09L269.91 28.9728ZM262.433 20.683C263.438 21.9027 265.461 21.3316 265.666 19.7596C265.742 19.2485 265.585 18.7258 265.256 18.3289C264.478 17.4016 263.715 16.4627 262.96 15.514C261.957 14.2344 259.876 14.821 259.692 16.4433C259.636 16.937 259.77 17.4055 260.077 17.7965C260.852 18.7703 261.636 19.7325 262.433 20.683Z" fill="#31BFD7"/>
<path fill-rule="evenodd" clip-rule="evenodd" d="M459.534 143.225C464.972 141.521 470.76 144.551 472.464 149.987C474.168 155.425 471.138 161.215 465.7 162.917C460.262 164.623 454.473 161.593 452.771 156.155C451.068 150.717 454.096 144.928 459.534 143.225Z" fill="#31BFD7"/>
<path fill-rule="evenodd" clip-rule="evenodd" d="M434.072 145.676C436.85 144.806 439.806 146.353 440.677 149.129C441.546 151.907 440 154.864 437.223 155.733C434.447 156.602 431.491 155.055 430.62 152.279C429.751 149.503 431.297 146.545 434.072 145.676Z" fill="#31BFD7"/>
<path fill-rule="evenodd" clip-rule="evenodd" d="M488.176 145.068C490.952 144.196 493.906 145.745 494.777 148.519C495.645 151.296 494.1 154.254 491.326 155.125C488.546 155.994 485.589 154.447 484.722 151.671C483.851 148.891 485.4 145.939 488.176 145.068Z" fill="#31BFD7"/>
<path fill-rule="evenodd" clip-rule="evenodd" d="M3.49487 -7.50409C3.17544 -8.16618 2.51334 -8.55725 1.78349 -8.54563C0.445747 -8.49723 -0.388638 -7.11884 0.182466 -5.9108L0.831022 -4.53629L1.78544 -2.58097C2.14165 -1.87048 2.88894 -1.47167 3.67687 -1.57234C4.91974 -1.73302 5.64185 -3.09014 5.08236 -4.20911L4.14729 -6.1315L3.49487 -7.50409ZM8.40832 2.26663C7.56231 0.72562 5.23915 1.13798 4.97587 2.88033C4.9236 3.28688 4.98169 3.66633 5.18303 4.03028L6.1897 5.89072L6.95441 7.27494C7.46937 8.1829 8.61158 8.48684 9.50792 7.95058C10.3617 7.42594 10.6443 6.35342 10.1603 5.47644L9.41307 4.12707L8.40832 2.26663ZM13.8135 11.7934C12.9307 10.3241 10.6734 10.7674 10.4178 12.4729C10.3617 12.9105 10.4333 13.3093 10.6598 13.6907L10.8399 13.9907L12.0537 15.9828L12.5996 16.8598C13.0236 17.5296 13.8019 17.8394 14.5743 17.671C15.7998 17.3767 16.3902 15.9693 15.7107 14.8987L15.1841 14.0546L13.9916 12.0954L13.8135 11.7934ZM19.6658 21.0318C18.692 19.6127 16.5025 20.1606 16.3128 21.872C16.2721 22.3114 16.3709 22.7199 16.6167 23.0858L17.0988 23.8079L18.4055 25.7303L18.7037 26.1581C19.5516 27.3294 21.3424 27.1513 21.9057 25.8077C22.1458 25.2037 22.08 24.5765 21.7121 24.0422L21.4353 23.6453L20.1479 21.7519L19.6658 21.0318ZM25.9596 29.9778C24.8251 28.4871 22.4536 29.428 22.6646 31.3058C22.7072 31.6311 22.8214 31.9195 23.017 32.1828L23.8262 33.2747L25.2472 35.1525C25.7137 35.7469 26.5036 36.0044 27.2296 35.7817C28.4628 35.4081 28.939 33.9058 28.1472 32.8894L26.7688 31.0697L25.9596 29.9778ZM23.017 32.1828L28.1472 32.8894L25.2472 35.1525L23.017 32.1828ZM32.6735 38.616C32.205 38.0468 31.4286 37.8164 30.7278 38.0294C29.4675 38.4166 29.0029 39.944 29.8412 40.9643L31.0008 42.3775L32.2011 43.8101C33.2136 44.9833 35.0934 44.4935 35.409 42.9699C35.5135 42.4085 35.3702 41.8742 35.0102 41.4347L33.835 40.0292L32.6735 38.616ZM39.7842 46.9328C39.2924 46.3888 38.5142 46.1952 37.8211 46.4372C36.5725 46.8766 36.1814 48.4332 37.07 49.4127L38.6032 51.1086L39.5596 52.1463C40.8509 53.4995 43.0831 52.3302 42.6997 50.4949C42.6262 50.1697 42.4771 49.8832 42.2506 49.6392L41.3194 48.6306L39.7842 46.9328ZM47.2899 54.9224C46.076 53.7067 44.022 54.6456 44.1478 56.3647C44.1885 56.8081 44.3608 57.1875 44.6725 57.505L44.9803 57.8205L46.6142 59.4603L47.2976 60.1321C47.8571 60.6761 48.6857 60.8077 49.3865 60.4709C50.5287 59.9114 50.7765 58.3897 49.8666 57.5011L49.2084 56.8545L47.5996 55.24L47.2899 54.9224ZM55.1343 62.5501C53.7656 61.3072 51.636 62.612 52.1142 64.3892C52.211 64.728 52.3833 65.0126 52.6428 65.2507L53.2913 65.8567L54.9968 67.417L55.3782 67.7578C55.959 68.2747 56.7857 68.3657 57.471 68.0036C58.5996 67.3919 58.7681 65.8722 57.8195 65.0107L57.4671 64.6932L55.7848 63.1541L55.1343 62.5501ZM63.3195 69.8176C61.9876 68.7258 60.0381 69.8544 60.3265 71.5503C60.4098 71.9917 60.6131 72.3402 60.9538 72.6344L61.9721 73.4979L63.7957 75.0176C65.0541 76.0262 66.8758 75.0776 66.7868 73.4514C66.7384 72.9287 66.5177 72.4931 66.1092 72.1601L64.3378 70.683L63.3195 69.8176ZM71.8144 76.7232C70.376 75.6293 68.382 77.0542 68.9531 78.7694C69.0692 79.1198 69.29 79.416 69.5803 79.6425L70.9917 80.7344L72.5133 81.8882C72.9818 82.2348 73.5529 82.3393 74.1143 82.1864C75.5837 81.7643 75.9361 79.871 74.7222 78.9476L73.2257 77.817L71.8144 76.7232ZM80.6056 83.2473C79.2582 82.3219 77.4751 83.4583 77.7423 85.0709C77.8352 85.5588 78.0927 85.9808 78.5031 86.2635L80.3345 87.5509L81.5348 88.3775C82.0827 88.755 82.799 88.8015 83.3933 88.5053C84.6439 87.8665 84.7698 86.1376 83.6082 85.342L82.437 84.5327L80.6056 83.2473ZM89.6851 89.3939C89.0656 89.0029 88.2951 89.0009 87.6795 89.4017C86.5663 90.1431 86.576 91.7538 87.6931 92.4875L88.0222 92.7005L89.9717 93.9453L90.8235 94.4758C92.3413 95.3857 94.1243 93.9066 93.5067 92.2494C93.3615 91.87 93.1002 91.5641 92.7595 91.3492L91.9386 90.8343L90.0143 89.6069L89.6851 89.3939ZM99.0087 95.1359C98.3563 94.7584 97.5373 94.8126 96.9449 95.2792C95.9305 96.0826 96.037 97.6643 97.156 98.3109L97.8897 98.7426L99.8953 99.9003L100.37 100.169C100.978 100.502 101.649 100.477 102.242 100.125C103.428 99.3757 103.38 97.6507 102.166 96.9596L101.721 96.7098L99.7443 95.5696L99.0087 95.1359ZM108.564 100.479C107.959 100.164 107.246 100.202 106.675 100.586C105.531 101.375 105.626 103.083 106.855 103.733L108.013 104.347L110.142 105.451C111.747 106.258 113.437 104.51 112.582 102.928C112.4 102.599 112.132 102.336 111.794 102.167L109.72 101.091L108.564 100.479ZM118.339 105.412C116.771 104.67 115.133 106.341 115.917 107.905C116.101 108.273 116.403 108.566 116.777 108.742L118.378 109.501L120.12 110.312C120.786 110.616 121.555 110.502 122.103 110.023C123.1 109.148 122.863 107.518 121.655 106.97L119.942 106.175L118.339 105.412ZM128.315 109.928C126.611 109.233 125.059 111.166 126.102 112.681C126.317 112.978 126.561 113.179 126.9 113.322L128.956 114.19L130.307 114.749C131.897 115.398 133.436 113.682 132.617 112.172C132.415 111.799 132.086 111.502 131.691 111.344L130.371 110.8L128.315 109.928ZM138.488 114.023C136.833 113.419 135.364 115.212 136.278 116.716C136.5 117.068 136.802 117.312 137.191 117.465L137.557 117.603L139.727 118.41L140.67 118.751C141.23 118.946 141.82 118.875 142.316 118.545C143.566 117.696 143.324 115.804 141.905 115.287L140.994 114.958L138.854 114.162L138.488 114.023ZM148.809 117.678C148.122 117.452 147.359 117.653 146.873 118.193C145.982 119.18 146.406 120.76 147.667 121.174L148.474 121.44L150.677 122.148L151.2 122.311C152.9 122.828 154.27 120.874 153.211 119.451C152.969 119.136 152.66 118.913 152.28 118.797L151.788 118.642L149.616 117.945L148.809 117.678ZM159.277 120.892C157.747 120.481 156.452 122.022 157.126 123.459C157.352 123.939 157.782 124.287 158.291 124.435L159.542 124.787L161.865 125.424C163.712 125.885 164.961 123.608 163.58 122.299C163.35 122.086 163.09 121.945 162.786 121.866L160.529 121.248L159.277 120.892ZM169.87 123.654C168.438 123.329 167.224 124.719 167.737 126.094C167.969 126.674 168.43 127.098 169.043 127.238L170.747 127.64L172.644 128.068C173.442 128.237 174.226 127.892 174.636 127.186C175.246 126.101 174.652 124.756 173.438 124.479L171.574 124.059L169.87 123.654ZM180.574 125.962C178.743 125.639 177.631 127.896 179.035 129.158C179.304 129.381 179.565 129.513 179.908 129.578L182.063 129.985L183.542 130.248C185.243 130.548 186.382 128.525 185.24 127.224C184.961 126.909 184.587 126.7 184.173 126.628L182.727 126.37L180.574 125.962ZM191.38 127.801C189.561 127.551 188.523 129.791 189.927 131.025C190.201 131.253 190.496 131.387 190.85 131.441L191.181 131.489L193.469 131.812L194.524 131.954C195.26 132.041 195.963 131.702 196.342 131.065C197.012 129.917 196.304 128.488 194.991 128.306L193.969 128.171L191.715 127.851L191.38 127.801ZM202.243 129.16C200.561 128.986 199.558 131.021 200.725 132.254C201.023 132.575 201.443 132.775 201.879 132.819L202.644 132.899L204.944 133.117L205.573 133.171C207.205 133.311 208.19 131.361 207.106 130.13C206.787 129.764 206.353 129.545 205.867 129.505L205.271 129.454L203.008 129.238L202.243 129.16ZM213.15 130.033C211.462 129.944 210.56 132.006 211.774 133.185C212.103 133.501 212.504 133.681 212.959 133.704L214.157 133.774L216.668 133.892C218.371 133.95 219.231 131.832 217.961 130.69C217.628 130.395 217.239 130.231 216.792 130.215L214.352 130.101L213.15 130.033ZM224.088 130.415C223.351 130.415 222.691 130.841 222.394 131.52C221.874 132.724 222.751 134.093 224.071 134.093L225.699 134.11H227.765C229.431 134.11 230.233 132.027 228.986 130.904C228.642 130.595 228.21 130.432 227.747 130.432H225.718L224.088 130.415ZM235.028 130.293C233.232 130.386 232.616 132.711 234.12 133.679C234.449 133.888 234.798 133.981 235.189 133.965L237.249 133.888L238.879 133.806C240.567 133.721 241.249 131.57 239.919 130.527C239.576 130.25 239.125 130.115 238.683 130.136L237.09 130.213L235.028 130.293ZM245.972 129.66C244.174 129.813 243.651 132.192 245.213 133.088C245.542 133.27 245.895 133.355 246.27 133.322L246.483 133.307L248.787 133.104L249.968 132.988C251.716 132.808 252.243 130.504 250.727 129.582C250.388 129.379 249.985 129.29 249.594 129.333L248.448 129.445L246.179 129.644L245.972 129.66ZM256.846 128.508C255.03 128.758 254.647 131.214 256.331 132.006C256.663 132.151 256.974 132.196 257.332 132.153L257.994 132.07L260.289 131.752L261.014 131.644C262.707 131.383 263.154 129.145 261.686 128.254C261.309 128.032 260.893 127.941 260.455 128.01L259.77 128.111L257.512 128.425L256.846 128.508ZM267.657 126.835C266.209 127.114 265.657 128.852 266.673 129.923C267.119 130.37 267.703 130.56 268.328 130.45L269.449 130.248L271.732 129.813L271.98 129.764C272.665 129.619 273.209 129.11 273.387 128.43C273.741 127.12 272.562 125.883 271.236 126.163L268.783 126.632L267.657 126.835ZM278.372 124.64C277.156 124.936 276.581 126.303 277.222 127.377C277.64 128.07 278.436 128.394 279.222 128.215L280.827 127.842L282.815 127.358C283.493 127.186 284.012 126.655 284.165 125.979C284.463 124.64 283.257 123.465 281.927 123.79L279.971 124.268L278.372 124.64ZM288.962 121.918C287.316 122.415 287.173 124.661 288.751 125.37C289.161 125.542 289.574 125.569 290.001 125.447L292.116 124.837L293.55 124.404C295.17 123.914 295.304 121.649 293.753 120.965C293.349 120.785 292.894 120.76 292.472 120.892L291.072 121.312L288.962 121.918ZM299.418 118.663C297.738 119.24 297.767 121.625 299.478 122.162C299.855 122.272 300.233 122.272 300.607 122.142L301.052 121.993L303.272 121.223L304.115 120.919C305.725 120.334 305.715 118.029 304.093 117.457C303.69 117.314 303.253 117.318 302.85 117.465L302.045 117.756L299.861 118.514L299.418 118.663ZM309.678 114.892C307.994 115.578 308.217 118.028 310.004 118.398C310.364 118.466 310.71 118.441 311.053 118.301L312.102 117.887L314.294 116.991L314.495 116.906C315.236 116.584 315.674 115.841 315.602 115.039C315.469 113.797 314.197 113.034 313.047 113.525L310.728 114.476L309.678 114.892ZM319.732 110.606C319.226 110.842 318.874 111.274 318.729 111.812C318.353 113.324 319.865 114.581 321.288 113.938L322.99 113.154L324.637 112.374C325.352 112.031 325.755 111.286 325.669 110.503C325.507 109.241 324.194 108.515 323.046 109.057L321.437 109.822L319.732 110.606ZM329.572 105.803C329.001 106.099 328.624 106.684 328.589 107.327C328.509 108.751 330.006 109.719 331.276 109.061L331.572 108.906L333.702 107.782L334.557 107.315C336.091 106.473 335.674 104.148 333.945 103.886C333.543 103.826 333.144 103.896 332.782 104.094L331.961 104.539L329.874 105.648L329.572 105.803ZM339.136 100.514C338.481 100.909 338.127 101.668 338.267 102.421C338.501 103.679 339.918 104.334 341.019 103.675L342.121 103.027L344.192 101.78C345.507 100.99 345.306 98.9904 343.858 98.4812C343.335 98.2857 342.752 98.3554 342.278 98.64L340.243 99.8674L339.136 100.514ZM348.421 94.7487C347.834 95.1534 347.536 95.8174 347.627 96.5259C347.828 97.8733 349.34 98.5548 350.475 97.7998L352.447 96.4892L353.545 95.7399C354.999 94.741 354.335 92.4527 352.573 92.3888C352.176 92.3733 351.791 92.4856 351.46 92.7102L350.395 93.4381L348.421 94.7487ZM357.417 88.5072C355.967 89.5855 356.774 91.8913 358.586 91.8216C358.97 91.8003 359.291 91.688 359.601 91.4634L360.526 90.7859L362.586 89.2468C363.14 88.8151 363.395 88.1317 363.267 87.4405C362.992 86.095 361.43 85.5065 360.334 86.339L358.342 87.8316L357.417 88.5072ZM366.094 81.8282C365.556 82.2716 365.31 82.9549 365.451 83.6383C365.749 84.9877 367.331 85.5491 368.409 84.6857L370.394 83.0556L371.272 82.318C372.513 81.2494 371.873 79.236 370.246 79.0869C369.745 79.0482 369.282 79.1895 368.895 79.5148L368.047 80.2253L366.094 81.8282ZM374.413 74.7427C373.106 75.9216 374.058 78.0977 375.822 77.9331C376.219 77.8983 376.587 77.7298 376.883 77.4646L378.085 76.3844L379.62 74.9789C380.89 73.796 379.961 71.6684 378.228 71.7962C377.795 71.8368 377.442 71.9878 377.121 72.2821L375.617 73.6605L374.413 74.7427ZM382.396 67.2505C381.845 67.8004 381.69 68.6386 382.029 69.3433C382.563 70.4874 384.094 70.7546 384.983 69.8621L385.581 69.2775L387.426 67.4286L387.616 67.2331C388.857 65.9322 387.705 63.8201 385.943 64.1511C385.56 64.2305 385.246 64.3989 384.973 64.6796L384.811 64.8461L382.997 66.664L382.396 67.2505ZM390.024 59.3925C388.746 60.8019 390.148 62.976 391.962 62.3816C392.262 62.2771 392.508 62.1203 392.723 61.8861L392.874 61.7273L394.666 59.7701L395.228 59.1409C396.473 57.6967 395.017 55.5633 393.22 56.1963C392.918 56.3086 392.688 56.4693 392.471 56.7054L391.939 57.3037L390.177 59.2319L390.024 59.3925ZM397.264 51.2074C396.897 51.6526 396.763 52.2276 396.891 52.791C397.224 54.272 399.135 54.723 400.097 53.5518L401.68 51.6584L402.461 50.7079C402.991 50.0439 403.012 49.1069 402.49 48.4293C401.758 47.4865 400.358 47.4749 399.603 48.3925L398.85 49.3101L397.264 51.2074ZM404.151 42.6873C403.109 44.056 404.375 45.9958 406.052 45.5854C406.456 45.4905 406.828 45.2427 407.082 44.9097L408.474 43.0938L409.318 41.969C409.66 41.5102 409.765 40.9159 409.61 40.3661C409.184 38.9044 407.271 38.5559 406.363 39.7775L405.541 40.8713L404.151 42.6873ZM410.661 33.8806C410.266 34.4556 410.224 35.1932 410.555 35.8069C411.203 37.0033 412.911 37.1021 413.683 35.9773L415.017 34.0742L415.795 32.9475C416.665 31.6775 415.648 29.9391 414.115 30.0823C413.565 30.123 413.062 30.4308 412.754 30.8799L411.997 31.9776L410.661 33.8806ZM416.804 24.8107C416.448 25.376 416.425 26.0846 416.742 26.6712C417.41 27.9044 419.162 27.9644 419.909 26.7815L421.319 24.5939L421.901 23.6666C422.821 22.1798 421.334 20.3619 419.685 20.9756C419.303 21.1189 418.994 21.3841 418.775 21.7268L418.21 22.6231L416.804 24.8107ZM422.589 15.4833C421.756 16.8695 423.032 18.5983 424.606 18.2072C425.094 18.0872 425.494 17.7871 425.754 17.3593L425.864 17.1754L427.347 14.6431L427.63 14.1514C428.379 12.7904 427.27 11.1991 425.729 11.4314C425.177 11.5224 424.705 11.8515 424.426 12.3413L424.164 12.8021L422.699 15.3014L422.589 15.4833ZM427.264 7.65051L426.42 8.6901L425.835 9.39091L424.889 10.5138C424.588 10.8661 424.182 11.081 423.721 11.1429C422.062 11.3578 421.005 9.38704 422.093 8.12287L422.436 7.71826L423.013 7.03488L423.58 6.35148L424.412 5.32737C425.44 4.08062 427.456 4.65173 427.665 6.25856C427.725 6.75223 427.581 7.26332 427.264 7.65051ZM419.929 16.0661C420.304 15.6653 420.475 15.1291 420.415 14.5851C420.215 13.0305 418.33 12.411 417.255 13.5397L416.911 13.9036L416.258 14.5928L415.594 15.2801L414.738 16.1571C413.586 17.3089 414.407 19.2933 416.047 19.2933C416.55 19.2836 416.992 19.1055 417.346 18.7493L418.237 17.8413L418.914 17.1347L419.588 16.43L419.929 16.0661ZM412.005 23.9241C412.591 23.3743 412.764 22.536 412.431 21.8023C411.906 20.662 410.444 20.3755 409.513 21.2157L408.501 22.143L407.744 22.8264L406.82 23.6453C405.556 24.7352 406.317 26.8377 407.99 26.8686C408.45 26.8783 408.886 26.7176 409.234 26.4156L410.195 25.5658L410.969 24.8688L412.005 23.9241ZM403.541 31.2032C404.821 30.2004 404.232 28.1193 402.612 27.9353C402.116 27.8811 401.647 28.0128 401.258 28.3206L400.521 28.9072L399.677 29.5751L398.819 30.2391L398.393 30.5644C397.851 30.9787 397.58 31.6562 397.692 32.3299C397.919 33.6928 399.52 34.3279 400.618 33.4915L401.063 33.1527L401.938 32.4693L402.807 31.7859L403.541 31.2032ZM394.606 37.8803C396.049 36.8891 395.414 34.626 393.66 34.5292C393.261 34.506 392.856 34.6221 392.523 34.8505L391.612 35.4817L390.667 36.1263L389.515 36.8968C389.118 37.1582 388.849 37.5473 388.739 38.0081C388.363 39.6343 390.146 40.8772 391.534 39.9692L392.727 39.1716L393.693 38.5134L394.606 37.8803ZM385.258 43.9476C386.779 43.0377 386.251 40.7029 384.479 40.5403C384.094 40.5035 383.705 40.5945 383.37 40.7939L382.751 41.1675L381.717 41.7812L380.671 42.393L380.236 42.6427C378.635 43.5701 379.237 46.0074 381.099 46.0771C381.442 46.081 381.763 46.0055 382.058 45.8351L382.515 45.5718L383.583 44.9485L384.638 44.3193L385.258 43.9476ZM375.545 49.4127C376.254 49.0469 376.643 48.2686 376.517 47.4807C376.312 46.2513 374.964 45.5718 373.855 46.1468L373.057 46.565L371.927 47.1438L370.618 47.802C369.427 48.3964 369.228 49.9896 370.239 50.8569C370.808 51.3332 371.569 51.4242 372.239 51.1028L373.592 50.4214L374.746 49.8309L375.545 49.4127ZM365.532 54.2816C366.16 53.999 366.58 53.395 366.617 52.7077C366.69 51.3332 365.281 50.3594 364.026 50.9267L362.493 51.6081L361.262 52.1444L360.696 52.3883C359.965 52.7 359.51 53.4473 359.583 54.2429C359.694 55.4839 360.983 56.2641 362.129 55.7743L362.723 55.5187L363.976 54.9747L365.532 54.2816ZM355.266 58.5717C355.884 58.3316 356.327 57.7838 356.424 57.1256C356.631 55.7414 355.254 54.632 353.946 55.1412L352.345 55.751L351.026 56.2428L350.539 56.4209C349.905 56.6513 349.445 57.2088 349.344 57.8748C349.143 59.2512 350.48 60.3547 351.791 59.8804L352.3 59.6945L353.642 59.1931L355.266 58.5717ZM344.781 62.3081C345.975 61.917 346.44 60.4844 345.697 59.468C345.232 58.8311 344.4 58.562 343.648 58.8079L342.855 59.0673L341.451 59.5165L340.168 59.9172C338.605 60.3896 338.408 62.5462 339.862 63.3032C340.295 63.5297 340.787 63.5703 341.254 63.429L342.56 63.0205L343.987 62.5636L344.781 62.3081ZM334.135 65.5101C335.738 65.0804 335.982 62.8753 334.505 62.1106C334.085 61.8899 333.622 61.8415 333.167 61.9635L331.291 62.4726L329.648 62.9005C328.002 63.3109 327.756 65.5682 329.27 66.3252C329.657 66.5265 330.124 66.573 330.548 66.4665L332.236 66.0232L334.135 65.5101ZM323.356 68.2088C324.049 68.0501 324.587 67.5158 324.746 66.8189C325.042 65.5063 323.857 64.3215 322.547 64.6215L322.098 64.7222L320.522 65.0726L318.977 65.4037C318.22 65.5624 317.649 66.178 317.538 66.9427C317.374 68.2127 318.481 69.2659 319.738 69.0026L321.306 68.6638L322.903 68.3095L323.356 68.2088ZM312.466 70.4332C314.125 70.1429 314.542 67.932 313.099 67.055C312.714 66.8188 312.267 66.7356 311.818 66.8149L310.801 67.0008L309.134 67.2932L308.221 67.448C306.608 67.7307 306.128 69.7711 307.446 70.7507C307.859 71.0411 308.323 71.1534 308.825 71.076L309.758 70.9153L311.446 70.621L312.466 70.4332ZM301.511 72.2124C303.21 71.9762 303.681 69.7169 302.213 68.8225C301.838 68.598 301.433 68.5089 300.998 68.5709L298.86 68.869L297.377 69.0645C295.561 69.3123 295.167 71.7381 296.826 72.5512C297.153 72.7022 297.49 72.7544 297.844 72.7119L299.35 72.5125L301.511 72.2124ZM290.499 73.5734C292.226 73.3953 292.762 71.1186 291.283 70.1912C290.935 69.9686 290.526 69.8738 290.114 69.9164L288.108 70.1196L286.478 70.2764C284.579 70.4739 284.178 73.0313 285.922 73.7979C286.217 73.9218 286.503 73.9644 286.819 73.9393L288.47 73.7785L290.499 73.5734ZM279.447 74.5452C280.082 74.5007 280.657 74.127 280.949 73.5617C281.613 72.2879 280.622 70.7759 279.191 70.8766L276.864 71.0315L275.542 71.1147C273.784 71.2347 273.166 73.4727 274.626 74.4774C274.977 74.704 275.339 74.8065 275.757 74.7853L277.094 74.704L279.447 74.5452ZM268.369 75.1492C270.073 75.0892 270.785 72.9229 269.44 71.8639C269.099 71.5948 268.673 71.4574 268.239 71.4729L267.107 71.5174L264.582 71.5967C262.679 71.6626 262.097 74.189 263.802 75.0776C264.087 75.215 264.358 75.2789 264.675 75.2751L265.227 75.2596L267.239 75.1918L268.369 75.1492ZM257.292 75.4125C258.93 75.3835 259.725 73.4262 258.571 72.2743C258.209 71.9201 257.764 71.7361 257.259 71.7361L254.932 71.7497L253.604 71.7536C252.8 71.7536 252.092 72.2647 251.85 73.0294C251.472 74.2122 252.355 75.4299 253.594 75.4299L254.945 75.428L257.292 75.4125ZM246.203 75.3602C248.009 75.3912 248.777 73.0894 247.316 72.0265C247.002 71.8058 246.671 71.6955 246.288 71.6819L244.391 71.6432L242.623 71.5987C240.873 71.5677 240.06 73.7089 241.401 74.8569C241.727 75.1202 242.098 75.2576 242.518 75.2731L244.305 75.3196L246.203 75.3602ZM235.144 75.0272C235.555 75.0427 235.915 74.9363 236.254 74.7097C237.71 73.6876 237.059 71.4458 235.294 71.3528L233.689 71.2909L231.627 71.2018C230.008 71.1457 229.102 73.01 230.159 74.2451C230.485 74.6285 230.963 74.8511 231.46 74.8762L233.536 74.9653L235.144 75.0272ZM224.09 74.4949C225.846 74.5859 226.721 72.4253 225.401 71.2676C225.087 70.9985 224.725 70.8553 224.309 70.8243L223.32 70.7682L220.652 70.6036C219.967 70.5571 219.314 70.9017 218.956 71.4845C218.251 72.6712 219.03 74.1793 220.408 74.2703L223.103 74.4387L224.09 74.4949ZM213.051 73.7573C214.821 73.8792 215.729 71.7032 214.395 70.532C214.087 70.2668 213.737 70.1254 213.334 70.0906L211.319 69.9299L209.683 69.7963C207.962 69.6492 207.005 71.771 208.26 72.9597C208.577 73.2539 208.943 73.4224 209.375 73.4611L211.024 73.5966L213.051 73.7573ZM202.022 72.7951C203.174 72.9132 204.156 71.9259 204.034 70.774C203.941 69.9009 203.257 69.2233 202.386 69.1342L201.685 69.0665L199.796 68.8748L198.739 68.7625C196.942 68.5767 195.978 70.8185 197.361 71.9975C197.643 72.2337 197.98 72.3808 198.348 72.4195L199.42 72.5357L201.32 72.7254L202.022 72.7951ZM191.013 71.5929C191.777 71.6858 192.525 71.2947 192.873 70.6075C193.452 69.473 192.726 68.0985 191.46 67.9436L190.55 67.8333L188.738 67.6087L187.826 67.4906C187.249 67.4209 186.695 67.6068 186.285 68.0172C185.218 69.111 185.836 70.9288 187.35 71.1379L188.277 71.256L190.101 71.4825L191.013 71.5929ZM180.036 70.139C181.856 70.3907 182.893 68.1488 181.49 66.9156C181.217 66.6872 180.919 66.5556 180.568 66.5014L178.133 66.1413L176.944 65.9593C176.313 65.8625 175.664 66.1025 175.254 66.5943C174.338 67.6978 174.964 69.3704 176.381 69.595L177.585 69.7789L180.036 70.139ZM169.094 68.4102C169.853 68.5418 170.627 68.1759 171.007 67.5042C171.63 66.3929 170.97 65.0068 169.717 64.7861L167.977 64.4841L166.116 64.153C164.469 63.8626 163.321 65.6979 164.314 67.0647C164.604 67.4403 164.984 67.6784 165.448 67.7694L167.338 68.1062L169.094 68.4102ZM158.194 66.3813C159.991 66.7278 161.143 64.5635 159.848 63.2664C159.577 63.0108 159.292 62.854 158.926 62.7785L158.254 62.6449L156.677 62.3216L155.341 62.0409C154.597 61.8861 153.837 62.1997 153.42 62.8366C152.716 63.9149 153.318 65.3746 154.58 65.6379L155.931 65.9225L157.527 66.2497L158.194 66.3813ZM147.357 64.0369C149.105 64.4357 150.336 62.3778 149.15 61.0207C148.888 60.738 148.577 60.5406 148.199 60.4554L147.448 60.2811L145.95 59.9249L144.637 59.6074C143.975 59.4448 143.297 59.6597 142.837 60.1572C141.902 61.193 142.413 62.8405 143.764 63.1793L145.092 63.4987L146.606 63.8588L147.357 64.0369ZM136.599 61.3479C137.704 61.6441 138.806 60.8697 138.907 59.7294C138.984 58.8447 138.407 58.0258 137.553 57.7973L135.78 57.3172L134.03 56.8313C133.302 56.6222 132.543 56.8816 132.075 57.474C131.283 58.5078 131.773 60.0082 133.027 60.3683L134.808 60.86L136.599 61.3479ZM125.928 58.2852C126.608 58.4904 127.322 58.3046 127.812 57.7896C128.745 56.81 128.311 55.1664 127.018 54.7714L126.156 54.5081L124.825 54.0919L123.527 53.6776C122.025 53.1878 120.635 54.7308 121.286 56.1789C121.495 56.6571 121.905 57.0152 122.401 57.1778L123.717 57.5979L125.066 58.02L125.928 58.2852ZM115.381 54.8198C116.924 55.3542 118.341 53.7938 117.658 52.3031C117.433 51.8482 117.088 51.5268 116.606 51.3526L115.801 51.0699L114.552 50.6246L113.172 50.1232C111.635 49.5657 110.197 51.1028 110.855 52.6032C111.068 53.0581 111.418 53.3969 111.892 53.5692L113.306 54.0842L114.572 54.5372L115.381 54.8198ZM104.979 50.9247C106.658 51.5771 108.175 49.7206 107.196 48.2028C106.987 47.8853 106.7 47.6549 106.346 47.5097L104.938 46.9425L103.783 46.4682L102.972 46.1313C101.204 45.4131 99.6495 47.4884 100.827 48.9791C101.026 49.223 101.262 49.4011 101.551 49.525L102.379 49.8696L103.554 50.3517L104.979 50.9247ZM94.7535 46.5611C95.4698 46.8825 96.308 46.7257 96.8501 46.1565C97.7174 45.2408 97.4348 43.7365 96.2848 43.2158L94.8832 42.5711L93.8126 42.0716L92.9782 41.6767C92.4323 41.4212 91.8166 41.4386 91.2901 41.729C89.9891 42.4627 90.0472 44.3502 91.3946 44.9949L92.2464 45.3995L93.3344 45.9067L94.7535 46.5611ZM84.7407 41.6941C86.3534 42.5305 88.0764 40.7881 87.2033 39.1735C87.0174 38.8502 86.7812 38.6102 86.4502 38.4379L85.5868 37.9887L84.6014 37.4679L83.2268 36.7304C81.7265 35.9056 79.9996 37.4292 80.6404 39.0303C80.8011 39.4291 81.0896 39.7504 81.4651 39.9576L82.8745 40.7165L83.8773 41.245L84.7407 41.6941ZM75.0049 36.3006C76.4859 37.1892 78.2747 35.7043 77.6726 34.0839C77.5255 33.6851 77.2545 33.3618 76.8924 33.1431L76.1219 32.6881L75.2236 32.148L74.3331 31.6059L73.7717 31.2594C73.1831 30.8954 72.4668 30.8935 71.8706 31.2342C70.6741 31.9466 70.6587 33.6406 71.8318 34.3821L72.4107 34.7402L73.3187 35.2958L74.2382 35.8456L75.0049 36.3006ZM65.5923 30.3533C66.1073 30.6941 66.7113 30.7599 67.2882 30.5431C68.6704 29.9894 68.8776 28.1502 67.6521 27.3062L66.69 26.6518L65.8827 26.0962L64.6631 25.2386C64.0765 24.8243 63.304 24.7856 62.6787 25.1456C61.5152 25.8252 61.4455 27.4514 62.5335 28.2374L63.7861 29.1163L64.6108 29.6854L65.5923 30.3533ZM56.5553 23.8176C57.1283 24.2667 57.9182 24.3345 58.5609 23.986C59.7244 23.3549 59.8599 21.7345 58.8184 20.9195L58.2318 20.4645L57.5097 19.8954L56.7934 19.3262L55.9687 18.6602C54.6522 17.578 52.6815 18.7454 52.9951 20.42C53.0764 20.8498 53.301 21.2292 53.6378 21.508L54.4955 22.1991L55.2272 22.7819L55.9668 23.3607L56.5553 23.8176ZM47.9713 16.6914C49.1793 17.7852 51.125 16.8482 51.0359 15.222C51.0088 14.7303 50.7939 14.285 50.428 13.9539L49.3962 13.0266L48.765 12.4516L47.7409 11.505C46.4555 10.3066 44.384 11.4217 44.6725 13.1583C44.748 13.5687 44.9222 13.8978 45.2261 14.1882L46.2812 15.1639L46.9259 15.7544L47.9713 16.6914ZM39.91 8.97276C40.4056 9.47998 41.1123 9.65614 41.7898 9.44899C43.0927 9.02308 43.4993 7.41045 42.5545 6.41924L41.7143 5.54612L41.1684 4.97309C40.7986 4.57622 40.425 4.1871 40.0591 3.78635C38.9517 2.56671 36.8958 3.33722 36.8648 4.99052C36.8551 5.4687 37.0255 5.91589 37.3468 6.27017L37.9431 6.91291L38.4987 7.50143L39.0563 8.08997L39.91 8.97276ZM32.4334 0.683025C33.4382 1.90267 35.4612 1.33157 35.6664 -0.240417C35.7419 -0.751507 35.5851 -1.27421 35.256 -1.67108C34.4778 -2.5984 33.715 -3.53734 32.96 -4.48595C31.9572 -5.76561 29.876 -5.17901 29.6921 -3.55669C29.636 -3.06302 29.7695 -2.59453 30.0774 -2.20347C30.8517 -1.22969 31.6358 -0.267525 32.4334 0.683025Z" fill="#31BFD7"/>
<path fill-rule="evenodd" clip-rule="evenodd" d="M229.534 123.225C234.972 121.521 240.76 124.551 242.464 129.987C244.168 135.425 241.138 141.215 235.7 142.917C230.262 144.623 224.473 141.593 222.771 136.155C221.068 130.717 224.096 124.928 229.534 123.225Z" fill="#31BFD7"/>
<path fill-rule="evenodd" clip-rule="evenodd" d="M204.072 125.676C206.85 124.806 209.806 126.353 210.677 129.129C211.546 131.907 210 134.864 207.223 135.733C204.447 136.602 201.491 135.055 200.62 132.279C199.751 129.503 201.297 126.545 204.072 125.676Z" fill="#31BFD7"/>
<path fill-rule="evenodd" clip-rule="evenodd" d="M258.176 125.068C260.952 124.196 263.906 125.745 264.777 128.519C265.645 131.296 264.1 134.254 261.326 135.125C258.546 135.994 255.589 134.447 254.722 131.671C253.851 128.891 255.4 125.939 258.176 125.068Z" fill="#31BFD7"/>
<path fill-rule="evenodd" clip-rule="evenodd" d="M394.155 -51.6085C393.716 -53.3586 391.277 -53.498 390.644 -51.7982C390.518 -51.4439 390.496 -51.0916 390.586 -50.7257C390.882 -49.5332 391.18 -48.3406 391.478 -47.15C391.658 -46.4298 392.256 -45.8897 392.992 -45.7774C394.289 -45.5877 395.363 -46.7725 395.044 -48.0444C394.746 -49.2331 394.452 -50.4198 394.155 -51.6085ZM689.409 -47.6263C689.827 -49.297 687.962 -50.5747 686.561 -49.5854C686.203 -49.326 685.963 -48.9814 685.85 -48.5536C685.544 -47.3765 685.229 -46.1975 684.909 -45.0243C684.739 -44.3913 684.902 -43.7408 685.353 -43.2646C686.356 -42.2385 688.059 -42.6683 688.456 -44.0486C688.779 -45.2373 689.099 -46.4298 689.409 -47.6263ZM686.418 -36.9398C686.598 -37.5264 686.462 -38.1692 686.071 -38.6396C685.13 -39.7702 683.32 -39.3985 682.894 -37.9949C682.544 -36.8275 682.191 -35.6621 681.829 -34.4967C681.483 -33.3603 682.251 -32.2219 683.436 -32.1174C684.305 -32.0535 685.072 -32.5723 685.337 -33.4029C685.705 -34.578 686.063 -35.757 686.418 -36.9398ZM683.078 -26.3638C683.657 -28.1235 681.578 -29.5406 680.145 -28.3481C679.88 -28.1197 679.704 -27.8525 679.589 -27.5253C679.206 -26.3676 678.817 -25.2138 678.42 -24.058C678.186 -23.3766 678.374 -22.6061 678.904 -22.1144C679.882 -21.2122 681.462 -21.6033 681.897 -22.8616C682.296 -24.029 682.693 -25.1964 683.078 -26.3638ZM679.431 -15.8941C680.052 -17.6113 678.064 -19.0885 676.6 -18.0005C676.318 -17.7894 676.099 -17.4971 675.979 -17.1622C675.561 -16.0181 675.135 -14.872 674.705 -13.7298C674.115 -12.1094 675.824 -10.6477 677.332 -11.4783C677.715 -11.7009 677.987 -12.0165 678.149 -12.4308C678.581 -13.5846 679.005 -14.7403 679.431 -15.8941ZM675.472 -5.54264C676.173 -7.34888 674.004 -8.88602 672.525 -7.58506C672.316 -7.39147 672.165 -7.17658 672.061 -6.91136C671.608 -5.78077 671.149 -4.65017 670.684 -3.52345C669.993 -1.82563 671.927 -0.272999 673.435 -1.3126C673.724 -1.51588 673.948 -1.79078 674.082 -2.11989C674.55 -3.25436 675.015 -4.39656 675.472 -5.54264ZM671.191 4.69077C671.929 2.991 669.987 1.38805 668.454 2.44314C668.171 2.64254 667.968 2.89421 667.825 3.20783C667.335 4.32487 666.841 5.43997 666.342 6.55508C666.09 7.11069 666.133 7.76892 666.458 8.28775C667.238 9.5287 669.087 9.40286 669.693 8.06706C670.2 6.94421 670.696 5.81942 671.191 4.69077ZM666.582 14.777C666.863 14.1827 666.814 13.5167 666.454 12.965C665.662 11.7783 663.881 11.9022 663.266 13.1896C662.741 14.2872 662.207 15.383 661.668 16.4729C661.341 17.1331 661.446 17.9443 661.932 18.4979C662.801 19.4853 664.379 19.2801 664.965 18.1049C665.511 16.9995 666.051 15.8902 666.582 14.777ZM661.612 24.7026C661.936 24.0831 661.889 23.3359 661.477 22.7686C660.675 21.6651 658.999 21.7832 658.362 22.9893C657.797 24.0677 657.222 25.1421 656.643 26.2146C656.312 26.8206 656.356 27.5504 656.738 28.1215C657.524 29.2618 659.212 29.1766 659.876 27.9667L660.826 26.1972L661.612 24.7026ZM656.261 34.4346C657.134 32.9304 655.603 31.161 653.989 31.8076C653.605 31.9624 653.288 32.2374 653.079 32.5936L652.357 33.8403L651.809 34.7734L651.236 35.7395C650.332 37.2456 651.863 39.0461 653.493 38.3937C653.872 38.2349 654.172 37.9929 654.383 37.6386L654.974 36.6436L655.53 35.6988L656.261 34.4346ZM650.496 43.9324C651.481 42.3759 649.826 40.5 648.157 41.2801C647.836 41.437 647.596 41.648 647.399 41.948L646.665 43.0941L646.069 44.0118L645.416 45.0049C645.002 45.6244 645.002 46.4259 645.414 47.0454C646.146 48.1315 647.745 48.1373 648.475 47.0473L649.149 46.0232L649.751 45.094L650.496 43.9324ZM644.276 53.1552C645.23 51.8407 644.092 50.0074 642.477 50.2746C641.988 50.3578 641.573 50.6172 641.285 51.0199L640.489 52.1292L639.844 53.0159L639.148 53.9625C638.125 55.3332 639.359 57.2362 641.043 56.8549C641.475 56.7445 641.821 56.5238 642.092 56.1676L642.812 55.1899L643.469 54.2858L644.276 53.1552ZM637.562 62.0432C638.66 60.6667 637.397 58.6843 635.684 59.1044C635.278 59.2148 634.966 59.4084 634.699 59.7355L633.822 60.8197L633.129 61.6657L632.397 62.5446C631.286 63.8978 632.447 65.8589 634.159 65.5376C634.579 65.4505 634.921 65.2472 635.202 64.9219L635.965 64.0062L636.671 63.1428L637.562 62.0432ZM630.31 70.511C631.489 69.2139 630.376 67.1676 628.637 67.4561C628.229 67.5316 627.888 67.7174 627.604 68.0214L626.661 69.0455L625.917 69.8393L625.127 70.6678C624.014 71.8352 624.787 73.7285 626.403 73.7886C626.918 73.7982 627.4 73.6027 627.762 73.2329L628.591 72.3637L629.352 71.5506L630.31 70.511ZM622.477 78.4677C623.712 77.2887 622.845 75.227 621.134 75.2909C620.686 75.3141 620.289 75.4786 619.96 75.7865L618.99 76.6905L618.195 77.4185L617.293 78.2277C616.193 79.2073 616.609 80.9767 618.03 81.3852C618.646 81.5381 619.238 81.4104 619.722 80.9922L620.667 80.1404L621.484 79.3912L622.477 78.4677ZM614.023 85.7856C615.295 84.7925 614.731 82.7326 613.117 82.5197C612.608 82.4635 612.147 82.5855 611.74 82.9011L610.809 83.6348L609.961 84.2853L608.877 85.1003C608.385 85.4681 608.116 86.0199 608.128 86.6336C608.182 88.1223 609.849 88.9354 611.055 88.0662L611.314 87.8726L612.191 87.2105L613.066 86.5368L614.023 85.7856ZM604.914 92.3349C605.541 91.9381 605.876 91.1889 605.739 90.4571C605.501 89.1735 604.051 88.5289 602.943 89.2316L602.109 89.7679L601.211 90.3293L600.307 90.883L599.873 91.1424C599.275 91.5025 598.934 92.1413 598.975 92.8383C599.075 94.2186 600.551 95.0007 601.745 94.3077L602.214 94.0289L603.149 93.4539L604.08 92.8693L604.914 92.3349ZM595.184 97.9259C595.809 97.6123 596.208 96.9812 596.208 96.2785C596.208 94.9175 594.77 94.0231 593.556 94.629L592.878 94.9678L591.924 95.4324L590.966 95.8874L590.294 96.1971C588.883 96.836 588.852 98.8242 590.247 99.5211C590.755 99.7593 591.301 99.7767 591.816 99.5463L592.522 99.2192L593.517 98.7468L594.507 98.2628L595.184 97.9259ZM584.877 102.4C586.443 101.829 586.517 99.6547 584.968 98.9752C584.519 98.7971 584.091 98.7797 583.634 98.9384L583.104 99.132L582.097 99.4883L581.083 99.8309L580.219 100.112C579.654 100.297 579.23 100.712 579.034 101.275C578.556 102.715 579.892 104.055 581.334 103.618L582.24 103.321L583.295 102.963L584.345 102.595L584.877 102.4ZM574.094 105.608C574.789 105.451 575.327 104.913 575.484 104.218C575.782 102.905 574.593 101.722 573.285 102.022L572.777 102.141L571.713 102.375L570.642 102.594L569.752 102.766C569.024 102.905 568.47 103.44 568.298 104.158C568.003 105.459 569.117 106.611 570.427 106.38L571.36 106.2L572.475 105.97L573.587 105.73L574.094 105.608ZM562.993 107.464C564.033 107.358 564.768 106.44 564.643 105.403C564.505 104.408 563.646 103.718 562.645 103.805L561.878 103.883L560.757 103.985L559.629 104.071L559.05 104.109C557.152 104.237 556.653 106.765 558.372 107.61C558.655 107.741 558.949 107.797 559.263 107.78L559.888 107.741L561.063 107.65L562.232 107.546L562.993 107.464ZM551.769 107.952C553.515 107.983 554.314 105.782 552.957 104.682C552.632 104.425 552.255 104.282 551.838 104.274L551.561 104.272L550.386 104.243L549.202 104.198L548.234 104.15C547.542 104.115 546.902 104.454 546.545 105.048C545.845 106.229 546.654 107.751 548.024 107.823L549.041 107.873L550.27 107.921L551.492 107.95L551.769 107.952ZM540.637 107.308C542.356 107.457 543.312 105.335 542.06 104.146C541.742 103.856 541.378 103.682 540.947 103.647L539.729 103.54L538.573 103.436L537.319 103.314C535.602 103.136 534.606 105.221 535.834 106.45C536.14 106.746 536.513 106.928 536.939 106.973L538.229 107.098L539.402 107.205L540.637 107.308ZM529.579 106.119C530.189 106.204 530.787 105.974 531.197 105.517C532.171 104.409 531.526 102.675 530.067 102.473L528.464 102.257L527.372 102.102L526.452 101.968C524.89 101.751 523.8 103.412 524.619 104.76C524.911 105.221 525.37 105.521 525.906 105.604L526.843 105.741L527.953 105.9L529.579 106.119ZM518.59 104.377C519.293 104.514 520.004 104.222 520.426 103.645C521.206 102.545 520.594 101.018 519.272 100.764L517.845 100.493L516.819 100.29L515.704 100.063C514.941 99.9006 514.147 100.241 513.747 100.913C513.094 101.993 513.706 103.401 514.941 103.66L516.095 103.894L517.142 104.102L518.59 104.377ZM507.697 102.005C508.378 102.177 509.077 101.957 509.54 101.432C510.436 100.383 509.939 98.801 508.607 98.4428L507.844 98.2512L506.876 98.0034L505.916 97.7478L505.083 97.5194C503.296 97.0412 501.993 99.1862 503.261 100.555C503.5 100.807 503.778 100.971 504.109 101.066L504.963 101.298L505.945 101.558L506.934 101.813L507.697 102.005ZM496.975 98.9326C498.675 99.4902 500.092 97.5213 499.024 96.0849C498.799 95.7829 498.484 95.5564 498.125 95.4382L497.529 95.2427L496.625 94.9446L495.727 94.6387L494.685 94.2747C494 94.0386 493.272 94.1993 492.757 94.7142C491.816 95.6822 492.176 97.2755 493.444 97.7382L494.532 98.1176L495.452 98.4274L496.377 98.7371L496.975 98.9326ZM486.483 95.0878C487.062 95.324 487.679 95.2679 488.202 94.9291C489.433 94.1102 489.261 92.2749 487.906 91.698L487.056 91.3457L486.219 90.9914L485.387 90.6313L484.562 90.2673C484.005 90.0195 483.35 90.0641 482.835 90.3893C481.594 91.1714 481.72 93.0183 483.056 93.6243L483.921 94.0037L484.775 94.3716L485.637 94.7355L486.483 95.0878ZM476.327 90.4145C477.883 91.2218 479.587 89.5917 478.836 87.9926C478.667 87.6325 478.377 87.3363 478.025 87.1505L477.36 86.8097L476.586 86.4032L475.818 85.9928L474.824 85.4546C473.204 84.564 471.427 86.3335 472.331 87.9694C472.494 88.2578 472.745 88.5076 473.036 88.6644L474.073 89.2316L474.867 89.6536L475.667 90.0699L476.327 90.4145ZM466.61 84.8777C467.284 85.3036 468.13 85.2455 468.751 84.7538C469.727 83.96 469.64 82.4442 468.577 81.7685L467.673 81.1936L466.963 80.7309L466.256 80.2662L465.553 79.7977C465.098 79.4841 464.529 79.3951 464.004 79.5461C462.508 79.9855 462.196 81.9525 463.474 82.8314L464.221 83.3308L464.949 83.809L465.685 84.2833L466.61 84.8777ZM457.42 78.4755C458.895 79.5964 460.913 78.1057 460.26 76.3595C460.134 76.0362 459.941 75.7768 459.668 75.5658L458.779 74.8766L458.127 74.3616L457.48 73.8428L456.836 73.3201L454.487 76.1504L455.169 76.706L455.839 77.2404L456.51 77.7689L457.42 78.4755ZM456.836 73.3201L454.489 76.1504C453.442 75.2909 453.674 73.6124 454.905 73.0587C455.546 72.7664 456.297 72.8767 456.836 73.3201ZM448.865 71.2563C450.191 72.4547 452.251 71.297 451.922 69.5547C451.841 69.1655 451.661 68.8326 451.368 68.5615L450.629 67.8704L450.029 67.3031L449.434 66.732L448.751 66.0661C447.555 64.8697 445.495 65.8144 445.623 67.5084C445.655 67.9517 445.843 68.3602 446.159 68.6757L446.877 69.3765L447.487 69.9631L448.104 70.5497L448.865 71.2563ZM441.005 63.2919C442.091 64.4902 444.083 63.8049 444.204 62.1865C444.231 61.6792 444.076 61.2068 443.733 60.8274L443.158 60.1886L442.612 59.569L442.068 58.9457L441.344 58.1055C440.274 56.8665 438.26 57.5073 438.111 59.1315C438.07 59.6426 438.214 60.0859 438.539 60.4828L439.29 61.3578L439.852 61.9967L440.415 62.6337L441.005 63.2919ZM433.854 54.6847C434.894 56.0495 437.064 55.3835 437.157 53.6644C437.172 53.2211 437.054 52.8242 436.787 52.466L436.32 51.8524L435.819 51.1845L435.321 50.5107L434.619 49.5505C433.573 48.1063 431.287 48.8419 431.287 50.6346C431.293 51.0238 431.405 51.3819 431.633 51.6975L432.361 52.6926L432.872 53.3837L433.385 54.0671L433.854 54.6847ZM427.415 45.5644C428.427 47.1151 430.834 46.3794 430.797 44.5171C430.784 44.1686 430.691 43.8666 430.503 43.5723L430.058 42.8831L429.597 42.1668L429.142 41.4447L428.551 40.5019C427.589 38.9822 425.282 39.5552 425.15 41.3556C425.129 41.7448 425.222 42.0952 425.419 42.4282L426.029 43.4039L426.497 44.1395L426.966 44.8733L427.415 45.5644ZM421.644 36.0318C422.544 37.6173 424.947 37.0811 425.082 35.2497C425.103 34.8799 425.028 34.5547 424.85 34.2333L424.321 33.2866C423.911 32.5394 423.502 31.7921 423.096 31.0409C422.221 29.4496 419.845 29.92 419.646 31.7243C419.611 32.098 419.679 32.4445 419.855 32.7794L420.676 34.2933L421.106 35.0735L421.644 36.0318ZM416.467 26.1682C417.329 27.8892 419.89 27.3413 419.96 25.4035C419.965 25.1073 419.904 24.8285 419.774 24.5633C419.243 23.4714 418.713 22.3756 418.2 21.2721C417.952 20.7475 417.495 20.3816 416.93 20.2538C415.43 19.9402 414.235 21.429 414.866 22.8248L415.354 23.8644C415.724 24.6349 416.096 25.4015 416.467 26.1682ZM411.827 16.0664C412.15 16.8059 412.892 17.2454 413.695 17.1718C414.938 17.0382 415.697 15.7682 415.207 14.6164C414.725 13.4993 414.251 12.3784 413.786 11.2536C413.534 10.6361 412.953 10.2005 412.293 10.1269C410.901 9.97202 409.86 11.3582 410.386 12.6533C410.859 13.7936 411.339 14.9319 411.827 16.0664ZM407.645 5.77684C408.23 7.27913 410.293 7.37399 411.018 5.9259C411.24 5.45353 411.265 4.95987 411.083 4.46813C410.646 3.3298 410.218 2.18758 409.792 1.04343C409.517 0.28648 408.751 -0.21492 407.949 -0.158779C406.716 -0.0677872 405.92 1.15379 406.342 2.31536C406.772 3.47306 407.206 4.62689 407.645 5.77684ZM403.856 -4.6463C404.104 -3.93 404.764 -3.4344 405.525 -3.40536C406.813 -3.3589 407.755 -4.62114 407.333 -5.84079C406.937 -6.99268 406.544 -8.14843 406.16 -9.30419C405.636 -10.9072 403.376 -11.0001 402.722 -9.44164C402.546 -9.02541 402.528 -8.57627 402.672 -8.14843C403.059 -6.97911 403.454 -5.81368 403.856 -4.6463ZM400.401 -15.1759C400.964 -13.4471 403.372 -13.4626 403.916 -15.1972C404.021 -15.5612 404.019 -15.9096 403.911 -16.2717C403.547 -17.4352 403.185 -18.6026 402.828 -19.7699C402.315 -21.4639 399.926 -21.5219 399.334 -19.8435C399.206 -19.4776 399.199 -19.0769 399.311 -18.7052C399.667 -17.5281 400.031 -16.351 400.401 -15.1759ZM397.216 -25.781C397.369 -25.2467 397.758 -24.8111 398.269 -24.5962C399.692 -23.9961 401.173 -25.3183 400.751 -26.7974C400.412 -27.9687 400.077 -29.1438 399.746 -30.3208C399.262 -32.0148 396.918 -32.1368 396.266 -30.4989C396.118 -30.104 396.095 -29.742 396.204 -29.3316C396.541 -28.1487 396.874 -26.9639 397.216 -25.781ZM394.254 -36.4462C394.405 -35.8847 394.808 -35.4298 395.346 -35.213C396.748 -34.6535 398.198 -35.9351 397.807 -37.3928C397.489 -38.5738 397.177 -39.7566 396.866 -40.9395C396.426 -42.5851 394.202 -42.8135 393.433 -41.2763C393.246 -40.8756 393.195 -40.44 393.309 -40.0083C393.623 -38.8216 393.937 -37.6348 394.254 -36.4462Z" fill="#31BFD7"/>
<path fill-rule="evenodd" clip-rule="evenodd" d="M495.614 109.209C501.532 109.083 506.256 104.152 506.128 98.2339C506.002 92.3158 501.072 87.592 495.153 87.7198C489.233 87.8457 484.511 92.7765 484.639 98.6947C484.765 104.613 489.696 109.335 495.614 109.209Z" fill="#31BFD7"/>
<path fill-rule="evenodd" clip-rule="evenodd" d="M469.208 93.7638C472.228 93.698 474.641 91.1832 474.577 88.1592C474.511 85.1372 471.994 82.7231 468.972 82.7889C465.948 82.8528 463.538 85.3734 463.602 88.3954C463.668 91.4174 466.184 93.8296 469.208 93.7638Z" fill="#31BFD7"/>
<path fill-rule="evenodd" clip-rule="evenodd" d="M523.513 108.837C526.535 108.773 528.945 106.254 528.881 103.232C528.816 100.21 526.299 97.7983 523.277 97.8641C520.255 97.9299 517.845 100.449 517.908 103.469C517.974 106.491 520.491 108.903 523.513 108.837Z" fill="#31BFD7"/>
<path fill-rule="evenodd" clip-rule="evenodd" d="M488.898 92.6583C489.958 90.7379 492.723 89.2453 495.071 89.3285C497.422 89.4118 498.465 91.036 497.402 92.9584C496.341 94.8808 493.575 96.3696 491.228 96.2863C488.878 96.207 487.835 94.5807 488.898 92.6583Z" fill="white"/>
</svg>
