<svg width="203" height="66" viewBox="0 0 203 66" fill="none" xmlns="http://www.w3.org/2000/svg">
<g filter="url(#filter0_dd_364_661)">
<rect width="202.772" height="61.6304" rx="12.1739" fill="#841A1B"/>
</g>
<rect x="1.90234" y="2.28247" width="198.967" height="57.0652" rx="11.413" fill="#F4C790"/>
<rect x="3.23416" y="3.23367" width="196.304" height="55.163" rx="11.2228" stroke="#891B1A" stroke-width="0.380435" stroke-linecap="round" stroke-linejoin="round" stroke-dasharray="0.38 1.9"/>
<rect x="4.18359" y="4.18506" width="194.402" height="53.2609" rx="10.6522" fill="#891B1A"/>
<g filter="url(#filter1_n_364_661)">
<path d="M188.299 6.46753C188.816 6.46753 189.183 6.97594 189.119 7.48918C189.09 7.71528 189.075 7.94563 189.075 8.17944C189.075 11.226 191.545 13.696 194.592 13.696C194.826 13.696 195.056 13.6813 195.282 13.6527C195.795 13.588 196.304 13.9549 196.304 14.4721V47.1583C196.304 47.6756 195.795 48.0426 195.282 47.9783C195.056 47.9499 194.826 47.9353 194.592 47.9353C191.545 47.9353 189.075 50.4054 189.075 53.4519C189.075 53.6857 189.09 53.9161 189.119 54.1422C189.183 54.6554 188.816 55.1638 188.299 55.1638H14.4715C13.9542 55.1638 13.5873 54.6554 13.652 54.1422C13.6805 53.9161 13.6953 53.6857 13.6953 53.4519C13.6953 50.4054 11.2252 47.9354 8.17871 47.9353C7.94493 47.9353 7.71457 47.9499 7.48846 47.9783C6.97521 48.0427 6.4668 47.6756 6.4668 47.1583V14.4721C6.4668 13.9548 6.97517 13.588 7.48839 13.6527C7.71449 13.6813 7.94487 13.696 8.17871 13.696C11.2252 13.696 13.6953 11.226 13.6953 8.17944C13.6953 7.94564 13.6805 7.71528 13.652 7.48918C13.5873 6.97594 13.9542 6.46753 14.4715 6.46753H188.299Z" fill="#891B1A"/>
</g>
<g filter="url(#filter2_n_364_661)">
<mask id="path-6-inside-1_364_661" fill="white">
<path d="M188.299 6.46753C188.816 6.46753 189.183 6.97594 189.119 7.48918C189.09 7.71528 189.075 7.94563 189.075 8.17944C189.075 11.226 191.545 13.696 194.592 13.696C194.826 13.696 195.056 13.6813 195.282 13.6527C195.795 13.588 196.304 13.9549 196.304 14.4721V47.1583C196.304 47.6756 195.795 48.0426 195.282 47.9783C195.056 47.9499 194.826 47.9353 194.592 47.9353C191.545 47.9353 189.075 50.4054 189.075 53.4519C189.075 53.6857 189.09 53.9161 189.119 54.1422C189.183 54.6554 188.816 55.1638 188.299 55.1638H14.4715C13.9542 55.1638 13.5873 54.6554 13.652 54.1422C13.6805 53.9161 13.6953 53.6857 13.6953 53.4519C13.6953 50.4054 11.2252 47.9354 8.17871 47.9353C7.94493 47.9353 7.71457 47.9499 7.48846 47.9783C6.97521 48.0427 6.4668 47.6756 6.4668 47.1583V14.4721C6.4668 13.9548 6.97517 13.588 7.48839 13.6527C7.71449 13.6813 7.94487 13.696 8.17871 13.696C11.2252 13.696 13.6953 11.226 13.6953 8.17944C13.6953 7.94564 13.6805 7.71528 13.652 7.48918C13.5873 6.97594 13.9542 6.46753 14.4715 6.46753H188.299Z"/>
</mask>
<path d="M189.075 8.17944L188.314 8.17939V8.17944H189.075ZM194.592 13.696L194.592 14.4569H194.592V13.696ZM194.592 47.9353L194.592 47.1744L194.592 47.1744L194.592 47.9353ZM189.075 53.4519L188.314 53.4519L188.314 53.452L189.075 53.4519ZM13.6953 53.4519L14.4562 53.452V53.4519H13.6953ZM8.17871 47.9353L8.17873 47.1744H8.17871V47.9353ZM8.17871 13.696L8.17871 14.4569L8.17873 14.4569L8.17871 13.696ZM13.6953 8.17944L14.4562 8.17944L14.4562 8.17939L13.6953 8.17944ZM7.48839 13.6527L7.39314 14.4076L7.48839 13.6527ZM189.119 54.1422L189.873 54.0469L189.119 54.1422ZM13.652 7.48918L12.8971 7.58441L13.652 7.48918ZM195.282 47.9783L195.377 47.2233L195.282 47.9783ZM13.652 54.1422L12.8971 54.0469L13.652 54.1422ZM195.282 13.6527L195.187 12.8978L195.282 13.6527ZM7.48846 47.9783L7.58312 48.7333L7.48846 47.9783ZM189.119 7.48918L189.873 7.58441L189.119 7.48918ZM189.119 7.48918L188.364 7.39396C188.331 7.65137 188.314 7.91351 188.314 8.17939L189.075 8.17944L189.836 8.1795C189.836 7.97776 189.849 7.77919 189.873 7.58441L189.119 7.48918ZM189.075 8.17944H188.314C188.314 11.6462 191.125 14.4569 194.592 14.4569L194.592 13.696L194.592 12.9352C191.965 12.9351 189.836 10.8058 189.836 8.17944H189.075ZM194.592 13.696V14.4569C194.858 14.4569 195.12 14.4401 195.377 14.4076L195.282 13.6527L195.187 12.8978C194.992 12.9224 194.794 12.9352 194.592 12.9352V13.696ZM196.304 14.4721H195.543V47.1583H196.304H197.065V14.4721H196.304ZM195.282 47.9783L195.377 47.2233C195.119 47.1911 194.857 47.1744 194.592 47.1744V47.9353V48.6962C194.794 48.6962 194.993 48.7088 195.187 48.7333L195.282 47.9783ZM194.592 47.9353L194.592 47.1744C191.125 47.1745 188.314 49.9851 188.314 53.4519H189.075H189.836C189.836 50.8256 191.965 48.6962 194.592 48.6962L194.592 47.9353ZM189.075 53.4519L188.314 53.452C188.314 53.7178 188.331 53.98 188.364 54.2374L189.119 54.1422L189.873 54.0469C189.849 53.8522 189.836 53.6536 189.836 53.4519L189.075 53.4519ZM188.299 55.1638V54.4029H14.4715V55.1638V55.9247H188.299V55.1638ZM13.652 54.1422L14.4069 54.2374C14.4394 53.98 14.4562 53.7178 14.4562 53.452L13.6953 53.4519L12.9344 53.4519C12.9344 53.6536 12.9217 53.8522 12.8971 54.0469L13.652 54.1422ZM13.6953 53.4519H14.4562C14.4562 49.9851 11.6454 47.1745 8.17873 47.1744L8.17871 47.9353L8.1787 48.6962C10.805 48.6962 12.9344 50.8256 12.9344 53.4519H13.6953ZM8.17871 47.9353V47.1744C7.91313 47.1744 7.65115 47.1911 7.3938 47.2233L7.48846 47.9783L7.58312 48.7333C7.77798 48.7088 7.97673 48.6962 8.17871 48.6962V47.9353ZM6.4668 47.1583H7.22767V14.4721H6.4668H5.70593V47.1583H6.4668ZM7.48839 13.6527L7.39314 14.4076C7.65057 14.4401 7.91276 14.4569 8.17871 14.4569V13.696V12.9352C7.97698 12.9352 7.77842 12.9224 7.58363 12.8978L7.48839 13.6527ZM8.17871 13.696L8.17873 14.4569C11.6454 14.4568 14.4562 11.6462 14.4562 8.17944H13.6953H12.9344C12.9344 10.8057 10.805 12.9351 8.1787 12.9352L8.17871 13.696ZM13.6953 8.17944L14.4562 8.17939C14.4562 7.91351 14.4394 7.65137 14.4069 7.39396L13.652 7.48918L12.8971 7.58441C12.9217 7.77919 12.9344 7.97776 12.9344 8.1795L13.6953 8.17944ZM14.4715 6.46753V7.2284H188.299V6.46753V5.70666H14.4715V6.46753ZM6.4668 14.4721H7.22767C7.22767 14.4703 7.2275 14.4712 7.22802 14.4703C7.2294 14.4676 7.23542 14.4578 7.25136 14.4455C7.2872 14.4177 7.34161 14.4011 7.39314 14.4076L7.48839 13.6527L7.58363 12.8978C6.71464 12.7882 5.70593 13.4028 5.70593 14.4721H6.4668ZM189.119 54.1422L188.364 54.2374C188.37 54.2889 188.354 54.3434 188.326 54.3792C188.313 54.3952 188.304 54.4012 188.301 54.4026C188.3 54.4031 188.301 54.4029 188.299 54.4029V55.1638V55.9247C189.368 55.9247 189.983 54.9159 189.873 54.0469L189.119 54.1422ZM13.652 7.48918L14.4069 7.39396C14.4004 7.34243 14.4169 7.28799 14.4448 7.25212C14.4571 7.23617 14.4669 7.23015 14.4696 7.22876C14.4706 7.22823 14.4696 7.2284 14.4715 7.2284V6.46753V5.70666C13.4021 5.70666 12.7875 6.71541 12.8971 7.58441L13.652 7.48918ZM196.304 47.1583H195.543C195.543 47.1601 195.543 47.1592 195.542 47.1602C195.541 47.1629 195.535 47.1728 195.519 47.1852C195.483 47.2132 195.428 47.2298 195.377 47.2233L195.282 47.9783L195.187 48.7333C196.056 48.8422 197.065 48.2275 197.065 47.1583H196.304ZM14.4715 55.1638V54.4029C14.4696 54.4029 14.4706 54.4031 14.4696 54.4026C14.4669 54.4012 14.4571 54.3952 14.4448 54.3792C14.4169 54.3434 14.4004 54.2889 14.4069 54.2374L13.652 54.1422L12.8971 54.0469C12.7875 54.9159 13.4021 55.9247 14.4715 55.9247V55.1638ZM195.282 13.6527L195.377 14.4076C195.429 14.4011 195.483 14.4177 195.519 14.4455C195.535 14.4578 195.541 14.4676 195.542 14.4703C195.543 14.4713 195.543 14.4703 195.543 14.4721H196.304H197.065C197.065 13.4028 196.056 12.7882 195.187 12.8978L195.282 13.6527ZM7.48846 47.9783L7.3938 47.2233C7.34219 47.2298 7.28759 47.2132 7.25156 47.1852C7.23554 47.1728 7.22947 47.1629 7.22805 47.1602C7.2275 47.1592 7.22767 47.1601 7.22767 47.1583H6.4668H5.70593C5.70593 48.2275 6.7144 48.8422 7.58312 48.7333L7.48846 47.9783ZM189.119 7.48918L189.873 7.58441C189.983 6.71542 189.368 5.70666 188.299 5.70666V6.46753V7.2284C188.301 7.2284 188.3 7.22823 188.301 7.22876C188.304 7.23014 188.313 7.23617 188.326 7.25212C188.354 7.28799 188.37 7.34243 188.364 7.39396L189.119 7.48918Z" fill="#FBA747" mask="url(#path-6-inside-1_364_661)"/>
</g>
<circle cx="9.70066" cy="51.9292" r="1.33152" fill="#F4C790"/>
<circle cx="9.70066" cy="9.70066" r="1.33152" fill="#F4C790"/>
<circle cx="193.071" cy="9.70066" r="1.33152" fill="#F4C790"/>
<circle cx="193.071" cy="51.9292" r="1.33152" fill="#F4C790"/>
<g filter="url(#filter3_n_364_661)">
<path d="M53.3617 26.6503C53.3617 25.8242 53.2365 25.1358 52.9862 24.5851H42.4723V21.0554H68.5316V24.5851H65.2648V45.9507H61.0969V35.7372H56.1028C55.2016 36.6885 53.7622 37.1641 51.7846 37.1641C51.1838 37.1641 50.4579 37.089 49.6067 36.9388V39.755C49.6067 41.4823 50.8584 42.3459 53.3617 42.3459C54.8887 42.3459 56.4032 42.0581 57.9052 41.4823V45.3874C56.4532 45.8881 54.6384 46.1384 52.4605 46.1384C50.2826 46.1384 48.5679 45.5877 47.3162 44.4863C46.0646 43.3598 45.4387 41.8202 45.4387 39.8677V29.0159H49.6067V33.2214C50.1825 33.3967 50.7332 33.4843 51.2589 33.4843C52.6607 33.4843 53.3617 32.8334 53.3617 31.5317V26.6503ZM61.0969 32.1325V24.5851H57.1917C57.3669 25.0607 57.4546 25.7491 57.4546 26.6503V32.1325H61.0969ZM63.1612 18.6523C61.5841 18.6523 60.7956 17.8762 60.7956 16.3242C60.7956 14.7471 61.5841 13.9586 63.1612 13.9586C64.6882 13.9586 65.4517 14.7471 65.4517 16.3242C65.4517 17.8762 64.6882 18.6523 63.1612 18.6523ZM68.5683 37.9527V32.7708C68.5683 30.7932 69.069 29.3789 70.0703 28.5278C71.0966 27.6766 72.7113 27.2511 74.9142 27.2511H76.7165V24.5851H65.9774V21.0554H84.3015V24.5851H80.8845V31.0811H74.9142C74.0881 31.0811 73.5248 31.2313 73.2244 31.5317C72.924 31.8071 72.7738 32.2577 72.7738 32.8835V37.84C72.7738 39.1167 73.5499 39.755 75.1019 39.755C75.7277 39.755 76.4161 39.6674 77.1671 39.4922V36.0752H81.3351V46.0633H77.1671V43.2096C76.4161 43.3848 75.5275 43.4724 74.5011 43.4724C70.5459 43.4724 68.5683 41.6325 68.5683 37.9527ZM70.4464 12.5317C70.947 12.4566 71.6104 12.4191 72.4365 12.4191C74.2639 12.4191 75.841 13.4204 77.1677 15.423L80.8851 21.0554H76.6045L74.1638 17.4882C73.4378 16.4619 72.5241 15.9487 71.4226 15.9487C70.9971 15.9487 70.6717 15.9612 70.4464 15.9863V12.5317ZM97.4409 26.5376V31.4566C97.4409 35.1114 95.4883 36.9388 91.5832 36.9388C90.5067 36.9388 89.6681 36.8262 89.0673 36.6009V39.3044C89.0673 41.2069 90.2314 42.1582 92.5594 42.1582C93.9613 42.1582 95.4382 41.8703 96.9903 41.2946V45.1997C95.5634 45.7004 93.7861 45.9507 91.6583 45.9507C89.5305 45.9507 87.8658 45.3499 86.6642 44.1483C85.4626 42.9467 84.8618 41.3697 84.8618 39.4171V30.8183H89.0673V32.921C89.6681 33.1463 90.3565 33.259 91.1326 33.259C91.9336 33.259 92.4843 33.0963 92.7847 32.7708C93.0851 32.4454 93.2353 31.9698 93.2353 31.344V26.6503C93.2353 26.0495 93.0851 25.5864 92.7847 25.261C92.4843 24.9105 91.9336 24.7353 91.1326 24.7353C89.7557 24.7353 89.0673 25.3986 89.0673 26.7254C89.0673 27.3762 89.1049 27.8519 89.18 28.1523H85.012C84.9119 27.6516 84.8618 27.1134 84.8618 26.5376C84.8618 22.7577 86.9521 20.8677 91.1326 20.8677C95.3381 20.8677 97.4409 22.7577 97.4409 26.5376ZM100.295 21.0554H107.767V24.5851H104.463V45.9507H100.295V21.0554ZM122.919 30.1799V26.6127C122.919 25.9619 122.794 25.4863 122.544 25.1859C122.318 24.8855 121.83 24.7353 121.079 24.7353C120.353 24.7353 119.865 24.8855 119.615 25.1859C119.389 25.4863 119.277 25.9619 119.277 26.6127L119.427 28.0772H115.221C115.121 27.4513 115.071 26.9131 115.071 26.4625C115.071 22.7326 117.074 20.8677 121.079 20.8677C125.109 20.8677 127.125 22.7326 127.125 26.4625V30.1799H130.767V21.0554H138.239V24.5851H134.972V45.9507H130.767V33.7471H126.974V38.5534C126.974 42.0581 124.972 43.8104 120.966 43.8104C116.986 43.8104 114.996 42.0581 114.996 38.5534V35.4368C114.996 31.9322 116.986 30.1799 120.966 30.1799H122.919ZM122.919 38.4033V33.7471H120.966C120.19 33.7471 119.677 33.8973 119.427 34.1977C119.177 34.4981 119.051 34.9487 119.051 35.5495V38.4033C119.051 39.004 119.177 39.4546 119.427 39.755C119.677 40.0554 120.19 40.2056 120.966 40.2056C121.742 40.2056 122.256 40.0679 122.506 39.7926C122.781 39.4922 122.919 39.0291 122.919 38.4033ZM124.534 12.5317C125.034 12.4566 125.698 12.4191 126.524 12.4191C128.351 12.4191 129.928 13.4204 131.255 15.423L134.972 21.0554H130.692L128.251 17.4882C127.525 16.4619 126.611 15.9487 125.51 15.9487C125.084 15.9487 124.759 15.9612 124.534 15.9863V12.5317ZM144.698 33.5594C144.698 32.7333 144.573 32.0449 144.322 31.4942H140.455V27.6641H152.47V24.5851H135.686V21.0554H159.905V24.5851H156.638V45.9507H152.47V31.2689H148.565C148.791 31.7445 148.903 32.4329 148.903 33.3341V38.2155C148.903 40.1931 148.302 41.6951 147.101 42.7214C145.924 43.7228 144.235 44.2234 142.032 44.2234C140.855 44.2234 139.741 44.0857 138.69 43.8104V40.0179C139.791 40.2932 140.855 40.4309 141.881 40.4309C143.759 40.4309 144.698 39.6549 144.698 38.1029V33.5594ZM159.459 18.7649C157.882 18.7649 157.094 17.9889 157.094 16.4368C157.094 14.8598 157.882 14.0712 159.459 14.0712C160.986 14.0712 161.75 14.8598 161.75 16.4368C161.75 17.9889 160.986 18.7649 159.459 18.7649ZM146.242 12.5317C146.743 12.4566 147.406 12.4191 148.232 12.4191C150.059 12.4191 151.636 13.4204 152.963 15.423L156.681 21.0554H152.4L149.959 17.4882C149.233 16.4619 148.32 15.9487 147.218 15.9487C146.793 15.9487 146.467 15.9612 146.242 15.9863V12.5317Z" fill="#F9E3A8"/>
</g>
<defs>
<filter id="filter0_dd_364_661" x="0" y="0" width="202.771" height="65.4347" filterUnits="userSpaceOnUse" color-interpolation-filters="sRGB">
<feFlood flood-opacity="0" result="BackgroundImageFix"/>
<feColorMatrix in="SourceAlpha" type="matrix" values="0 0 0 0 0 0 0 0 0 0 0 0 0 0 0 0 0 0 127 0" result="hardAlpha"/>
<feOffset/>
<feComposite in2="hardAlpha" operator="out"/>
<feColorMatrix type="matrix" values="0 0 0 0 0 0 0 0 0 0 0 0 0 0 0 0 0 0 0.25 0"/>
<feBlend mode="normal" in2="BackgroundImageFix" result="effect1_dropShadow_364_661"/>
<feColorMatrix in="SourceAlpha" type="matrix" values="0 0 0 0 0 0 0 0 0 0 0 0 0 0 0 0 0 0 127 0" result="hardAlpha"/>
<feOffset dy="3.80435"/>
<feComposite in2="hardAlpha" operator="out"/>
<feColorMatrix type="matrix" values="0 0 0 0 0.286275 0 0 0 0 0.156863 0 0 0 0 0.137255 0 0 0 1 0"/>
<feBlend mode="normal" in2="effect1_dropShadow_364_661" result="effect2_dropShadow_364_661"/>
<feBlend mode="normal" in="SourceGraphic" in2="effect2_dropShadow_364_661" result="shape"/>
</filter>
<filter id="filter1_n_364_661" x="6.4668" y="6.46753" width="189.837" height="48.6963" filterUnits="userSpaceOnUse" color-interpolation-filters="sRGB">
<feFlood flood-opacity="0" result="BackgroundImageFix"/>
<feBlend mode="normal" in="SourceGraphic" in2="BackgroundImageFix" result="shape"/>
<feTurbulence type="fractalNoise" baseFrequency="2.6285715103149414 2.6285715103149414" stitchTiles="stitch" numOctaves="3" result="noise" seed="6556" />
<feColorMatrix in="noise" type="luminanceToAlpha" result="alphaNoise" />
<feComponentTransfer in="alphaNoise" result="coloredNoise1">
<feFuncA type="discrete" tableValues="0 0 0 0 0 0 0 1 1 1 1 1 1 1 1 1 1 1 1 1 1 1 1 1 1 1 1 1 1 1 1 1 1 1 1 1 1 1 1 1 1 1 1 0 0 0 0 0 0 0 0 0 0 0 0 0 0 0 0 0 0 0 0 0 0 0 0 0 0 0 0 0 0 0 0 0 0 0 0 0 0 0 0 0 0 0 0 0 0 0 0 0 0 0 0 0 0 0 0 0 "/>
</feComponentTransfer>
<feComposite operator="in" in2="shape" in="coloredNoise1" result="noise1Clipped" />
<feFlood flood-color="#7D1514" result="color1Flood" />
<feComposite operator="in" in2="noise1Clipped" in="color1Flood" result="color1" />
<feMerge result="effect1_noise_364_661">
<feMergeNode in="shape" />
<feMergeNode in="color1" />
</feMerge>
</filter>
<filter id="filter2_n_364_661" x="6.4668" y="6.46753" width="189.837" height="48.6963" filterUnits="userSpaceOnUse" color-interpolation-filters="sRGB">
<feFlood flood-opacity="0" result="BackgroundImageFix"/>
<feBlend mode="normal" in="SourceGraphic" in2="BackgroundImageFix" result="shape"/>
<feTurbulence type="fractalNoise" baseFrequency="inf inf" stitchTiles="stitch" numOctaves="3" result="noise" seed="6556" />
<feColorMatrix in="noise" type="luminanceToAlpha" result="alphaNoise" />
<feComponentTransfer in="alphaNoise" result="coloredNoise1">
<feFuncA type="discrete" tableValues="1 1 1 1 1 1 1 1 1 1 1 1 1 1 1 1 1 1 1 1 1 1 1 1 1 1 1 1 1 1 1 1 1 1 1 1 1 1 1 1 1 1 1 1 1 1 1 1 1 0 0 0 0 0 0 0 0 0 0 0 0 0 0 0 0 0 0 0 0 0 0 0 0 0 0 0 0 0 0 0 0 0 0 0 0 0 0 0 0 0 0 0 0 0 0 0 0 0 0 0 "/>
</feComponentTransfer>
<feComposite operator="in" in2="shape" in="coloredNoise1" result="noise1Clipped" />
<feFlood flood-color="#891B1A" result="color1Flood" />
<feComposite operator="in" in2="noise1Clipped" in="color1Flood" result="color1" />
<feMerge result="effect1_noise_364_661">
<feMergeNode in="shape" />
<feMergeNode in="color1" />
</feMerge>
</filter>
<filter id="filter3_n_364_661" x="42.4727" y="12.4189" width="119.277" height="33.7195" filterUnits="userSpaceOnUse" color-interpolation-filters="sRGB">
<feFlood flood-opacity="0" result="BackgroundImageFix"/>
<feBlend mode="normal" in="SourceGraphic" in2="BackgroundImageFix" result="shape"/>
<feTurbulence type="fractalNoise" baseFrequency="2.6285715103149414 2.6285715103149414" stitchTiles="stitch" numOctaves="3" result="noise" seed="2805" />
<feColorMatrix in="noise" type="luminanceToAlpha" result="alphaNoise" />
<feComponentTransfer in="alphaNoise" result="coloredNoise1">
<feFuncA type="discrete" tableValues="0 0 0 0 0 0 0 0 1 1 1 1 1 1 1 1 1 1 1 1 1 1 1 1 1 1 1 1 1 1 1 1 1 1 1 1 1 1 1 1 1 1 0 0 0 0 0 0 0 0 0 0 0 0 0 0 0 0 0 0 0 0 0 0 0 0 0 0 0 0 0 0 0 0 0 0 0 0 0 0 0 0 0 0 0 0 0 0 0 0 0 0 0 0 0 0 0 0 0 0 "/>
</feComponentTransfer>
<feComposite operator="in" in2="shape" in="coloredNoise1" result="noise1Clipped" />
<feFlood flood-color="#EFB825" result="color1Flood" />
<feComposite operator="in" in2="noise1Clipped" in="color1Flood" result="color1" />
<feMerge result="effect1_noise_364_661">
<feMergeNode in="shape" />
<feMergeNode in="color1" />
</feMerge>
</filter>
</defs>
</svg>
