<svg width="40" height="34" viewBox="0 0 40 34" fill="none" xmlns="http://www.w3.org/2000/svg">
<g clip-path="url(#clip0_5_152064)">
<g filter="url(#filter0_d_5_152064)">
<mask id="mask0_5_152064" style="mask-type:alpha" maskUnits="userSpaceOnUse" x="6" y="2" width="29" height="29">
<path d="M10 27.081L31.2132 5.86783" stroke="black" stroke-width="7" stroke-linecap="round" stroke-linejoin="round"/>
</mask>
<g mask="url(#mask0_5_152064)">
<rect x="10" y="32.7379" width="8" height="13" transform="rotate(-135 10 32.7379)" fill="#FFEEC9"/>
<rect x="19.1924" y="23.5455" width="8" height="13" transform="rotate(-135 19.1924 23.5455)" fill="#FFBE05"/>
<rect x="28.3848" y="14.3531" width="8" height="13" transform="rotate(-135 28.3848 14.3531)" fill="#C54A11"/>
</g>
</g>
<g filter="url(#filter1_d_5_152064)">
<mask id="mask1_5_152064" style="mask-type:alpha" maskUnits="userSpaceOnUse" x="6" y="2" width="29" height="29">
<path d="M31 27.081L9.7868 5.86783" stroke="black" stroke-width="7" stroke-linecap="round" stroke-linejoin="round"/>
</mask>
<g mask="url(#mask1_5_152064)">
<rect width="8" height="13" transform="matrix(0.707107 -0.707107 -0.707107 -0.707107 31 32.7379)" fill="#FFEEC9"/>
<rect width="8" height="13" transform="matrix(0.707107 -0.707107 -0.707107 -0.707107 21.8076 23.5455)" fill="#FFBE05"/>
<rect width="8" height="13" transform="matrix(0.707107 -0.707107 -0.707107 -0.707107 12.6152 14.3531)" fill="#C54A11"/>
</g>
</g>
</g>
<defs>
<filter id="filter0_d_5_152064" x="4.5" y="2.36783" width="30.2132" height="30.2132" filterUnits="userSpaceOnUse" color-interpolation-filters="sRGB">
<feFlood flood-opacity="0" result="BackgroundImageFix"/>
<feColorMatrix in="SourceAlpha" type="matrix" values="0 0 0 0 0 0 0 0 0 0 0 0 0 0 0 0 0 0 127 0" result="hardAlpha"/>
<feOffset dx="-2" dy="2"/>
<feComposite in2="hardAlpha" operator="out"/>
<feColorMatrix type="matrix" values="0 0 0 0 0 0 0 0 0 0 0 0 0 0 0 0 0 0 1 0"/>
<feBlend mode="normal" in2="BackgroundImageFix" result="effect1_dropShadow_5_152064"/>
<feBlend mode="normal" in="SourceGraphic" in2="effect1_dropShadow_5_152064" result="shape"/>
</filter>
<filter id="filter1_d_5_152064" x="4.2868" y="2.36783" width="30.2132" height="30.2132" filterUnits="userSpaceOnUse" color-interpolation-filters="sRGB">
<feFlood flood-opacity="0" result="BackgroundImageFix"/>
<feColorMatrix in="SourceAlpha" type="matrix" values="0 0 0 0 0 0 0 0 0 0 0 0 0 0 0 0 0 0 127 0" result="hardAlpha"/>
<feOffset dx="-2" dy="2"/>
<feComposite in2="hardAlpha" operator="out"/>
<feColorMatrix type="matrix" values="0 0 0 0 0 0 0 0 0 0 0 0 0 0 0 0 0 0 1 0"/>
<feBlend mode="normal" in2="BackgroundImageFix" result="effect1_dropShadow_5_152064"/>
<feBlend mode="normal" in="SourceGraphic" in2="effect1_dropShadow_5_152064" result="shape"/>
</filter>
<clipPath id="clip0_5_152064">
<rect width="40" height="34" fill="white"/>
</clipPath>
</defs>
</svg>
