<svg width="40" height="34" viewBox="0 0 40 34" fill="none" xmlns="http://www.w3.org/2000/svg">
<g filter="url(#filter0_d_1_148458)">
<mask id="mask0_1_148458" style="mask-type:alpha" maskUnits="userSpaceOnUse" x="2" y="2" width="38" height="8">
<path d="M6 6H36" stroke="black" stroke-width="7" stroke-linecap="round" stroke-linejoin="round"/>
</mask>
<g mask="url(#mask0_1_148458)">
<rect x="2" y="10" width="8" height="13" transform="rotate(-90 2 10)" fill="#FFEEC9"/>
<rect x="15" y="10" width="8" height="13" transform="rotate(-90 15 10)" fill="#FFBE05"/>
<rect x="28" y="10" width="8" height="13" transform="rotate(-90 28 10)" fill="#C54A11"/>
</g>
</g>
<g filter="url(#filter1_d_1_148458)">
<mask id="mask1_1_148458" style="mask-type:alpha" maskUnits="userSpaceOnUse" x="2" y="13" width="38" height="8">
<path d="M6 17H36" stroke="black" stroke-width="7" stroke-linecap="round" stroke-linejoin="round"/>
</mask>
<g mask="url(#mask1_1_148458)">
<rect x="2" y="21" width="8" height="13" transform="rotate(-90 2 21)" fill="#FFEEC9"/>
<rect x="15" y="21" width="8" height="13" transform="rotate(-90 15 21)" fill="#FFBE05"/>
<rect x="28" y="21" width="8" height="13" transform="rotate(-90 28 21)" fill="#C54A11"/>
</g>
</g>
<g filter="url(#filter2_d_1_148458)">
<mask id="mask2_1_148458" style="mask-type:alpha" maskUnits="userSpaceOnUse" x="2" y="24" width="38" height="8">
<path d="M6 28H36" stroke="black" stroke-width="7" stroke-linecap="round" stroke-linejoin="round"/>
</mask>
<g mask="url(#mask2_1_148458)">
<rect x="2" y="32" width="8" height="13" transform="rotate(-90 2 32)" fill="#FFEEC9"/>
<rect x="15" y="32" width="8" height="13" transform="rotate(-90 15 32)" fill="#FFBE05"/>
<rect x="28" y="32" width="8" height="13" transform="rotate(-90 28 32)" fill="#C54A11"/>
</g>
</g>
<defs>
<filter id="filter0_d_1_148458" x="0.5" y="2.5" width="39" height="9" filterUnits="userSpaceOnUse" color-interpolation-filters="sRGB">
<feFlood flood-opacity="0" result="BackgroundImageFix"/>
<feColorMatrix in="SourceAlpha" type="matrix" values="0 0 0 0 0 0 0 0 0 0 0 0 0 0 0 0 0 0 127 0" result="hardAlpha"/>
<feOffset dx="-2" dy="2"/>
<feComposite in2="hardAlpha" operator="out"/>
<feColorMatrix type="matrix" values="0 0 0 0 0 0 0 0 0 0 0 0 0 0 0 0 0 0 1 0"/>
<feBlend mode="normal" in2="BackgroundImageFix" result="effect1_dropShadow_1_148458"/>
<feBlend mode="normal" in="SourceGraphic" in2="effect1_dropShadow_1_148458" result="shape"/>
</filter>
<filter id="filter1_d_1_148458" x="0.5" y="13.5" width="39" height="9" filterUnits="userSpaceOnUse" color-interpolation-filters="sRGB">
<feFlood flood-opacity="0" result="BackgroundImageFix"/>
<feColorMatrix in="SourceAlpha" type="matrix" values="0 0 0 0 0 0 0 0 0 0 0 0 0 0 0 0 0 0 127 0" result="hardAlpha"/>
<feOffset dx="-2" dy="2"/>
<feComposite in2="hardAlpha" operator="out"/>
<feColorMatrix type="matrix" values="0 0 0 0 0 0 0 0 0 0 0 0 0 0 0 0 0 0 1 0"/>
<feBlend mode="normal" in2="BackgroundImageFix" result="effect1_dropShadow_1_148458"/>
<feBlend mode="normal" in="SourceGraphic" in2="effect1_dropShadow_1_148458" result="shape"/>
</filter>
<filter id="filter2_d_1_148458" x="0.5" y="24.5" width="39" height="9" filterUnits="userSpaceOnUse" color-interpolation-filters="sRGB">
<feFlood flood-opacity="0" result="BackgroundImageFix"/>
<feColorMatrix in="SourceAlpha" type="matrix" values="0 0 0 0 0 0 0 0 0 0 0 0 0 0 0 0 0 0 127 0" result="hardAlpha"/>
<feOffset dx="-2" dy="2"/>
<feComposite in2="hardAlpha" operator="out"/>
<feColorMatrix type="matrix" values="0 0 0 0 0 0 0 0 0 0 0 0 0 0 0 0 0 0 1 0"/>
<feBlend mode="normal" in2="BackgroundImageFix" result="effect1_dropShadow_1_148458"/>
<feBlend mode="normal" in="SourceGraphic" in2="effect1_dropShadow_1_148458" result="shape"/>
</filter>
</defs>
</svg>
