<svg width="516" height="784" viewBox="0 0 516 784" fill="none" xmlns="http://www.w3.org/2000/svg">
<path d="M257.513 4.54688C258.419 4.95855 259.719 5.54243 261.287 6.21582C266.62 8.50592 272.389 10.7072 282.8 14.0684C296.89 18.6178 300.106 19.0491 305.308 22.7812C308.389 24.9921 310.329 27.048 310.82 27.5791C316.67 33.8986 318.534 40.8525 319.223 44.8877L319.331 45.5195L319.918 45.2607C321.956 44.3598 336.389 38.2556 351.611 44.7227C364.211 50.0755 372.457 61.9564 372.92 75.2871L372.942 75.9385L373.565 75.748C376.268 74.9215 395.239 69.4482 413.088 79.6895C427.761 88.1083 436.014 103.893 434.504 120.418L434.45 121.001L435.034 120.963C437.451 120.807 448.218 120.357 456.391 127.329C465.356 134.978 467.605 148.51 461.177 160.49L460.955 160.904L461.354 161.151C469.113 165.948 480.001 174.344 482.529 186.633C485.057 198.923 481.103 208.031 476.043 216.747C470.999 225.434 464.781 233.819 463.107 244.458C461.682 253.518 463.506 262.856 470.784 271.422C478.004 279.918 490.559 287.614 510.525 293.57V779.313H4.5V293.571C24.4663 287.615 37.0213 279.918 44.2412 271.422C51.5198 262.856 53.3436 253.518 51.918 244.458C50.2437 233.819 44.0259 225.434 38.9824 216.747C33.9223 208.031 29.9678 198.924 32.4961 186.633C35.0237 174.344 45.9122 165.948 53.6709 161.151L54.0713 160.904L53.8486 160.49C47.4201 148.51 49.6691 134.978 58.6348 127.329C66.8072 120.357 77.5742 120.807 79.9912 120.963L80.5752 121.001L80.5215 120.418C79.0115 103.893 87.2649 88.1083 101.938 79.6895C119.786 69.4485 138.757 74.9214 141.46 75.748L142.083 75.9385L142.106 75.2871C142.57 61.9564 150.815 50.0756 163.414 44.7227C178.636 38.2556 193.069 44.3597 195.107 45.2607L195.694 45.5195L195.803 44.8877C196.492 40.8524 198.356 33.8987 204.206 27.5791C204.698 27.048 206.637 24.9921 209.718 22.7812C214.92 19.0488 218.135 18.6178 232.226 14.0684C242.636 10.7072 248.406 8.50591 253.738 6.21582C255.306 5.54247 256.607 4.95856 257.513 4.54688Z" fill="white" stroke="#88471E"/>
<path d="M511.026 779.813V293.2C470.774 281.287 460.791 262.396 463.601 244.536C466.912 223.499 488.15 211.474 483.019 186.532C480.446 174.021 469.387 165.529 461.618 160.726C468.142 148.567 465.883 134.771 456.716 126.949C448.381 119.839 437.432 120.307 435.002 120.464C436.53 103.741 428.176 87.7702 413.337 79.2556C395.295 68.9036 376.143 74.4371 373.419 75.27C372.949 61.74 364.58 49.6896 351.807 44.2627C336.381 37.7091 321.776 43.8922 319.716 44.803C319.018 40.7156 317.127 33.6563 311.187 27.239C310.683 26.6942 308.718 24.6126 305.599 22.375C300.314 18.5832 296.98 18.1218 282.954 13.5928C272.554 10.2351 266.8 8.03902 261.485 5.75649C259.798 5.03226 258.422 4.41345 257.514 4H257.511C256.604 4.41345 255.228 5.03226 253.541 5.75649C248.226 8.03902 242.472 10.2351 232.072 13.5928C218.045 18.1218 214.711 18.5829 209.426 22.375C206.308 24.6126 204.343 26.6942 203.839 27.239C197.898 33.6563 196.008 40.7156 195.31 44.803C193.249 43.8922 178.644 37.7091 163.219 44.2627C150.445 49.6896 142.076 61.74 141.606 75.27C138.883 74.4371 119.73 68.9039 101.689 79.2556C86.849 87.7702 78.4954 103.741 80.0237 120.464C77.5934 120.307 66.6444 119.838 58.3099 126.949C49.142 134.771 46.8834 148.567 53.408 160.726C45.6389 165.529 34.5793 174.022 32.0061 186.532C26.8753 211.474 48.1135 223.499 51.4241 244.536C54.2343 262.395 44.2518 281.287 4 293.2V779.813H511.026Z" stroke="#88471E" stroke-width="8" stroke-miterlimit="10"/>
<path d="M169.552 167.817C170.201 167.595 171.032 167.675 171.721 167.675L171.752 174.037C171.127 173.76 170.312 173.887 169.813 173.594C169.592 173.46 169.568 172.953 169.513 172.708L169.552 167.817Z" fill="#F98310"/>
<path d="M165.801 181.057C166.521 181.667 172.86 181.334 174.174 181.223C174.775 181.176 175.345 181.184 175.947 181.223C176.232 182.078 176.746 183.305 176.398 184.191C173.169 184.619 169.521 184.286 166.252 184.247C165.967 183.21 165.579 182.126 165.801 181.057Z" fill="#6FE3EB"/>
<path d="M165.802 181.058C167.005 178.288 169.426 175.803 169.513 172.709C169.569 172.954 169.593 173.46 169.814 173.595C170.313 173.888 171.128 173.761 171.753 174.038C173.122 176.491 174.903 178.589 175.947 181.232C175.346 181.184 174.776 181.177 174.175 181.232C172.861 181.335 166.514 181.659 165.802 181.058Z" fill="#F25E25"/>
<path d="M170.36 56.4069C171.119 56.4148 171.911 56.4623 172.671 56.4148C172.678 69.6707 173.011 83.0295 172.481 96.2695C172.481 96.9739 172.457 97.6782 172.528 98.3747C172.441 104.69 172.607 111.013 172.481 117.329C172.449 119.616 172.449 121.903 172.473 124.19C171.713 124.23 170.937 124.19 170.17 124.182L170.186 117.289C170.629 111.607 170.415 105.553 170.201 99.8466C170.17 98.9682 170.201 98.0897 170.217 97.2113C170.28 96.4436 170.257 95.7235 170.193 94.9637C169.901 88.6959 170.186 82.2776 170.193 75.9939C170.201 69.5203 169.901 62.8647 170.36 56.4069Z" fill="#FBC329"/>
<path d="M170.17 124.182C170.93 124.19 171.713 124.229 172.473 124.19C175.219 124.269 177.768 124.728 179.778 126.793C181.147 128.202 181.772 129.872 182.12 131.763C182.112 133.045 181.875 134.351 181.614 135.61C179.034 135.641 162.873 135.871 161.71 135.396C161.101 134.415 160.697 133.33 160.254 132.27C160.412 130.252 161.093 128.455 162.533 126.999C164.551 124.957 167.376 124.198 170.17 124.182Z" fill="#F98310"/>
<path d="M161.71 135.405C162.874 135.879 179.042 135.65 181.614 135.618C183.07 135.99 184.313 136.663 185.104 137.984C186.149 139.726 185.895 141.87 185.65 143.793C182.461 143.413 178.963 143.667 175.742 143.667C169.339 143.683 162.929 143.627 156.527 143.501C156.416 141.332 156.281 138.736 157.817 137.003C158.822 135.848 160.238 135.523 161.71 135.405Z" fill="#4E86A9"/>
<path d="M150.513 153.907C152.539 155.925 154.746 157.381 156.764 159.407C157.334 159.122 157.833 158.814 158.355 158.442L158.68 158.355C158.681 158.357 158.682 158.359 158.683 158.36C159.793 160.146 162.312 165.258 162.565 167.29L158.964 166.799C157.192 166.253 155.15 166.016 153.33 165.644C150.188 164.987 147.062 164.267 143.944 163.467C142.939 162.312 142.495 160.365 142.013 158.925L142.29 158.869C145.74 158.181 148.051 156.25 150.513 153.907Z" fill="#4E86A9"/>
<path d="M193.58 152.063C195.756 153.741 197.648 155.704 199.729 157.492C199.579 159.835 198.716 162.533 197.41 164.496C187.336 167.551 173.051 168.208 162.565 167.298C162.304 165.264 159.779 160.143 158.679 158.363L158.683 158.36C160.62 157.119 162.352 155.885 163.982 154.255C166.411 156.653 168.983 158.909 171.531 161.18C174.262 158.893 176.921 156.44 179.271 153.765C181.582 155.862 183.98 157.848 186.275 159.961C188.475 157.168 191.087 154.604 193.58 152.063Z" fill="#4E86A9"/>
<path d="M185.65 143.793C182.461 143.413 178.963 143.667 175.742 143.667C169.339 143.683 162.929 143.627 156.527 143.501L150.513 153.907C152.539 155.925 154.746 157.381 156.764 159.407C157.334 159.122 157.833 158.814 158.355 158.442L158.68 158.355C158.681 158.357 158.682 158.359 158.683 158.36C160.62 157.119 162.352 155.885 163.982 154.255C166.411 156.653 168.983 158.909 171.531 161.18C174.262 158.893 176.921 156.44 179.271 153.765C181.582 155.862 183.98 157.848 186.275 159.961C188.475 157.168 191.087 154.604 193.58 152.063L185.65 143.793Z" fill="#F1D2A9"/>
<path d="M254.929 17.4069L256.627 18.2483C256.551 27.4886 257.753 91.5849 256.266 94.8753L254.718 94.6049C253.772 86.7168 254.658 77.5666 254.673 69.5283C254.688 52.6102 254.403 35.6471 254.703 18.7291L254.929 17.4069Z" fill="#10B4D0"/>
<path d="M227.868 166.876C231.939 164.262 236.732 162.534 240.489 159.454C242.787 162.88 245.056 164.848 248.797 166.651C247.791 168.905 242.457 182.863 241.36 183.644L240.774 183.794C239.196 183.749 237.363 185.252 235.636 185.522C232.585 186.003 229.145 185.597 226.065 185.462C225.719 184.335 225.449 183.208 225.253 182.051C224.247 176.492 224.517 171.669 227.868 166.876Z" fill="#F1D2A9"/>
<path d="M270.404 159.529C273.619 161.783 281.267 165.299 283.415 167.913C287.592 174.043 286.645 179.422 285.504 186.319C281.146 186.469 276.474 186.859 272.267 185.552C271.666 185.132 271.08 184.681 270.509 184.2C265.1 179.663 262.966 173.653 262.365 166.801C265.791 165.073 268.27 162.699 270.404 159.529Z" fill="#F1D2A9"/>
<path d="M270.839 116.768C274.25 114.724 278.742 113.507 282.739 114.379C283.791 114.604 284.527 115.01 285.158 115.911C287.081 118.631 286.36 126.098 285.413 129.178C284.947 130.666 284.166 132.003 283.385 133.34C279.418 137.066 274.911 139.47 270.238 142.175C267.699 138.509 264.468 136.18 260.231 134.827C263.312 129.073 265.61 120.704 270.839 116.768Z" fill="#F1D2A9"/>
<path d="M224.864 115.054L225.405 114.949C231.264 113.867 235.156 114.559 240.054 117.969C243.63 121.109 247.837 130.575 250.016 135.218C246.184 137.321 243.51 139.515 240.76 142.956C239.723 142.189 238.296 141.754 237.109 141.243C233.353 139.65 230.603 138.208 227.553 135.458C226.802 134.422 226.036 133.4 225.39 132.288C222.159 126.789 223.271 120.824 224.864 115.054Z" fill="#F1D2A9"/>
<path d="M248.798 166.651C253.396 168.153 257.693 168.018 262.351 166.816C262.952 173.668 265.085 179.678 270.494 184.215C271.065 184.681 271.651 185.132 272.252 185.567C269.968 193.906 261.96 200.592 256.04 206.407C250.226 201.148 242.743 195.364 241.136 187.175C240.925 186.078 240.94 184.921 240.79 183.809L241.376 183.659C242.443 182.863 247.792 168.905 248.798 166.651Z" fill="#4E86A9"/>
<path d="M254.717 94.6058L256.265 94.8763C263.672 102.584 268.104 106.19 270.854 116.753C265.61 120.689 263.326 129.058 260.231 134.797C256.685 134.557 253.5 134.317 250.014 135.203C247.836 130.56 243.629 121.095 240.053 117.955C240.954 115.566 241.059 112.906 242.141 110.457C244.921 104.162 250.63 100.285 254.537 94.8613C254.597 94.7861 254.657 94.696 254.717 94.6058Z" fill="#4E86A9"/>
<path d="M227.568 135.444C230.618 138.193 233.368 139.636 237.124 141.228C238.311 141.739 239.739 142.175 240.775 142.941C238.492 147.674 237.89 151.956 239.513 157.035C239.784 157.861 240.144 158.672 240.505 159.454C236.749 162.519 231.956 164.247 227.884 166.876C226.141 167.116 224.398 167.146 222.655 166.936C212.964 165.749 205.767 158.177 200.013 150.935C209.719 144.399 214.662 136.06 227.568 135.444Z" fill="#4E86A9"/>
<path d="M250.016 135.217C253.501 134.331 256.687 134.556 260.232 134.812C264.469 136.164 267.7 138.493 270.239 142.159C272.373 146.591 273.92 150.768 272.192 155.666C271.726 156.973 271.095 158.326 270.404 159.528C268.286 162.698 265.792 165.072 262.351 166.8C257.693 168.002 253.396 168.137 248.798 166.635C245.072 164.847 242.788 162.863 240.49 159.438C240.144 158.641 239.769 157.845 239.498 157.019C237.86 151.955 238.476 147.658 240.76 142.925C243.495 139.515 246.169 137.321 250.016 135.217Z" fill="#E2462B"/>
<path d="M270.224 142.16C274.911 139.455 279.404 137.051 283.37 133.325C294.128 134.197 302.738 142.04 309.424 149.913C309.934 150.514 310.43 151.13 310.911 151.761C305.111 158.011 299.162 165.148 290.447 167.207C288.178 167.747 285.549 167.282 283.385 167.928C281.237 165.313 273.589 161.798 270.374 159.544C271.05 158.342 271.696 156.99 272.162 155.682C273.92 150.769 272.357 146.592 270.224 142.16Z" fill="#4E86A9"/>
<path d="M344.185 56.5333L345.885 56.4069C345.843 63.3194 345.646 70.26 345.857 77.1725V106.93C345.857 111.482 346.011 116.133 345.744 120.671L344.016 120.572C343.468 116.118 343.848 111.201 343.848 106.705C343.791 98.0223 343.82 89.3396 343.932 80.6568L344.185 56.5333Z" fill="#10B4D0"/>
<path d="M343.862 179.638C344.859 180.073 345.562 180.157 346.615 179.834C348.203 180.087 348.906 180.649 349.931 181.857C351.35 183.515 353.865 187.182 353.682 189.374C353.514 189.458 353.345 189.571 353.163 189.641C350.591 190.596 339.857 190.891 337.806 189.205C337.385 188.854 337.076 188.405 336.991 187.857C336.71 185.904 339.127 182.532 340.377 181.071C341.389 179.89 342.33 179.722 343.862 179.638Z" fill="#F25E25"/>
<path d="M344.002 120.573L345.73 120.671L363.251 139.399C366.847 143.221 371.006 147.056 374.013 151.37C370.725 155.936 366.229 159.87 362.253 163.832C356.928 169.058 351.716 174.383 346.616 179.821C345.562 180.13 344.859 180.045 343.862 179.624C341.853 177.095 339.45 174.749 337.244 172.388C330.557 165.195 323.462 158.296 317.013 150.906C321.93 144.12 327.986 138.093 333.662 131.939C337.146 128.174 340.392 124.212 344.002 120.573Z" fill="#4E86A9"/>
<path d="M344.437 126.291C347.401 128.609 350.028 131.882 352.599 134.636L366.958 150.133C359.919 157.565 352.726 164.661 346.08 172.458L346.01 172.528H345.87C343.565 171.095 326.706 152.76 323.488 149.248C330.78 141.942 337.636 134.046 344.437 126.291Z" fill="#F1D2A9"/>
</svg>
