<svg width="516" height="784" viewBox="0 0 516 784" fill="none" xmlns="http://www.w3.org/2000/svg">
<path d="M257.513 4.54688C258.419 4.95855 259.719 5.54243 261.287 6.21582C266.62 8.50592 272.389 10.7072 282.8 14.0684C296.89 18.6178 300.106 19.0491 305.308 22.7812C308.389 24.9921 310.329 27.048 310.82 27.5791C316.67 33.8986 318.534 40.8525 319.223 44.8877L319.331 45.5195L319.918 45.2607C321.956 44.3598 336.389 38.2556 351.611 44.7227C364.211 50.0755 372.457 61.9564 372.92 75.2871L372.942 75.9385L373.565 75.748C376.268 74.9215 395.239 69.4482 413.088 79.6895C427.761 88.1083 436.014 103.893 434.504 120.418L434.45 121.001L435.034 120.963C437.451 120.807 448.218 120.357 456.391 127.329C465.356 134.978 467.605 148.51 461.177 160.49L460.954 160.904L461.354 161.151C469.113 165.948 480.001 174.344 482.529 186.633C485.057 198.923 481.103 208.031 476.043 216.747C470.999 225.434 464.781 233.819 463.107 244.458C461.682 253.518 463.506 262.856 470.784 271.422C478.004 279.918 490.559 287.614 510.525 293.57V779.313H4.5V293.571C24.4663 287.615 37.0213 279.918 44.2412 271.422C51.5198 262.856 53.3436 253.518 51.918 244.458C50.2437 233.819 44.0259 225.434 38.9824 216.747C33.9223 208.031 29.9678 198.924 32.4961 186.633C35.0237 174.344 45.9122 165.948 53.6709 161.151L54.0713 160.904L53.8486 160.49C47.4201 148.51 49.6691 134.978 58.6348 127.329C66.8072 120.357 77.5742 120.807 79.9912 120.963L80.5752 121.001L80.5215 120.418C79.0115 103.893 87.2649 88.1083 101.938 79.6895C119.786 69.4485 138.757 74.9214 141.46 75.748L142.083 75.9385L142.106 75.2871C142.57 61.9564 150.815 50.0756 163.414 44.7227C178.636 38.2556 193.069 44.3597 195.107 45.2607L195.694 45.5195L195.803 44.8877C196.492 40.8524 198.356 33.8987 204.206 27.5791C204.698 27.048 206.637 24.9921 209.718 22.7812C214.92 19.0488 218.135 18.6178 232.226 14.0684C242.636 10.7072 248.406 8.50591 253.738 6.21582C255.306 5.54247 256.607 4.95856 257.513 4.54688Z" fill="white" stroke="#88471E"/>
<path d="M511.026 779.813V293.2C470.774 281.287 460.791 262.396 463.601 244.536C466.912 223.499 488.15 211.474 483.019 186.532C480.446 174.021 469.387 165.529 461.618 160.726C468.142 148.567 465.883 134.771 456.716 126.949C448.381 119.839 437.432 120.307 435.002 120.464C436.53 103.741 428.176 87.7702 413.337 79.2556C395.295 68.9036 376.143 74.4371 373.419 75.27C372.949 61.74 364.58 49.6896 351.807 44.2627C336.381 37.7091 321.776 43.8922 319.716 44.803C319.018 40.7156 317.127 33.6563 311.187 27.239C310.683 26.6942 308.718 24.6126 305.599 22.375C300.314 18.5832 296.98 18.1218 282.954 13.5928C272.554 10.2351 266.8 8.03902 261.485 5.75649C259.798 5.03226 258.422 4.41345 257.514 4H257.511C256.604 4.41345 255.228 5.03226 253.541 5.75649C248.226 8.03902 242.472 10.2351 232.072 13.5928C218.045 18.1218 214.711 18.5829 209.426 22.375C206.308 24.6126 204.343 26.6942 203.839 27.239C197.898 33.6563 196.008 40.7156 195.31 44.803C193.249 43.8922 178.644 37.7091 163.219 44.2627C150.445 49.6896 142.076 61.74 141.606 75.27C138.883 74.4371 119.73 68.9039 101.689 79.2556C86.849 87.7702 78.4954 103.741 80.0237 120.464C77.5934 120.307 66.6444 119.838 58.3099 126.949C49.142 134.771 46.8834 148.567 53.408 160.726C45.6389 165.529 34.5793 174.022 32.0061 186.532C26.8753 211.474 48.1135 223.499 51.4241 244.536C54.2343 262.395 44.2518 281.287 4 293.2V779.813H511.026Z" stroke="#88471E" stroke-width="8" stroke-miterlimit="10"/>
<path d="M169.552 157.817C170.201 157.595 171.032 157.675 171.721 157.675L171.752 164.037C171.127 163.76 170.312 163.887 169.813 163.594C169.592 163.46 169.568 162.953 169.513 162.708L169.552 157.817Z" fill="#F98310"/>
<path d="M165.801 171.057C166.521 171.667 172.86 171.334 174.174 171.223C174.775 171.176 175.345 171.184 175.947 171.223C176.232 172.078 176.746 173.305 176.398 174.191C173.169 174.619 169.521 174.286 166.252 174.247C165.967 173.21 165.579 172.126 165.801 171.057Z" fill="#6FE3EB"/>
<path d="M165.802 171.058C167.005 168.288 169.426 165.803 169.513 162.709C169.569 162.954 169.593 163.46 169.814 163.595C170.313 163.888 171.128 163.761 171.753 164.038C173.122 166.491 174.903 168.589 175.947 171.232C175.346 171.184 174.776 171.177 174.175 171.232C172.861 171.335 166.514 171.659 165.802 171.058Z" fill="#F25E25"/>
<path d="M170.36 46.4069C171.119 46.4148 171.911 46.4623 172.671 46.4148C172.678 59.6707 173.011 73.0295 172.481 86.2695C172.481 86.9739 172.457 87.6782 172.528 88.3746C172.441 94.69 172.607 101.013 172.481 107.329C172.449 109.616 172.449 111.903 172.473 114.19C171.713 114.23 170.937 114.19 170.17 114.182L170.186 107.289C170.629 101.607 170.415 95.5526 170.201 89.8466C170.17 88.9682 170.201 88.0897 170.217 87.2113C170.28 86.4436 170.257 85.7235 170.193 84.9637C169.901 78.6959 170.186 72.2776 170.193 65.9939C170.201 59.5203 169.901 52.8647 170.36 46.4069Z" fill="#FBC329"/>
<path d="M170.17 114.182C170.93 114.19 171.713 114.229 172.473 114.19C175.219 114.269 177.768 114.728 179.778 116.793C181.147 118.202 181.772 119.872 182.12 121.763C182.112 123.045 181.875 124.351 181.614 125.61C179.034 125.641 162.873 125.871 161.71 125.396C161.101 124.415 160.697 123.33 160.254 122.27C160.412 120.252 161.093 118.455 162.533 116.999C164.551 114.957 167.376 114.198 170.17 114.182Z" fill="#F98310"/>
<path d="M161.71 125.405C162.874 125.879 179.042 125.65 181.614 125.618C183.07 125.99 184.313 126.663 185.104 127.984C186.149 129.726 185.896 131.87 185.65 133.793C182.461 133.413 178.963 133.667 175.742 133.667C169.339 133.683 162.929 133.627 156.527 133.501C156.416 131.332 156.281 128.736 157.817 127.003C158.822 125.848 160.238 125.523 161.71 125.405Z" fill="#4E86A9"/>
<path d="M150.513 143.907C152.539 145.925 154.746 147.381 156.764 149.407C157.334 149.122 157.833 148.814 158.355 148.442L158.68 148.355C158.681 148.357 158.682 148.359 158.683 148.36C159.793 150.146 162.312 155.258 162.565 157.29L158.964 156.799C157.192 156.253 155.15 156.016 153.33 155.644C150.188 154.987 147.062 154.267 143.944 153.467C142.939 152.312 142.495 150.365 142.013 148.925L142.29 148.869C145.74 148.181 148.051 146.25 150.513 143.907Z" fill="#4E86A9"/>
<path d="M193.58 142.063C195.756 143.741 197.648 145.704 199.729 147.492C199.579 149.835 198.716 152.533 197.41 154.496C187.336 157.551 173.051 158.208 162.565 157.298C162.304 155.264 159.779 150.143 158.679 148.363L158.683 148.36C160.62 147.119 162.352 145.885 163.982 144.255C166.411 146.653 168.983 148.909 171.531 151.18C174.262 148.893 176.921 146.44 179.271 143.765C181.582 145.862 183.98 147.848 186.275 149.961C188.475 147.168 191.087 144.604 193.58 142.063Z" fill="#4E86A9"/>
<path d="M185.65 133.793C182.461 133.413 178.963 133.667 175.742 133.667C169.339 133.683 162.929 133.627 156.527 133.501L150.513 143.907C152.539 145.925 154.746 147.381 156.764 149.407C157.334 149.122 157.833 148.814 158.355 148.442L158.68 148.355C158.681 148.357 158.682 148.359 158.683 148.36C160.62 147.119 162.352 145.885 163.982 144.255C166.411 146.653 168.983 148.909 171.531 151.18C174.262 148.893 176.921 146.44 179.271 143.765C181.582 145.862 183.98 147.848 186.275 149.961C188.475 147.168 191.087 144.604 193.58 142.063L185.65 133.793Z" fill="#F1D2A9"/>
<path d="M256.929 8.40686L258.627 9.24826C258.551 18.4886 259.753 82.5849 258.266 85.8753L256.718 85.6049C255.772 77.7168 256.658 68.5666 256.673 60.5283C256.688 43.6102 256.403 26.6471 256.703 9.72906L256.929 8.40686Z" fill="#10B4D0"/>
<path d="M229.868 157.876C233.939 155.262 238.732 153.534 242.489 150.454C244.787 153.88 247.056 155.848 250.797 157.651C249.791 159.905 244.457 173.863 243.36 174.644L242.774 174.794C241.196 174.749 239.363 176.252 237.636 176.522C234.585 177.003 231.145 176.597 228.065 176.462C227.719 175.335 227.449 174.208 227.253 173.051C226.247 167.492 226.517 162.669 229.868 157.876Z" fill="#F1D2A9"/>
<path d="M272.404 150.529C275.619 152.783 283.267 156.299 285.415 158.913C289.592 165.043 288.645 170.422 287.504 177.319C283.146 177.469 278.474 177.859 274.267 176.552C273.666 176.132 273.08 175.681 272.509 175.2C267.1 170.663 264.966 164.653 264.365 157.801C267.791 156.073 270.27 153.699 272.404 150.529Z" fill="#F1D2A9"/>
<path d="M272.839 107.768C276.25 105.724 280.742 104.507 284.739 105.379C285.791 105.604 286.527 106.01 287.158 106.911C289.081 109.631 288.36 117.098 287.413 120.178C286.947 121.666 286.166 123.003 285.385 124.34C281.418 128.066 276.911 130.47 272.238 133.175C269.699 129.509 266.468 127.18 262.231 125.827C265.312 120.073 267.61 111.704 272.839 107.768Z" fill="#F1D2A9"/>
<path d="M226.864 106.054L227.405 105.949C233.264 104.867 237.156 105.559 242.054 108.969C245.63 112.109 249.837 121.575 252.016 126.218C248.184 128.321 245.51 130.515 242.76 133.956C241.723 133.189 240.296 132.754 239.109 132.243C235.353 130.65 232.603 129.208 229.553 126.458C228.802 125.422 228.036 124.4 227.39 123.288C224.159 117.789 225.271 111.824 226.864 106.054Z" fill="#F1D2A9"/>
<path d="M250.798 157.651C255.396 159.153 259.693 159.018 264.351 157.816C264.952 164.668 267.085 170.678 272.494 175.215C273.065 175.681 273.651 176.132 274.252 176.567C271.968 184.906 263.96 191.592 258.04 197.407C252.226 192.148 244.743 186.364 243.136 178.175C242.925 177.078 242.94 175.921 242.79 174.809L243.376 174.659C244.443 173.863 249.792 159.905 250.798 157.651Z" fill="#4E86A9"/>
<path d="M256.717 85.6058L258.265 85.8763C265.672 93.5841 270.104 97.19 272.854 107.753C267.61 111.689 265.326 120.058 262.231 125.797C258.685 125.557 255.5 125.317 252.014 126.203C249.836 121.56 245.629 112.095 242.053 108.955C242.954 106.566 243.059 103.906 244.141 101.457C246.921 95.1617 252.63 91.2852 256.537 85.8613C256.597 85.7861 256.657 85.696 256.717 85.6058Z" fill="#4E86A9"/>
<path d="M229.568 126.444C232.618 129.193 235.368 130.636 239.124 132.228C240.311 132.739 241.739 133.175 242.775 133.941C240.492 138.674 239.89 142.956 241.513 148.035C241.784 148.861 242.144 149.672 242.505 150.454C238.749 153.519 233.956 155.247 229.884 157.876C228.141 158.116 226.398 158.146 224.655 157.936C214.964 156.749 207.767 149.177 202.013 141.935C211.719 135.399 216.662 127.06 229.568 126.444Z" fill="#4E86A9"/>
<path d="M252.44 126.634C255.926 125.747 259.111 125.973 262.657 126.228C266.894 127.58 270.125 129.909 272.664 133.575C274.797 138.008 276.345 142.185 274.617 147.083C274.151 148.39 273.52 149.742 272.829 150.944C270.711 154.114 268.216 156.488 264.776 158.216C260.118 159.418 255.821 159.553 251.223 158.051C247.497 156.263 245.213 154.28 242.914 150.854C242.569 150.058 242.193 149.261 241.923 148.435C240.285 143.372 240.901 139.074 243.185 134.342C245.919 130.931 248.594 128.737 252.44 126.634Z" fill="#E2462B"/>
<path d="M272.224 133.16C276.911 130.455 281.404 128.051 285.37 124.325C296.128 125.197 304.738 133.04 311.424 140.913C311.934 141.514 312.43 142.13 312.911 142.761C307.111 149.011 301.162 156.148 292.447 158.207C290.178 158.747 287.549 158.282 285.385 158.928C283.237 156.313 275.589 152.798 272.374 150.544C273.05 149.342 273.696 147.99 274.162 146.682C275.92 141.769 274.357 137.592 272.224 133.16Z" fill="#4E86A9"/>
<path d="M344.185 46.5333L345.885 46.4069C345.843 53.3194 345.646 60.26 345.857 67.1725V96.9299C345.857 101.482 346.011 106.133 345.744 110.671L344.016 110.572C343.468 106.118 343.848 101.201 343.848 96.7051C343.791 88.0223 343.82 79.3396 343.932 70.6568L344.185 46.5333Z" fill="#10B4D0"/>
<path d="M343.862 169.638C344.859 170.073 345.562 170.157 346.615 169.834C348.203 170.087 348.906 170.649 349.931 171.857C351.35 173.515 353.865 177.182 353.682 179.374C353.514 179.458 353.345 179.571 353.163 179.641C350.591 180.596 339.857 180.891 337.806 179.205C337.385 178.854 337.076 178.405 336.991 177.857C336.71 175.904 339.127 172.532 340.377 171.071C341.389 169.89 342.33 169.722 343.862 169.638Z" fill="#F25E25"/>
<path d="M344.002 110.573L345.73 110.671L363.251 129.399C366.847 133.221 371.006 137.056 374.013 141.37C370.725 145.936 366.229 149.87 362.253 153.832C356.928 159.058 351.716 164.383 346.616 169.821C345.562 170.13 344.859 170.045 343.862 169.624C341.853 167.095 339.45 164.749 337.244 162.388C330.557 155.195 323.462 148.296 317.013 140.906C321.93 134.12 327.986 128.093 333.662 121.939C337.146 118.174 340.392 114.212 344.002 110.573Z" fill="#4E86A9"/>
<path d="M344.437 116.291C347.401 118.609 350.028 121.882 352.599 124.636L366.958 140.133C359.919 147.565 352.726 154.661 346.08 162.458L346.01 162.528H345.87C343.565 161.095 326.706 142.76 323.488 139.248C330.78 131.942 337.636 124.046 344.437 116.291Z" fill="#F1D2A9"/>
</svg>
